<svg width="16" height="16" viewBox="0 0 16 16" fill="none" xmlns="http://www.w3.org/2000/svg">
<g clip-path="url(#clip0_1205_3763)">
<path d="M11.6652 0.799805C10.9148 0.811069 10.1808 1.01322 9.53722 1.38586C8.89368 1.75849 8.36343 2.2884 8 2.92209C7.63657 2.2884 7.10632 1.75849 6.46278 1.38586C5.81924 1.01322 5.08521 0.811069 4.33481 0.799805C3.13859 0.849962 2.01155 1.35498 1.19993 2.20452C0.38831 3.05406 -0.0419227 4.17907 0.0032261 5.33377C0.0032261 9.69088 7.30428 14.7233 7.61482 14.9368L8 15.1998L8.38518 14.9368C8.69572 14.7245 15.9968 9.69088 15.9968 5.33377C16.0419 4.17907 15.6117 3.05406 14.8001 2.20452C13.9884 1.35498 12.8614 0.849962 11.6652 0.799805Z" fill="#DFDFDF"/>
</g>
<defs>
<clipPath id="clip0_1205_3763">
<rect width="16" height="16" fill="white"/>
</clipPath>
</defs>
</svg>
