<svg width="13" height="14" viewBox="0 0 13 14" fill="none" xmlns="http://www.w3.org/2000/svg">
<g clip-path="url(#clip0_1205_3751)">
<path d="M0 10.7915C0.00086009 11.5095 0.286478 12.1979 0.794202 12.7056C1.30193 13.2134 1.9903 13.499 2.70833 13.4998H10.2917C11.0097 13.499 11.6981 13.2134 12.2058 12.7056C12.7135 12.1979 12.9991 11.5095 13 10.7915V5.9165H0V10.7915ZM9.20833 8.354C9.36903 8.354 9.52612 8.40166 9.65973 8.49094C9.79335 8.58021 9.89749 8.70711 9.95899 8.85557C10.0205 9.00404 10.0366 9.16741 10.0052 9.32502C9.97387 9.48262 9.89649 9.6274 9.78286 9.74103C9.66923 9.85466 9.52445 9.93204 9.36684 9.96339C9.20923 9.99474 9.04587 9.97865 8.8974 9.91716C8.74894 9.85566 8.62204 9.75152 8.53276 9.61791C8.44349 9.48429 8.39583 9.3272 8.39583 9.1665C8.39583 8.95102 8.48144 8.74435 8.63381 8.59198C8.78618 8.43961 8.99285 8.354 9.20833 8.354ZM6.5 8.354C6.6607 8.354 6.81779 8.40166 6.9514 8.49094C7.08502 8.58021 7.18916 8.70711 7.25065 8.85557C7.31215 9.00404 7.32824 9.16741 7.29689 9.32502C7.26554 9.48262 7.18815 9.6274 7.07452 9.74103C6.96089 9.85466 6.81612 9.93204 6.65851 9.96339C6.5009 9.99474 6.33753 9.97865 6.18907 9.91716C6.04061 9.85566 5.91371 9.75152 5.82443 9.61791C5.73515 9.48429 5.6875 9.3272 5.6875 9.1665C5.6875 8.95102 5.7731 8.74435 5.92548 8.59198C6.07785 8.43961 6.28451 8.354 6.5 8.354ZM3.79167 8.354C3.95236 8.354 4.10945 8.40166 4.24307 8.49094C4.37668 8.58021 4.48082 8.70711 4.54232 8.85557C4.60382 9.00404 4.61991 9.16741 4.58855 9.32502C4.5572 9.48262 4.47982 9.6274 4.36619 9.74103C4.25256 9.85466 4.10779 9.93204 3.95018 9.96339C3.79257 9.99474 3.6292 9.97865 3.48074 9.91716C3.33227 9.85566 3.20538 9.75152 3.1161 9.61791C3.02682 9.48429 2.97917 9.3272 2.97917 9.1665C2.97917 8.95102 3.06477 8.74435 3.21714 8.59198C3.36952 8.43961 3.57618 8.354 3.79167 8.354Z" fill="#110A95"/>
<path d="M10.2917 1.58333H9.75V1.04167C9.75 0.898008 9.69293 0.760233 9.59135 0.658651C9.48977 0.557068 9.35199 0.5 9.20833 0.5C9.06467 0.5 8.9269 0.557068 8.82532 0.658651C8.72373 0.760233 8.66667 0.898008 8.66667 1.04167V1.58333H4.33333V1.04167C4.33333 0.898008 4.27627 0.760233 4.17468 0.658651C4.0731 0.557068 3.93533 0.5 3.79167 0.5C3.64801 0.5 3.51023 0.557068 3.40865 0.658651C3.30707 0.760233 3.25 0.898008 3.25 1.04167V1.58333H2.70833C1.9903 1.58419 1.30193 1.86981 0.794202 2.37754C0.286478 2.88526 0.00086009 3.57364 0 4.29167L0 4.83333H13V4.29167C12.9991 3.57364 12.7135 2.88526 12.2058 2.37754C11.6981 1.86981 11.0097 1.58419 10.2917 1.58333Z" fill="#110A95"/>
</g>
<defs>
<clipPath id="clip0_1205_3751">
<rect width="13" height="13" fill="white" transform="translate(0 0.5)"/>
</clipPath>
</defs>
</svg>
