<svg width="16" height="16" viewBox="0 0 16 16" fill="none" xmlns="http://www.w3.org/2000/svg">
<path d="M13.5716 3.63183C13.5228 3.6202 12.9525 3.48493 12.0582 3.34385L11.5834 1.10759C11.4929 0.683605 11.1639 0.354166 10.7437 0.267624C10.6906 0.256716 9.42281 0 8.00132 0C6.57982 0 5.31133 0.257443 5.25817 0.268351C4.83869 0.354893 4.50972 0.684332 4.41921 1.10759L3.94442 3.34385C3.05087 3.48421 2.48055 3.61947 2.43171 3.63111C1.85205 3.76928 1.49362 4.35762 1.63082 4.94378C1.74646 5.44121 2.18174 5.77719 2.66443 5.78374C2.59261 6.7146 2.54017 7.80983 2.54017 8.85778C2.54017 12.246 3.08032 14.7368 3.10331 14.8415C3.15933 15.0982 3.34896 15.304 3.59749 15.3797C3.68081 15.4051 5.66257 16 8.00203 16C10.3415 16 12.3225 15.4058 12.4059 15.3804C12.6558 15.3048 12.8447 15.0982 12.9008 14.8401C12.9237 14.7346 13.4632 12.2184 13.4632 8.85851C13.4632 7.80474 13.4115 6.71097 13.3404 5.78374C13.8223 5.77646 14.2562 5.44048 14.3725 4.94378C14.509 4.35762 14.1513 3.77074 13.5731 3.63183H13.5716ZM6.20416 3.07695L6.37008 2.29735C7.22772 2.18317 8.76917 2.18245 9.63111 2.29735L9.79632 3.07695C9.14052 3.03186 8.50914 3.01077 7.87561 3.01368C7.86987 3.01368 7.86412 3.01368 7.85766 3.01368C7.31391 3.01659 6.76873 3.03768 6.20416 3.07695ZM7.16379 12.3238C7.16379 12.7252 6.84272 13.051 6.4455 13.051C6.04829 13.051 5.72721 12.7252 5.72721 12.3238V7.06513C5.72721 6.6637 6.04829 6.33789 6.4455 6.33789C6.84272 6.33789 7.16379 6.6637 7.16379 7.06513V12.3238ZM10.274 12.3238C10.274 12.7252 9.9529 13.051 9.55569 13.051C9.15848 13.051 8.8374 12.7252 8.8374 12.3238V7.06513C8.8374 6.6637 9.15848 6.33789 9.55569 6.33789C9.9529 6.33789 10.274 6.6637 10.274 7.06513V12.3238Z" fill="#DFDFDF"/>
</svg>
