<svg width="13" height="14" viewBox="0 0 13 14" fill="none" xmlns="http://www.w3.org/2000/svg">
<g clip-path="url(#clip0_1205_3756)">
<path d="M13 9.70833H12.4583V13.5H11.375V9.70833H10.8333V13.5H9.75V9.70833H9.20833V5.10417C9.20833 4.35613 9.81446 3.75 10.5625 3.75H11.6458C12.3939 3.75 13 4.35613 13 5.10417V9.70833ZM11.1042 3.20833C11.8522 3.20833 12.4583 2.60221 12.4583 1.85417C12.4583 1.10612 11.8522 0.5 11.1042 0.5C10.3561 0.5 9.75 1.10612 9.75 1.85417C9.75 2.60221 10.3561 3.20833 11.1042 3.20833ZM7.04167 3.75H5.95833C5.21029 3.75 4.60417 4.35613 4.60417 5.10417V9.70833H5.14583V13.5H6.22917V9.70833H6.77083V13.5H7.85417V9.70833H8.39583V5.10417C8.39583 4.35613 7.78971 3.75 7.04167 3.75ZM6.5 3.20833C7.24804 3.20833 7.85417 2.60221 7.85417 1.85417C7.85417 1.10612 7.24804 0.5 6.5 0.5C5.75196 0.5 5.14583 1.10612 5.14583 1.85417C5.14583 2.60221 5.75196 3.20833 6.5 3.20833ZM2.4375 3.75H1.35417C0.606125 3.75 0 4.35613 0 5.10417V9.70833H0.541667V13.5H1.625V9.70833H2.16667V13.5H3.25V9.70833H3.79167V5.10417C3.79167 4.35613 3.18554 3.75 2.4375 3.75ZM1.89583 3.20833C2.64388 3.20833 3.25 2.60221 3.25 1.85417C3.25 1.10612 2.64388 0.5 1.89583 0.5C1.14779 0.5 0.541667 1.10612 0.541667 1.85417C0.541667 2.60221 1.14779 3.20833 1.89583 3.20833Z" fill="#110A95"/>
</g>
<defs>
<clipPath id="clip0_1205_3756">
<rect width="13" height="13" fill="white" transform="translate(0 0.5)"/>
</clipPath>
</defs>
</svg>
