<svg width="18" height="18" viewBox="0 0 18 18" fill="none" xmlns="http://www.w3.org/2000/svg">
<path d="M18 8.99999C18 4.02943 13.9706 0 8.99999 0C4.02943 0 0 4.02943 0 8.99999C0 13.4921 3.29115 17.2155 7.59374 17.8907V11.6016H5.30859V8.99999H7.59374V7.01718C7.59374 4.76156 8.93742 3.51562 10.9932 3.51562C11.9779 3.51562 13.0078 3.6914 13.0078 3.6914V5.90625H11.873C10.755 5.90625 10.4062 6.60005 10.4062 7.31179V8.99999H12.9023L12.5033 11.6016H10.4062V17.8907C14.7088 17.2155 18 13.4923 18 8.99999Z" fill="#A3A3A3"/>
<path d="M12.5033 11.6016L12.9023 9H10.4062V7.31179C10.4062 6.60006 10.755 5.90625 11.873 5.90625H13.0078V3.69141C13.0078 3.69141 11.9779 3.51562 10.9932 3.51562C8.93742 3.51562 7.59375 4.76156 7.59375 7.01719V9H5.30859V11.6016H7.59375V17.8907C8.05201 17.9625 8.52152 18 9 18C9.47847 18 9.94799 17.9625 10.4062 17.8907V11.6016H12.5033Z" fill="#282828"/>
</svg>
