<svg width="27" height="28" viewBox="0 0 27 28" fill="none" xmlns="http://www.w3.org/2000/svg">
<g clip-path="url(#clip0_1205_269)">
<path d="M13.7166 27.1979L12.9329 26.5261C11.8524 25.6214 2.41797 17.4735 2.41797 11.5135C2.41797 5.27343 7.47656 0.214844 13.7166 0.214844C19.9567 0.214844 25.0153 5.27343 25.0153 11.5135C25.0153 17.4735 15.5809 25.6214 14.5049 26.5306L13.7166 27.1979ZM13.7166 2.65794C8.82816 2.66348 4.86665 6.62498 4.86112 11.5134C4.86112 15.2576 10.6655 21.2389 13.7166 23.9765C16.7678 21.2378 22.5721 15.2531 22.5721 11.5134C22.5666 6.62498 18.6051 2.66353 13.7166 2.65794Z" fill="white"/>
<path d="M13.717 15.9925C11.2435 15.9925 9.23828 13.9874 9.23828 11.5138C9.23828 9.04034 11.2435 7.03516 13.717 7.03516C16.1905 7.03516 18.1957 9.04034 18.1957 11.5138C18.1957 13.9874 16.1905 15.9925 13.717 15.9925ZM13.717 9.27445C12.4802 9.27445 11.4776 10.277 11.4776 11.5138C11.4776 12.7505 12.4802 13.7531 13.717 13.7531C14.9537 13.7531 15.9563 12.7505 15.9563 11.5138C15.9563 10.277 14.9538 9.27445 13.717 9.27445Z" fill="white"/>
</g>
<defs>
<clipPath id="clip0_1205_269">
<rect width="27" height="27" fill="white" transform="translate(0 0.214844)"/>
</clipPath>
</defs>
</svg>
