<svg width="16" height="17" viewBox="0 0 16 17" fill="none" xmlns="http://www.w3.org/2000/svg">
<mask id="mask0_1055_1585" style="mask-type:luminance" maskUnits="userSpaceOnUse" x="0" y="0" width="16" height="17">
<path d="M8 16.5C12.4183 16.5 16 12.9183 16 8.5C16 4.08172 12.4183 0.5 8 0.5C3.58172 0.5 0 4.08172 0 8.5C0 12.9183 3.58172 16.5 8 16.5Z" fill="white"/>
</mask>
<g mask="url(#mask0_1055_1585)">
<path d="M19.8582 0.5H5.44727V16.5H19.8582V0.5Z" fill="#FF0000"/>
<path d="M5.44847 0.5H-4.14062V16.5H5.44847V0.5Z" fill="#006600"/>
<path d="M3.11972 8.77849C2.9579 8.76213 2.2379 8.63122 1.90336 8.51486C1.56881 8.39849 1.467 8.32031 1.467 8.32031L1.44336 8.42395C1.44336 8.42395 2.11427 8.76395 3.0979 8.87122L3.11972 8.77668V8.77849Z" fill="#FFFF00"/>
<path d="M3.09791 8.88705C2.12337 8.77977 1.447 8.44159 1.43973 8.43795C1.43428 8.43614 1.43246 8.43068 1.43428 8.42523L1.45791 8.32159C1.45791 8.32159 1.46155 8.31432 1.46518 8.3125C1.46882 8.3125 1.47246 8.3125 1.47609 8.3125C1.47609 8.3125 1.58155 8.39068 1.90882 8.50523C2.24337 8.62159 2.95973 8.7525 3.12155 8.76886C3.12518 8.76886 3.12882 8.77068 3.13064 8.77432C3.13246 8.77795 3.13246 8.77977 3.13246 8.78341L3.11064 8.87795C3.11064 8.87795 3.10519 8.88705 3.09973 8.88705H3.09791ZM1.45791 8.42159C1.53791 8.45977 2.18337 8.76159 3.08882 8.86341L3.10518 8.7925C2.91973 8.77068 2.227 8.64341 1.89973 8.52886C1.63246 8.43614 1.51428 8.36886 1.47609 8.34341L1.45791 8.42159Z" fill="black"/>
<path d="M3.11972 9.11706C2.90336 9.10251 2.2379 8.96433 1.90336 8.84797C1.56881 8.7316 1.467 8.66797 1.467 8.66797L1.44336 8.77161C1.44336 8.77161 2.11427 9.1007 3.0979 9.20979L3.11972 9.11524V9.11706Z" fill="#FFFF00"/>
<path d="M3.0971 9.22561C2.12255 9.11834 1.44619 8.78925 1.43891 8.78561C1.43346 8.78379 1.43164 8.77652 1.43164 8.77288L1.45528 8.66925C1.45528 8.66925 1.45891 8.66197 1.46255 8.66016C1.46619 8.66016 1.46982 8.66016 1.47346 8.66016C1.47346 8.66016 1.57891 8.72379 1.908 8.83834C2.25164 8.95834 2.91528 9.09288 3.12073 9.10743C3.12437 9.10743 3.128 9.10925 3.12982 9.11288C3.13164 9.11652 3.13346 9.12016 3.13164 9.12197L3.10982 9.21652C3.10982 9.21652 3.10437 9.22561 3.09891 9.22561H3.0971ZM1.4571 8.76743C1.53891 8.80561 2.18255 9.09834 3.088 9.20016L3.10437 9.12925C2.88255 9.11107 2.2371 8.97834 1.89891 8.86016C1.63164 8.76743 1.51346 8.70925 1.47528 8.68743L1.4571 8.76561V8.76743Z" fill="black"/>
<path d="M3.10384 8.873L3.1202 9.12572C3.1202 9.12572 2.53656 9.05118 2.20384 8.95118C1.87111 8.85118 1.47656 8.70936 1.47656 8.70936L1.6402 8.50391C2.12747 8.74209 3.10384 8.873 3.10384 8.873Z" fill="#FFFF00"/>
<path d="M3.11757 9.13619C3.11212 9.13619 2.52848 9.05983 2.19939 8.96165C1.8703 8.86347 1.47575 8.71983 1.47212 8.71983C1.46848 8.71983 1.46484 8.71619 1.46484 8.71256C1.46484 8.70892 1.46484 8.70529 1.46666 8.70165L1.6303 8.49619C1.6303 8.49619 1.63939 8.49074 1.64484 8.49256C2.12484 8.7271 3.09575 8.85801 3.10484 8.85983C3.1103 8.85983 3.11575 8.86529 3.11575 8.87074L3.13212 9.12347C3.13212 9.12347 3.13212 9.13074 3.12848 9.13256C3.12666 9.13438 3.12303 9.13619 3.12121 9.13619H3.11757ZM1.49393 8.70165C1.5703 8.72892 1.91393 8.85074 2.20484 8.93801C2.50303 9.0271 3.01212 9.09801 3.10484 9.10892L3.0903 8.87983C2.98666 8.86529 2.10121 8.73619 1.64121 8.51619L1.49393 8.70165Z" fill="black"/>
<path d="M2.73014 7.86905C2.39741 7.64541 1.77741 7.1745 1.75195 6.92541C1.75195 6.92541 1.94286 6.7836 2.01014 6.64541C2.07741 6.50723 2.02468 6.38723 2.0465 6.3545C2.06832 6.32178 2.08832 6.17632 2.63195 6.34723C3.17559 6.51814 3.16104 6.54541 3.16104 6.54541V7.89632L2.73195 7.86723L2.73014 7.86905Z" fill="#FFFF00"/>
<path d="M3.15842 7.90667L2.72933 7.87758C2.72933 7.87758 2.72569 7.87758 2.72387 7.87576C2.37114 7.6394 1.76569 7.17212 1.74023 6.92485C1.74023 6.92122 1.74023 6.91576 1.74569 6.91394C1.74751 6.91394 1.93478 6.77212 2.00023 6.63758C2.04205 6.55212 2.03478 6.47031 2.03114 6.41758C2.02751 6.38485 2.02569 6.36122 2.0366 6.34485C2.0366 6.34303 2.04023 6.3394 2.04205 6.33576C2.06751 6.28667 2.12751 6.17212 2.6366 6.33212C2.87296 6.40667 3.15842 6.50122 3.17296 6.53576C3.17296 6.53576 3.17296 6.5394 3.17296 6.54122V7.89212C3.17296 7.89212 3.17296 7.8994 3.16933 7.90121C3.16751 7.90303 3.16387 7.90485 3.16205 7.90485L3.15842 7.90667ZM2.73296 7.85394L3.14569 7.88121V6.54667C3.13478 6.53758 3.06569 6.49394 2.62569 6.35576C2.1366 6.20303 2.08023 6.30849 2.06023 6.34667C2.05842 6.35031 2.0566 6.35394 2.05478 6.35758C2.04933 6.36485 2.05114 6.38849 2.05478 6.41394C2.06023 6.47031 2.06569 6.55394 2.02205 6.64667C1.96023 6.77394 1.79842 6.90121 1.76569 6.92667C1.80023 7.16667 2.38751 7.6194 2.73478 7.85212L2.73296 7.85394Z" fill="black"/>
<path d="M2.11914 7.27734C2.21914 7.37007 3.02096 7.98825 3.14096 8.04825V7.06825L2.19005 6.77734L2.11914 7.27916V7.27734Z" fill="#FFFF00"/>
<path d="M3.14197 8.06098C3.14197 8.06098 3.13833 8.06098 3.13651 8.06098C3.01106 7.99734 2.2056 7.37552 2.11106 7.28825C2.10742 7.28461 2.10742 7.28098 2.10742 7.27734L2.17833 6.77552C2.17833 6.77552 2.18015 6.76825 2.18379 6.76643C2.18742 6.76643 2.19106 6.76461 2.19469 6.76643L3.1456 7.05734C3.1456 7.05734 3.1547 7.0628 3.1547 7.06825V8.04825C3.1547 8.04825 3.15288 8.05552 3.14924 8.05916C3.14742 8.05916 3.1456 8.05916 3.14379 8.05916L3.14197 8.06098ZM2.13288 7.27371C2.24197 7.37189 2.9656 7.93007 3.13106 8.02825V7.07734L2.20197 6.79371L2.13288 7.27552V7.27371Z" fill="black"/>
<path d="M1.93359 10.4272C2.03905 10.4835 2.11905 10.389 2.11359 10.7363C2.11359 10.7363 2.93905 11.1563 5.1445 11.2908L4.05359 10.7417C3.70814 10.749 2.57905 10.5345 2.4845 10.4817C2.40087 10.4345 2.16087 10.1363 1.93359 10.4254V10.4272Z" fill="#FFFF00"/>
<path d="M5.14578 11.3018C2.96396 11.1672 2.11851 10.7491 2.11124 10.7454C2.1076 10.7436 2.10396 10.74 2.10396 10.7345C2.1076 10.48 2.06942 10.4727 2.00578 10.46C1.98396 10.4563 1.95851 10.4509 1.93124 10.4363C1.9276 10.4363 1.92578 10.4309 1.92578 10.4272C1.92578 10.4236 1.92578 10.42 1.9276 10.4182C1.9876 10.3418 2.05487 10.2982 2.1276 10.2891C2.13669 10.2891 2.14396 10.2891 2.15305 10.2891C2.2676 10.2891 2.3676 10.3727 2.43669 10.4291C2.46033 10.4472 2.47851 10.4636 2.49305 10.4727C2.58215 10.5236 3.66578 10.7309 4.03669 10.7309C4.04396 10.7309 4.04942 10.7309 4.05669 10.7309C4.06033 10.7309 4.06033 10.7309 4.06214 10.7309L5.15305 11.28C5.15305 11.28 5.16033 11.2891 5.15851 11.2945C5.15851 11.3 5.15305 11.3036 5.1476 11.3036L5.14578 11.3018ZM2.1276 10.7272C2.20942 10.7654 3.05669 11.1436 5.0876 11.2745L4.05124 10.7527C4.05124 10.7527 4.04033 10.7527 4.03487 10.7527C3.66215 10.7527 2.56942 10.5418 2.48033 10.4909C2.46396 10.4818 2.44578 10.4654 2.42033 10.4454C2.35487 10.3909 2.25669 10.3109 2.15124 10.3109C2.14396 10.3109 2.13669 10.3109 2.12942 10.3109C2.0676 10.3182 2.00942 10.3545 1.95487 10.4182C1.97305 10.4254 1.99124 10.4291 2.00942 10.4327C2.08942 10.4491 2.13124 10.4691 2.1276 10.7236V10.7272Z" fill="black"/>
<path d="M2.54688 10.582C2.64506 10.6238 3.13415 10.7784 4.16869 10.8602L4.67233 11.1384C4.54506 11.2293 2.97597 10.9457 2.72688 10.8457L2.54688 10.582Z" fill="#FFFF00"/>
<path d="M4.54586 11.1674C4.1295 11.1674 2.92405 10.9383 2.72223 10.8565C2.72041 10.8565 2.71859 10.8547 2.71677 10.8528L2.53677 10.5892C2.53677 10.5892 2.53314 10.5783 2.53677 10.5747C2.54041 10.571 2.54586 10.5692 2.55132 10.571C2.55495 10.571 2.99677 10.7547 4.1695 10.8492C4.1695 10.8492 4.17314 10.8492 4.17495 10.8492L4.67859 11.1274C4.67859 11.1274 4.68405 11.1328 4.68405 11.1365C4.68405 11.1401 4.68405 11.1438 4.67859 11.1474C4.66041 11.1601 4.61314 11.1674 4.54586 11.1674ZM2.73495 10.8347C2.96041 10.9238 4.15859 11.1438 4.5495 11.1438C4.59132 11.1438 4.62405 11.1419 4.64405 11.1365L4.16405 10.871C3.17495 10.791 2.70405 10.6492 2.57677 10.6056L2.73314 10.8347H2.73495Z" fill="black"/>
<path d="M5.45805 4.98351V4.55078C3.27077 4.55078 1.49805 6.32351 1.49805 8.51078C1.49805 10.6981 3.27077 12.4708 5.45805 12.4708V12.0381C3.50896 12.0381 1.93077 10.4581 1.93077 8.51078C1.93077 6.56351 3.51077 4.98351 5.45805 4.98351Z" fill="#FFFF00"/>
<path d="M5.46983 12.4806H5.4571C3.26619 12.4806 1.48438 10.6988 1.48438 8.50788C1.48438 6.31697 3.26619 4.53516 5.4571 4.53516H5.46983V4.99152H5.4571C3.51892 4.99152 1.94074 6.56788 1.94074 8.50788C1.94074 10.4479 3.5171 12.0242 5.4571 12.0242H5.46983V12.4806ZM5.44437 4.56061C3.27347 4.56788 1.50801 6.33516 1.50801 8.50788C1.50801 10.6806 3.27347 12.4497 5.44437 12.4552V12.0479C3.49892 12.0406 1.9171 10.4552 1.9171 8.50788C1.9171 6.56061 3.49892 4.97516 5.44437 4.96788V4.56061Z" fill="black"/>
<path d="M1.8357 8.50817C1.8357 10.51 3.45752 12.1318 5.45934 12.1318V12.3718C3.32479 12.3718 1.5957 10.6427 1.5957 8.50817C1.5957 6.37362 3.32479 4.64453 5.45934 4.64453V4.88453C3.45752 4.88453 1.8357 6.50635 1.8357 8.50817Z" fill="#FFFF00"/>
<path d="M5.47112 12.3855H5.4584C3.32203 12.3855 1.58203 10.6474 1.58203 8.50918C1.58203 6.37099 3.32021 4.63281 5.4584 4.63281H5.47112V4.89645H5.4584C3.46749 4.89645 1.84567 6.51645 1.84567 8.50918C1.84567 10.5019 3.46567 12.1219 5.4584 12.1219H5.47112V12.3855ZM5.44567 4.65827C3.32749 4.66554 1.60567 6.39099 1.60567 8.51099C1.60567 10.631 3.32749 12.3564 5.44567 12.3637V12.1474C3.44567 12.1401 1.82203 10.5128 1.82203 8.51099C1.82203 6.50918 3.44749 4.8819 5.44567 4.87463V4.65827Z" fill="black"/>
<path d="M2.21484 6.2542C2.36939 6.17057 2.87484 5.99784 3.17121 5.96875V6.36693C3.17121 6.36693 2.70212 6.45057 2.63121 6.50875L2.21484 6.25239V6.2542Z" fill="#FFFF00"/>
<path d="M2.6304 6.52249C2.6304 6.52249 2.62676 6.52249 2.62494 6.52249L2.20858 6.26612C2.20858 6.26612 2.20312 6.25885 2.20312 6.25521C2.20312 6.25158 2.20494 6.24794 2.20858 6.2443C2.35767 6.1643 2.86494 5.98794 3.1704 5.95703C3.17403 5.95703 3.17767 5.95703 3.17949 5.96067C3.18131 5.9643 3.18312 5.96612 3.18312 5.96976V6.36794C3.18312 6.36794 3.17949 6.37885 3.17403 6.38067C3.04494 6.4043 2.69585 6.47339 2.63949 6.52067C2.63767 6.52067 2.63403 6.5243 2.63222 6.5243L2.6304 6.52249ZM2.23767 6.25703L2.62858 6.49703C2.71403 6.44067 3.0904 6.37158 3.15767 6.35885V5.9843C2.86676 6.01703 2.40131 6.17521 2.23767 6.25703Z" fill="black"/>
<path d="M2.39258 6.26122C2.48712 6.21395 2.93258 6.08304 3.11803 6.07031V6.29577C3.11803 6.29577 2.82167 6.32486 2.69621 6.3794L2.39258 6.26122Z" fill="#FFFF00"/>
<path d="M2.6954 6.3895H2.69177L2.38813 6.27132C2.38813 6.27132 2.38086 6.26587 2.38086 6.26041C2.38086 6.25496 2.38268 6.25132 2.38813 6.2495C2.4845 6.20223 2.93177 6.0695 3.11722 6.05859C3.12086 6.05859 3.12268 6.05859 3.12631 6.06223C3.12813 6.06405 3.12995 6.06768 3.12995 6.07132V6.29678C3.12995 6.29678 3.1245 6.30768 3.11904 6.3095C3.1154 6.3095 2.82268 6.34041 2.70086 6.39132C2.70086 6.39132 2.69722 6.39132 2.6954 6.39132V6.3895ZM2.42268 6.25859L2.6954 6.36587C2.80995 6.31859 3.05177 6.29132 3.10631 6.28405V6.08223C2.92995 6.09678 2.55177 6.20587 2.4245 6.25859H2.42268Z" fill="black"/>
<path d="M2.14698 6.26605C2.11062 6.32241 1.85607 6.8115 1.83789 6.85514C1.83789 6.85514 2.33425 6.84423 3.11425 7.28423V6.53878C3.11425 6.53878 2.42698 6.16968 2.14516 6.26605H2.14698Z" fill="#FFFF00"/>
<path d="M3.11494 7.29486C3.11494 7.29486 3.11131 7.29486 3.10949 7.29486C2.3404 6.86213 1.84403 6.86758 1.83858 6.86758C1.83858 6.86758 1.83131 6.86577 1.82949 6.86213C1.82767 6.85849 1.82767 6.85486 1.82949 6.85122C1.84585 6.81122 2.10222 6.32031 2.13858 6.26031C2.13858 6.25849 2.14222 6.25668 2.14403 6.25486C2.42585 6.15849 3.09313 6.51304 3.12222 6.5294C3.12585 6.53122 3.12767 6.53486 3.12767 6.54031V7.28577C3.12767 7.28577 3.12585 7.29304 3.12222 7.29668C3.1204 7.29668 3.11858 7.29668 3.11676 7.29668L3.11494 7.29486ZM1.85676 6.84213C1.95494 6.84577 2.42222 6.88213 3.10222 7.26213V6.54577C3.03313 6.5094 2.41494 6.19304 2.15313 6.27486C2.11313 6.34213 1.9004 6.7494 1.85494 6.84213H1.85676Z" fill="black"/>
<path d="M3.11778 6.48601C2.98324 6.40055 2.24869 6.14965 2.11415 6.23692C2.11415 6.23692 2.05415 6.33328 2.04688 6.35328C2.13597 6.27146 2.40142 6.24965 3.10688 6.57692L3.11778 6.48419V6.48601Z" fill="#FFFF00"/>
<path d="M3.10661 6.5908C3.10661 6.5908 3.10298 6.5908 3.10116 6.5908C2.35207 6.24535 2.12298 6.30171 2.05388 6.36535C2.05025 6.36898 2.04479 6.36898 2.03934 6.36535C2.03389 6.36171 2.03207 6.35626 2.03388 6.3508C2.04116 6.32898 2.0957 6.24171 2.10298 6.2308C2.10298 6.2308 2.10479 6.22898 2.10661 6.22717C2.24479 6.13444 2.98479 6.38717 3.12298 6.47444C3.12661 6.47626 3.12843 6.48171 3.12843 6.48535L3.11752 6.57807C3.11752 6.57807 3.1157 6.58535 3.11207 6.58717C3.11207 6.58717 3.10843 6.58717 3.10661 6.58717V6.5908ZM2.22661 6.2908C2.38661 6.2908 2.65389 6.35626 3.09752 6.55989L3.10479 6.4908C2.94661 6.39626 2.25207 6.16717 2.12298 6.24535C2.11025 6.26717 2.09207 6.29444 2.07934 6.31807C2.11388 6.30171 2.16116 6.2908 2.22661 6.2908Z" fill="black"/>
<path d="M3.15559 7.25349C3.02104 7.16803 2.01377 6.7044 1.81195 6.8244C1.81195 6.8244 1.75923 6.90258 1.75195 6.9244C1.9865 6.8244 2.44286 7.02076 3.15013 7.34622L3.15741 7.25349H3.15559Z" fill="#FFFF00"/>
<path d="M3.14613 7.35634C3.14613 7.35634 3.1425 7.35634 3.14068 7.35634C2.45159 7.03816 1.98431 6.83634 1.75341 6.93452C1.74977 6.93452 1.74431 6.93452 1.74068 6.9327C1.73704 6.92906 1.73522 6.92361 1.73704 6.91997C1.74431 6.89816 1.79341 6.82543 1.79886 6.81816C1.79886 6.81816 1.80068 6.81634 1.8025 6.81452C2.01341 6.68725 3.02795 7.16179 3.15886 7.24361C3.1625 7.24543 3.16431 7.25088 3.16431 7.25452L3.15704 7.34725C3.15704 7.34725 3.15522 7.35452 3.15159 7.35634C3.14977 7.35634 3.14795 7.35634 3.14613 7.35634ZM1.89704 6.88361C2.15522 6.88361 2.55886 7.05997 3.13704 7.32543L3.1425 7.25816C2.96977 7.15452 2.01159 6.72543 1.81886 6.83088C1.80431 6.85088 1.78795 6.87816 1.77522 6.89997C1.81159 6.88906 1.85159 6.88361 1.89704 6.88361Z" fill="black"/>
<path d="M1.50772 8.30408C1.47317 8.35317 1.48226 8.57499 1.48772 8.65499C1.48772 8.65499 2.2259 8.16226 3.12772 8.12408V7.76953C3.12772 7.76953 1.74226 7.96953 1.50772 8.30408Z" fill="#FFFF00"/>
<path d="M1.48614 8.6669C1.48614 8.6669 1.48251 8.6669 1.48069 8.6669C1.47705 8.66509 1.47341 8.66145 1.47341 8.65599C1.4716 8.62509 1.45523 8.35599 1.49705 8.29781C1.7316 7.96327 3.06796 7.7669 3.12432 7.75781C3.12796 7.75781 3.1316 7.75781 3.13341 7.76145C3.13523 7.76327 3.13705 7.7669 3.13705 7.77054V8.12509C3.13705 8.12509 3.1316 8.13599 3.12614 8.13781C2.23887 8.17418 1.49887 8.66145 1.4916 8.66509C1.48978 8.66509 1.48796 8.6669 1.48432 8.6669H1.48614ZM1.51705 8.31054C1.4916 8.3469 1.4916 8.51599 1.49705 8.63236C1.61342 8.55963 2.30069 8.14872 3.11523 8.11236V7.78327C2.96978 7.80509 1.73342 8.00145 1.51705 8.31054Z" fill="black"/>
<path d="M1.44417 8.4271C1.44417 8.4271 1.44235 8.33983 1.44417 8.30528C1.59326 8.09983 2.33144 7.8671 3.10053 7.73438V7.83074C3.10053 7.83074 1.68962 8.0271 1.44417 8.4271Z" fill="#FFFF00"/>
<path d="M1.44518 8.43902C1.44518 8.43902 1.44336 8.43902 1.44154 8.43902C1.43609 8.43902 1.43245 8.43356 1.43245 8.42811C1.43245 8.42447 1.43063 8.33902 1.43245 8.30447C1.43245 8.30266 1.43245 8.30084 1.43427 8.29902C1.5979 8.07357 2.41245 7.84266 3.0979 7.72266C3.10154 7.72266 3.10518 7.72266 3.10699 7.72447C3.10881 7.72629 3.11063 7.72993 3.11063 7.73356V7.82993C3.11063 7.82993 3.10699 7.84084 3.10154 7.84266C3.08699 7.84447 1.69245 8.04266 1.45245 8.43357C1.45063 8.4372 1.44699 8.43902 1.44154 8.43902H1.44518ZM1.4579 8.30993C1.4579 8.32993 1.4579 8.36447 1.4579 8.38993C1.74154 8.02447 2.95608 7.84084 3.09245 7.82084V7.74811C2.26881 7.89175 1.59972 8.12084 1.45972 8.30811L1.4579 8.30993Z" fill="black"/>
<path d="M1.44417 8.77476C1.44417 8.77476 1.44235 8.68749 1.44417 8.65294C1.59326 8.44749 2.33144 8.21476 3.10053 8.08203V8.17839C3.10053 8.17839 1.68962 8.37476 1.44417 8.77476Z" fill="#FFFF00"/>
<path d="M1.44518 8.78876C1.44518 8.78876 1.44336 8.78876 1.44154 8.78876C1.43609 8.78876 1.43245 8.78331 1.43245 8.77785C1.43245 8.77422 1.43063 8.68876 1.43245 8.65422C1.43245 8.6524 1.43245 8.65058 1.43427 8.64876C1.5979 8.42331 2.41245 8.1924 3.0979 8.07422C3.10154 8.07422 3.10518 8.07422 3.10699 8.07604C3.10881 8.07785 3.11063 8.08149 3.11063 8.08513V8.18149C3.11063 8.18149 3.10699 8.1924 3.10154 8.19422C3.08699 8.19604 1.69245 8.39422 1.45245 8.78513C1.45063 8.78876 1.44699 8.79058 1.44154 8.79058L1.44518 8.78876ZM1.4579 8.65785C1.4579 8.67785 1.4579 8.7124 1.4579 8.73785C1.74154 8.3724 2.95608 8.18876 3.09245 8.16876V8.09604C2.26881 8.23967 1.59972 8.46876 1.45972 8.65604L1.4579 8.65785Z" fill="black"/>
<path d="M1.94389 10.3652C1.95298 10.4234 2.07661 10.5961 2.09661 10.6197C2.09661 10.6197 2.87843 10.187 3.43843 10.1561C3.43843 10.1561 3.45116 9.84702 3.27298 9.83611C3.09661 9.82702 1.9148 10.1743 1.94389 10.3634V10.3652Z" fill="#FFFF00"/>
<path d="M2.09597 10.6294C2.09597 10.6294 2.08869 10.6294 2.08687 10.6239C2.07233 10.6076 1.94142 10.4276 1.93233 10.3621C1.92869 10.3403 1.9396 10.3149 1.96142 10.2894C2.14506 10.0876 3.08869 9.82031 3.26506 9.82031C3.26869 9.82031 3.27051 9.82031 3.27233 9.82031C3.4596 9.83122 3.44869 10.1385 3.44869 10.1512C3.44869 10.1567 3.44324 10.1621 3.43778 10.1621C2.88687 10.193 2.10869 10.6203 2.10142 10.6239C2.10142 10.6239 2.09778 10.6239 2.09597 10.6239V10.6294ZM1.95415 10.3603C1.96142 10.4112 2.06688 10.5603 2.09778 10.6021C2.18688 10.5549 2.90142 10.1767 3.42324 10.1421C3.42324 10.0894 3.41415 9.85486 3.27051 9.84577C3.26869 9.84577 3.26506 9.84577 3.26324 9.84577C3.09415 9.84577 2.15233 10.1149 1.97778 10.3076C1.9596 10.3276 1.95233 10.3458 1.95415 10.3603Z" fill="black"/>
<path d="M3.29427 9.80078C2.91427 9.86078 1.887 10.1462 1.89063 10.3499L1.93791 10.4262C1.96154 10.2899 2.58518 10.0099 3.31063 9.89169L3.29427 9.80078Z" fill="#FFFF00"/>
<path d="M1.93514 10.4402C1.93514 10.4402 1.92787 10.4384 1.92424 10.4348L1.87696 10.3584C1.87696 10.3584 1.87696 10.3548 1.87696 10.353C1.87333 10.1348 2.93696 9.84751 3.29151 9.79297C3.29878 9.79297 3.30424 9.7966 3.30605 9.80206L3.32242 9.89297C3.32242 9.89297 3.32242 9.90024 3.3206 9.90206C3.31878 9.90388 3.31514 9.9057 3.31333 9.90751C2.56605 10.0293 1.97151 10.3093 1.94969 10.433C1.94969 10.4384 1.94424 10.4421 1.9406 10.4421C1.9406 10.4421 1.9406 10.4421 1.93878 10.4421L1.93514 10.4402ZM1.9006 10.3475L1.93333 10.4002C2.01878 10.2493 2.62424 9.99297 3.29514 9.88206L3.28242 9.81479C2.8606 9.88388 1.90787 10.1639 1.9006 10.3457V10.3475Z" fill="black"/>
<path d="M3.45005 10.1133C3.03732 10.1715 2.06459 10.4533 2.06641 10.6587L2.11368 10.7351C2.13732 10.5933 2.6355 10.3369 3.47368 10.2078L3.45005 10.1133Z" fill="#FFFF00"/>
<path d="M2.11483 10.7509C2.11483 10.7509 2.10756 10.7491 2.10392 10.7455L2.05665 10.6691C2.05665 10.6691 2.05665 10.6655 2.05665 10.6637C2.05301 10.4473 3.04574 10.1637 3.44938 10.1055C3.45665 10.1055 3.46211 10.1091 3.46211 10.1146L3.48574 10.2091C3.48574 10.2091 3.48574 10.2164 3.48574 10.2182C3.48392 10.2218 3.48029 10.2237 3.47847 10.2237C2.6312 10.3546 2.1512 10.6091 2.12938 10.7418C2.12938 10.7473 2.12574 10.7509 2.12029 10.7509C2.12029 10.7509 2.12029 10.7509 2.11847 10.7509H2.11483ZM2.07847 10.6582L2.1112 10.7109C2.18574 10.5509 2.69665 10.3218 3.45847 10.2018L3.44029 10.1309C2.98574 10.1982 2.08574 10.4782 2.07847 10.66V10.6582Z" fill="black"/>
<path d="M7.16602 10.5078C7.33329 10.5987 8.43329 11.126 8.60056 11.0041L8.64602 10.5314C8.64602 10.5314 8.94602 10.5132 8.96783 10.4823C8.99147 10.4514 9.14965 10.3405 8.60783 10.0878C8.06602 9.83504 7.50965 9.69141 7.50965 9.69141L7.16602 10.5078Z" fill="#FFFF00"/>
<path d="M8.52225 11.0327C8.20043 11.0327 7.27134 10.5781 7.16043 10.5181C7.15498 10.5145 7.15316 10.509 7.15498 10.5036L7.49861 9.6872C7.49861 9.6872 7.50771 9.67811 7.51316 9.67993C7.51861 9.67993 8.0768 9.8272 8.61498 10.0781C8.86589 10.1945 9.00043 10.2981 9.01861 10.3854C9.02952 10.4345 9.00043 10.4672 8.98589 10.4836C8.98407 10.4872 8.98225 10.489 8.98043 10.4908C8.9568 10.5217 8.74043 10.5381 8.66043 10.5436L8.61498 11.0072C8.61498 11.0072 8.61316 11.0145 8.60952 11.0163C8.59134 11.0308 8.56225 11.0363 8.52407 11.0363L8.52225 11.0327ZM7.18225 10.5017C7.44225 10.6417 8.42771 11.0927 8.59134 10.9963L8.6368 10.529C8.6368 10.529 8.64225 10.5181 8.64771 10.5181C8.78771 10.509 8.94589 10.4908 8.96043 10.4745C8.96043 10.4727 8.96407 10.469 8.96771 10.4654C8.98225 10.449 9.00407 10.4254 8.99498 10.389C8.98407 10.3345 8.90771 10.2399 8.60407 10.0999C8.10952 9.86902 7.59498 9.7272 7.5168 9.70538L7.18225 10.5017Z" fill="black"/>
<path d="M7.2207 10.432C7.41161 10.5465 7.73161 10.6684 7.79343 10.6993C7.85525 10.7302 8.41161 10.7447 8.41161 10.7447L8.64797 10.2411C8.64797 10.2411 7.60252 9.48472 7.59525 9.50836C7.58798 9.53199 7.2207 10.432 7.2207 10.432Z" fill="#FFFF00"/>
<path d="M8.41135 10.7561C8.35499 10.7561 7.84953 10.7397 7.78771 10.7088C7.77135 10.6997 7.73499 10.6852 7.68771 10.6652C7.56226 10.6125 7.35317 10.5252 7.21317 10.4415C7.20771 10.4379 7.20589 10.4325 7.20771 10.427C7.33499 10.1161 7.57499 9.52155 7.58226 9.50337C7.58226 9.49973 7.58589 9.49609 7.58953 9.49609C7.62044 9.49609 7.9768 9.74337 8.65135 10.2306C8.6568 10.2343 8.6568 10.2397 8.65499 10.2452L8.41862 10.7488C8.41862 10.7488 8.41317 10.7561 8.40771 10.7561H8.41135ZM7.23499 10.4252C7.37317 10.507 7.57499 10.5906 7.6968 10.6434C7.7459 10.6634 7.78044 10.6779 7.79862 10.687C7.84589 10.7106 8.24408 10.727 8.40408 10.7306L8.63317 10.2434C8.25135 9.967 7.68408 9.56337 7.60226 9.52155C7.56408 9.61973 7.27499 10.3288 7.2368 10.4252H7.23499Z" fill="black"/>
<path d="M8.27472 10.9172C7.78562 11.0881 7.00563 11.2136 5.76562 11.2899L6.83108 10.759C7.17653 10.7663 8.33108 10.5336 8.42563 10.4808C8.50926 10.4336 8.63108 10.7917 8.27653 10.9172H8.27472Z" fill="#FFFF00"/>
<path d="M5.76677 11.3034C5.76677 11.3034 5.75586 11.2998 5.75586 11.2943C5.75586 11.2888 5.75586 11.2834 5.76131 11.2798L6.82677 10.7488H6.83222C6.83768 10.7488 6.84313 10.7488 6.84859 10.7488C7.21222 10.7488 8.33222 10.5198 8.4195 10.4707C8.43586 10.4616 8.45222 10.4634 8.46859 10.4743C8.50495 10.4979 8.53586 10.5725 8.52495 10.6616C8.51586 10.7325 8.47222 10.8616 8.2795 10.927C7.76677 11.1052 6.94495 11.2288 5.76677 11.2998V11.3034ZM6.83404 10.7743L5.82495 11.2761C6.96859 11.2034 7.7704 11.0834 8.27222 10.907C8.45222 10.8434 8.49404 10.7252 8.50131 10.6598C8.5104 10.5834 8.48495 10.5143 8.45586 10.4943C8.44677 10.4888 8.4395 10.487 8.4304 10.4925C8.33404 10.547 7.21768 10.7725 6.84859 10.7725C6.84313 10.7725 6.8395 10.7725 6.83404 10.7725V10.7743Z" fill="black"/>
<path d="M8.3545 10.6055C8.25631 10.6473 6.8454 10.8982 6.71268 10.8746L6.13086 11.18C6.40904 11.2 7.86359 10.9837 8.19631 10.8491L8.3545 10.6055Z" fill="#FFFF00"/>
<path d="M6.17369 11.1908C6.15732 11.1908 6.14278 11.1908 6.13005 11.1908C6.1246 11.1908 6.12096 11.1872 6.11914 11.1817C6.11914 11.1763 6.11914 11.1708 6.1246 11.169L6.70641 10.8636C6.70641 10.8636 6.71187 10.8636 6.71369 10.8636C6.71914 10.8636 6.72823 10.8636 6.73914 10.8636C6.9646 10.8636 8.24641 10.6381 8.35005 10.5945C8.3555 10.5926 8.36096 10.5945 8.3646 10.5981C8.36823 10.6017 8.36823 10.6072 8.3646 10.6126L8.20641 10.8563C8.20641 10.8563 8.20278 10.8599 8.20096 10.8617C7.8846 10.9872 6.54096 11.1945 6.17369 11.1945V11.1908ZM6.71369 10.8836L6.1755 11.1654C6.54278 11.1654 7.86823 10.9617 8.18823 10.8363L8.32641 10.6236C8.09914 10.6854 6.94823 10.8836 6.7355 10.8836C6.72641 10.8836 6.72096 10.8836 6.7155 10.8836H6.71369Z" fill="black"/>
<path d="M7.79102 8.77849C7.95283 8.76213 8.67283 8.63122 9.00738 8.51486C9.34193 8.39849 9.44374 8.32031 9.44374 8.32031L9.46738 8.42395C9.46738 8.42395 8.79647 8.76395 7.81283 8.87122L7.79102 8.77668V8.77849Z" fill="#FFFF00"/>
<path d="M7.81202 8.88524C7.81202 8.88524 7.80112 8.8816 7.80112 8.87615L7.7793 8.7816C7.7793 8.7816 7.7793 8.77433 7.78112 8.77251C7.78293 8.76888 7.78657 8.76706 7.79021 8.76706C7.95202 8.75069 8.66839 8.61978 9.00293 8.50342C9.33021 8.38888 9.43384 8.31251 9.43566 8.31069C9.4393 8.30888 9.44293 8.30706 9.44657 8.31069C9.45021 8.31069 9.45384 8.31615 9.45384 8.31978L9.47748 8.42342C9.47748 8.42342 9.47748 8.43433 9.47202 8.43615C9.46475 8.43978 8.78839 8.77797 7.81384 8.88524H7.81202ZM7.80475 8.79069L7.82112 8.8616C8.72657 8.75978 9.37202 8.45978 9.45202 8.41978L9.43384 8.3416C9.39566 8.36706 9.27566 8.43433 9.01021 8.52706C8.68293 8.6416 7.99021 8.76706 7.80475 8.79069Z" fill="black"/>
<path d="M7.79102 9.11706C8.00738 9.10251 8.67283 8.96433 9.00738 8.84797C9.34193 8.7316 9.44374 8.66797 9.44374 8.66797L9.46738 8.77161C9.46738 8.77161 8.79647 9.1007 7.81283 9.20979L7.79102 9.11524V9.11706Z" fill="#FFFF00"/>
<path d="M7.81202 9.22697C7.81202 9.22697 7.80112 9.22334 7.80112 9.21788L7.7793 9.12334C7.7793 9.12334 7.7793 9.11606 7.78112 9.11425C7.78293 9.11061 7.78657 9.10879 7.79021 9.10879C7.99566 9.09425 8.66112 8.9597 9.00293 8.8397C9.33202 8.72516 9.43566 8.66152 9.43566 8.66152C9.4393 8.6597 9.44293 8.6597 9.44657 8.66152C9.45021 8.66152 9.45202 8.66697 9.45384 8.67061L9.47748 8.77425C9.47748 8.77425 9.47748 8.78516 9.47021 8.78697C9.46293 8.79061 8.78657 9.11788 7.81202 9.22697ZM7.80475 9.13061L7.82112 9.20152C8.72657 9.0997 9.37202 8.80697 9.45202 8.76879L9.43384 8.69061C9.39566 8.71061 9.27748 8.76879 9.01021 8.86334C8.67384 8.9797 8.02657 9.11243 7.80475 9.13243V9.13061Z" fill="black"/>
<path d="M7.80738 8.873L7.79102 9.12572C7.79102 9.12572 8.37465 9.05118 8.70738 8.95118C9.04011 8.85118 9.43465 8.70936 9.43465 8.70936L9.27102 8.50391C8.78374 8.74209 7.80738 8.873 7.80738 8.873Z" fill="#FFFF00"/>
<path d="M7.79007 9.13654C7.79007 9.13654 7.78462 9.13654 7.78098 9.1329C7.77916 9.13108 7.77734 9.12745 7.77734 9.12381L7.79371 8.87108C7.79371 8.87108 7.79916 8.86017 7.80462 8.86017C7.81371 8.86017 8.78462 8.72563 9.26462 8.4929C9.27007 8.49108 9.27553 8.4929 9.27916 8.49654L9.4428 8.70199C9.4428 8.70199 9.44644 8.70926 9.44462 8.7129C9.44462 8.71654 9.44098 8.72017 9.43734 8.72017C9.43371 8.72017 9.03734 8.86381 8.71007 8.96199C8.38098 9.06017 7.79734 9.13472 7.79189 9.13654H7.79007ZM7.81734 8.88199L7.8028 9.11108C7.89553 9.09835 8.40462 9.02926 8.7028 8.94017C8.99371 8.8529 9.33734 8.73108 9.41371 8.70381L9.26644 8.51836C8.80644 8.73836 7.92098 8.86745 7.81734 8.88199Z" fill="black"/>
<path d="M7.7927 7.1241C7.92906 7.11501 8.62179 6.96228 9.07452 6.77137L8.97997 6.6641C8.97997 6.6641 8.8127 6.50228 8.8727 6.4841C8.93452 6.46592 8.90906 6.4041 8.72724 6.36592C8.54543 6.32773 8.64543 6.46592 8.41088 6.54228C8.17633 6.61864 7.90906 6.67864 7.78906 6.69137L7.7927 7.1241Z" fill="#FFFF00"/>
<path d="M7.79189 7.13595C7.79189 7.13595 7.78643 7.13595 7.78462 7.13231C7.7828 7.13049 7.78098 7.12686 7.78098 7.12322L7.77734 6.69049C7.77734 6.69049 7.7828 6.67959 7.78825 6.67777C7.9028 6.66686 8.16643 6.60686 8.40643 6.52868C8.51553 6.49231 8.54825 6.44504 8.57553 6.40504C8.60462 6.36322 8.62825 6.32868 8.73007 6.35049C8.84644 6.37595 8.91371 6.41231 8.91553 6.45231C8.91553 6.4614 8.91189 6.48322 8.87734 6.49231C8.87371 6.49231 8.87371 6.49413 8.87371 6.49595C8.86825 6.51777 8.93007 6.59413 8.99007 6.65231L9.08462 6.75959C9.08462 6.75959 9.08825 6.76686 9.08825 6.7705C9.08825 6.77413 9.08462 6.77777 9.08098 6.77959C8.6228 6.97413 7.93189 7.12504 7.79371 7.13413L7.79189 7.13595ZM7.80098 6.70322L7.80462 7.11231C7.96462 7.09595 8.61189 6.95231 9.05553 6.76686L8.97189 6.67231C8.95007 6.65049 8.83916 6.5414 8.85007 6.49413C8.85189 6.48322 8.85916 6.47595 8.87189 6.47231C8.88462 6.46868 8.89371 6.4614 8.89371 6.45595C8.89371 6.4414 8.85734 6.40504 8.72643 6.37777C8.64098 6.35959 8.62462 6.3814 8.59734 6.4214C8.57007 6.4614 8.53371 6.51595 8.41553 6.55413C8.18098 6.63049 7.9228 6.68868 7.8028 6.70322H7.80098Z" fill="black"/>
<path d="M7.82408 7.03045C7.89681 7.03045 8.48772 6.90318 8.61863 6.84682L8.49681 6.625C8.4259 6.65227 7.96408 6.77955 7.8259 6.77955L7.82227 7.02864L7.82408 7.03045Z" fill="#FFFF00"/>
<path d="M7.82327 7.04305C7.82327 7.04305 7.81782 7.04305 7.81418 7.03942C7.81237 7.0376 7.81055 7.03396 7.81055 7.03033L7.81418 6.78124C7.81418 6.78124 7.81964 6.76851 7.82691 6.76851C7.96146 6.76851 8.42327 6.64124 8.49237 6.61396C8.49782 6.61214 8.50509 6.61396 8.50691 6.61942L8.62873 6.84124C8.62873 6.84124 8.63055 6.84851 8.62873 6.85033C8.62873 6.85396 8.62509 6.85578 8.62146 6.8576C8.48873 6.91396 7.89237 7.04124 7.82146 7.04124L7.82327 7.04305ZM7.83782 6.79396L7.83418 7.01942C7.93964 7.01033 8.45418 6.8976 8.59964 6.84305L8.48873 6.64124C8.39418 6.67396 7.98327 6.78669 7.836 6.79396H7.83782Z" fill="black"/>
<path d="M5.45312 4.98351V4.55078C7.6404 4.55078 9.41313 6.32351 9.41313 8.51078C9.41313 10.6981 7.6404 12.4708 5.45312 12.4708V12.0381C7.40222 12.0381 8.9804 10.4581 8.9804 8.51078C8.9804 6.56351 7.4004 4.98351 5.45312 4.98351Z" fill="#FFFF00"/>
<path d="M5.45413 12.4806H5.44141V12.0242H5.45413C7.39232 12.0242 8.9705 10.4479 8.9705 8.50788C8.9705 6.56788 7.39232 4.99152 5.45413 4.99152H5.44141V4.53516H5.45413C7.64504 4.53516 9.42686 6.31697 9.42686 8.50788C9.42686 10.6988 7.64504 12.4806 5.45413 12.4806ZM5.46504 12.0479V12.4552C7.63595 12.4479 9.40141 10.6806 9.40141 8.50788C9.40141 6.33516 7.63595 4.56607 5.46504 4.56061V4.96788C7.41232 4.97516 8.99232 6.56061 8.99232 8.50788C8.99232 10.4552 7.4105 12.0406 5.46504 12.0479Z" fill="black"/>
<path d="M9.07676 8.50817C9.07676 10.51 7.45494 12.1318 5.45312 12.1318V12.3718C7.58767 12.3718 9.31676 10.6427 9.31676 8.50817C9.31676 6.37362 7.58767 4.64453 5.45312 4.64453V4.88453C7.45494 4.88453 9.07676 6.50635 9.07676 8.50817Z" fill="#FFFF00"/>
<path d="M5.45413 12.3855H5.44141V12.1219H5.45413C7.44504 12.1219 9.06686 10.5019 9.06686 8.50918C9.06686 6.51645 7.44686 4.89645 5.45413 4.89645H5.44141V4.63281H5.45413C7.5905 4.63281 9.3305 6.37099 9.3305 8.50918C9.3305 10.6474 7.59232 12.3855 5.45413 12.3855ZM5.46504 12.1455V12.3619C7.58322 12.3546 9.30504 10.6292 9.30504 8.50918C9.30504 6.38918 7.58322 4.66372 5.46504 4.65645V4.87281C7.46504 4.88009 9.08868 6.50736 9.08868 8.50918C9.08868 10.511 7.46322 12.1383 5.46504 12.1455Z" fill="black"/>
<path d="M9.40516 8.30408C9.4397 8.35317 9.43061 8.57499 9.42516 8.65499C9.42516 8.65499 8.68697 8.16226 7.78516 8.12408V7.76953C7.78516 7.76953 9.17061 7.96953 9.40516 8.30408Z" fill="#FFFF00"/>
<path d="M9.42421 8.6669C9.42421 8.6669 9.41876 8.6669 9.41694 8.66509C9.40967 8.65963 8.66967 8.17418 7.78239 8.13781C7.77512 8.13781 7.77148 8.13236 7.77148 8.12509V7.77054C7.77148 7.77054 7.77149 7.76327 7.77512 7.76145C7.77694 7.75963 7.78058 7.75781 7.78421 7.75781C7.84058 7.76509 9.17694 7.96145 9.41149 8.29781C9.4533 8.35781 9.43694 8.62509 9.43512 8.65599C9.43512 8.65963 9.43148 8.66327 9.42785 8.6669C9.42785 8.6669 9.42421 8.6669 9.42239 8.6669H9.42421ZM7.79694 8.11236C8.61149 8.15054 9.29694 8.55963 9.41512 8.63236C9.42239 8.51599 9.42058 8.3469 9.39512 8.31054C9.17876 8.00145 7.94239 7.80509 7.79694 7.78327V8.11236Z" fill="black"/>
<path d="M9.46691 8.4271C9.46691 8.4271 9.46873 8.33983 9.46691 8.30528C9.31782 8.09983 8.57964 7.8671 7.81055 7.73438V7.83074C7.81055 7.83074 9.22146 8.0271 9.46691 8.4271Z" fill="#FFFF00"/>
<path d="M9.46778 8.43977C9.46778 8.43977 9.46051 8.43795 9.45687 8.43432C9.21687 8.04341 7.82233 7.84523 7.80778 7.84341C7.80233 7.84341 7.79688 7.83795 7.79688 7.83068V7.73432C7.79688 7.73432 7.79869 7.72705 7.80233 7.72523C7.80597 7.72341 7.80778 7.72159 7.81142 7.72341C8.49869 7.84159 9.31142 8.0725 9.47506 8.29977C9.47506 8.29977 9.47687 8.30341 9.47687 8.30523C9.47869 8.33977 9.47687 8.42523 9.47687 8.42886C9.47687 8.43432 9.47324 8.43795 9.46778 8.43977C9.46778 8.43977 9.46597 8.43977 9.46415 8.43977H9.46778ZM7.82233 7.82159C7.95869 7.84159 9.17142 8.02523 9.45687 8.39068C9.45687 8.36341 9.45687 8.33068 9.45687 8.31068C9.31687 8.12341 8.64778 7.89432 7.82415 7.75068V7.82341L7.82233 7.82159Z" fill="black"/>
<path d="M9.46691 8.77476C9.46691 8.77476 9.46873 8.68749 9.46691 8.65294C9.31782 8.44749 8.57964 8.21476 7.81055 8.08203V8.17839C7.81055 8.17839 9.22146 8.37476 9.46691 8.77476Z" fill="#FFFF00"/>
<path d="M9.46778 8.78743C9.46778 8.78743 9.46051 8.78561 9.45687 8.78197C9.21687 8.39107 7.82233 8.19288 7.80778 8.19107C7.80233 8.19107 7.79688 8.18561 7.79688 8.17834V8.08197C7.79688 8.08197 7.79869 8.0747 7.80233 8.07288C7.80597 8.07107 7.80778 8.06925 7.81142 8.07107C8.49869 8.18925 9.31142 8.42016 9.47506 8.64561C9.47506 8.64561 9.47687 8.64925 9.47687 8.65107C9.47869 8.68561 9.47687 8.77107 9.47687 8.7747C9.47687 8.78016 9.47324 8.78379 9.46778 8.78561C9.46778 8.78561 9.46597 8.78561 9.46415 8.78561L9.46778 8.78743ZM7.82233 8.16925C7.95869 8.18925 9.17142 8.37288 9.45687 8.73834C9.45687 8.71288 9.45687 8.67834 9.45687 8.65834C9.31687 8.47107 8.64778 8.24197 7.82415 8.09834V8.17107L7.82233 8.16925Z" fill="black"/>
<path d="M8.99732 10.355C8.99732 10.355 8.67186 10.8459 8.64459 10.8822C8.64459 10.8822 7.88277 10.0313 7.56641 9.91861L7.71913 9.16406C8.12641 9.38043 8.95004 10.1277 8.99732 10.355Z" fill="#FFFF00"/>
<path d="M8.64425 10.8942C8.64425 10.8942 8.63698 10.8942 8.63516 10.8905C8.62789 10.8814 7.87152 10.0414 7.56243 9.93053C7.55698 9.92871 7.55334 9.92325 7.55516 9.91598L7.70789 9.16143C7.70789 9.16143 7.71152 9.15416 7.71516 9.15234C7.7188 9.15234 7.72243 9.15234 7.72607 9.15234C8.12607 9.36689 8.96062 10.1196 9.00971 10.3505C9.00971 10.3542 9.00971 10.3578 9.00971 10.3596C8.99698 10.3796 8.68425 10.8505 8.65698 10.8887C8.65516 10.8923 8.6497 10.8923 8.64789 10.8942H8.64425ZM7.58061 9.91053C7.88425 10.0305 8.54971 10.7596 8.64243 10.8633C8.69698 10.7833 8.95334 10.3978 8.98425 10.3523C8.92789 10.1214 8.12789 9.40143 7.72789 9.18143L7.58061 9.91053Z" fill="black"/>
<path d="M7.56836 9.98544C7.69563 10.0727 8.732 10.8182 8.59381 11.0073C8.59381 11.0073 8.66836 10.9473 8.67563 10.9054C8.70109 10.7727 8.25199 10.3636 7.60836 9.89453L7.56836 9.98726V9.98544Z" fill="#FFFF00"/>
<path d="M8.5949 11.0171C8.5949 11.0171 8.58944 11.0171 8.58581 11.0135C8.58217 11.0098 8.58035 11.0025 8.58581 10.9971C8.5949 10.9844 8.59853 10.968 8.5949 10.9462C8.55308 10.7098 7.72399 10.1025 7.56217 9.99345C7.55671 9.98981 7.5549 9.98436 7.55853 9.97891L7.59853 9.88618C7.59853 9.88618 7.60217 9.88072 7.60581 9.87891C7.60944 9.87891 7.61308 9.87891 7.61671 9.87891C7.87853 10.0698 8.72581 10.7062 8.68762 10.9025C8.67853 10.9462 8.60944 11.0044 8.60217 11.0116C8.60035 11.0116 8.59671 11.0153 8.5949 11.0153V11.0171ZM7.58399 9.97891C7.68035 10.0462 8.57308 10.6807 8.61853 10.9425C8.61853 10.9498 8.62035 10.9589 8.62035 10.9662C8.64035 10.9462 8.66217 10.9189 8.6658 10.9007C8.68762 10.7825 8.27671 10.3935 7.6149 9.90982L7.58399 9.97891Z" fill="black"/>
<path d="M7.74414 9.24117C7.87141 9.32844 9.11687 10.2775 8.9805 10.4666C8.9805 10.4666 9.04414 10.3957 9.05141 10.3539C9.07687 10.2212 8.42778 9.61935 7.78596 9.14844L7.74596 9.24117H7.74414Z" fill="#FFFF00"/>
<path d="M8.97782 10.4806C8.97782 10.4806 8.97236 10.4806 8.97054 10.4788C8.96509 10.4752 8.96509 10.4679 8.96872 10.4624C8.976 10.4515 8.97963 10.437 8.976 10.4188C8.93236 10.1643 7.89782 9.36426 7.736 9.25335C7.73054 9.24972 7.72872 9.24426 7.73236 9.23881L7.77236 9.1479C7.77236 9.1479 7.776 9.14244 7.77963 9.14062C7.78327 9.14062 7.78691 9.14062 7.79054 9.14062C8.41418 9.59517 9.08872 10.2115 9.06145 10.357C9.05236 10.4006 8.99054 10.4715 8.98691 10.4752C8.98509 10.477 8.98145 10.4788 8.97782 10.4788V10.4806ZM7.75781 9.23881C7.896 9.33699 8.95236 10.1406 8.99963 10.4134C8.99963 10.417 8.99963 10.4188 8.99963 10.4224C9.016 10.3988 9.03418 10.3734 9.03782 10.3534C9.06145 10.2334 8.44327 9.64972 7.78872 9.16972L7.75781 9.23881Z" fill="black"/>
<path d="M7.82031 6.03125V6.3367C7.82031 6.3367 8.67668 6.4858 8.99304 6.68761C8.99304 6.68761 8.8294 6.37125 8.76759 6.33125C8.70577 6.29125 8.26213 6.05125 7.82031 6.03307V6.03125Z" fill="#FFFF00"/>
<path d="M8.99209 6.69744C8.99209 6.69744 8.98846 6.69744 8.98482 6.69563C8.67391 6.49744 7.82482 6.34835 7.81573 6.34653C7.81028 6.34653 7.80664 6.34108 7.80664 6.33381V6.02835C7.80664 6.02835 7.80664 6.02108 7.81028 6.01926C7.81209 6.01744 7.81755 6.01562 7.81937 6.01562C8.25391 6.03381 8.703 6.27017 8.77209 6.31562C8.83573 6.35562 8.99573 6.6629 9.00119 6.67744C9.003 6.6829 9.00119 6.68835 8.99937 6.69199C8.99755 6.69381 8.99391 6.69563 8.99209 6.69563V6.69744ZM7.8321 6.32472C7.92846 6.3429 8.64119 6.47381 8.963 6.65381C8.90846 6.55017 8.803 6.36653 8.76119 6.33926C8.6921 6.29381 8.25755 6.06472 7.8321 6.0429V6.32472Z" fill="black"/>
<path d="M7.79984 6.38233C7.9162 6.40051 8.66166 6.54415 9.0762 6.7696C9.0762 6.7696 9.06165 6.70233 8.99984 6.63869C8.77802 6.52233 8.15984 6.35869 7.78711 6.29688L7.79984 6.38233Z" fill="#FFFF00"/>
<path d="M9.07526 6.78543C9.07526 6.78543 9.07162 6.78543 9.0698 6.78543C8.61889 6.53997 7.80435 6.40179 7.79707 6.39997C7.79162 6.39997 7.78798 6.39452 7.78616 6.38906L7.77344 6.30361C7.77344 6.30361 7.77344 6.29634 7.77707 6.2927C7.78071 6.28906 7.78435 6.28906 7.78798 6.28906C8.15707 6.34906 8.78253 6.51634 9.00435 6.63088C9.00435 6.63088 9.00617 6.63088 9.00798 6.6327C9.0698 6.69815 9.08617 6.76724 9.08798 6.76906C9.08798 6.77452 9.08798 6.77815 9.08435 6.78179C9.08253 6.78179 9.07889 6.78361 9.07707 6.78361L9.07526 6.78543ZM7.8098 6.37634C7.89707 6.3927 8.62253 6.52361 9.05526 6.74906C9.04617 6.72543 9.02616 6.68906 8.99344 6.6527C8.77526 6.53997 8.1698 6.37815 7.80253 6.31634L7.81162 6.37634H7.8098Z" fill="black"/>
<path d="M7.79984 6.06592C7.87984 6.06956 8.56529 6.19138 8.90529 6.4532C8.90529 6.4532 8.86529 6.34047 8.81075 6.30411C8.7562 6.26774 8.20711 6.00592 7.78711 5.98047L7.79984 6.06592Z" fill="#FFFF00"/>
<path d="M8.90448 6.4672C8.90448 6.4672 8.89903 6.4672 8.89721 6.46538C8.56266 6.20902 7.88812 6.08357 7.79903 6.08175C7.79357 6.08175 7.78812 6.07629 7.78812 6.07084L7.77539 5.98538C7.77539 5.98538 7.77539 5.97811 7.77903 5.97629C7.78084 5.97447 7.78448 5.97266 7.78812 5.97266C8.21175 5.99629 8.75539 6.25629 8.81721 6.29811C8.87539 6.33629 8.91539 6.44902 8.91721 6.45266C8.91721 6.45811 8.91721 6.46357 8.91357 6.4672C8.91175 6.4672 8.90994 6.46902 8.9063 6.46902L8.90448 6.4672ZM7.80994 6.05629C7.92812 6.0672 8.54084 6.18538 8.87721 6.41993C8.86084 6.38538 8.83539 6.33629 8.80266 6.31447C8.74448 6.27629 8.20812 6.02357 7.79903 5.99447L7.80812 6.05447L7.80994 6.05629Z" fill="black"/>
<path d="M5.61923 11.1836H5.30469V12.4818H5.61923V11.1836Z" fill="#FFFF00"/>
<path d="M5.62024 12.4955H5.3057C5.3057 12.4955 5.29297 12.4901 5.29297 12.4828V11.1846C5.29297 11.1846 5.29842 11.1719 5.3057 11.1719H5.62024C5.62024 11.1719 5.63297 11.1773 5.63297 11.1846V12.4828C5.63297 12.4828 5.62751 12.4955 5.62024 12.4955ZM5.31661 12.4701H5.60751V11.1955H5.31661V12.4701Z" fill="black"/>
<path d="M5.34273 11.2305H5.25V12.5287H5.34273V11.2305Z" fill="#FFFF00"/>
<path d="M5.33983 12.5424H5.2471C5.2471 12.5424 5.23438 12.5369 5.23438 12.5297V11.2315C5.23438 11.2315 5.23983 11.2188 5.2471 11.2188H5.33983C5.33983 11.2188 5.35256 11.2242 5.35256 11.2315V12.5297C5.35256 12.5297 5.3471 12.5424 5.33983 12.5424ZM5.25983 12.5187H5.32892V11.2442H5.25983V12.5187Z" fill="black"/>
<path d="M5.67476 11.2305H5.58203V12.5287H5.67476V11.2305Z" fill="#FFFF00"/>
<path d="M5.67381 12.5424H5.58109C5.58109 12.5424 5.56836 12.5369 5.56836 12.5297V11.2315C5.56836 11.2315 5.57381 11.2188 5.58109 11.2188H5.67381C5.67381 11.2188 5.68654 11.2242 5.68654 11.2315V12.5297C5.68654 12.5297 5.68109 12.5424 5.67381 12.5424ZM5.59381 12.5187H5.6629V11.2442H5.59381V12.5187Z" fill="black"/>
<path d="M5.29678 5.82422H5.61133V4.52604H5.29678V5.82422Z" fill="#FFFF00"/>
<path d="M5.61243 5.83536H5.29788C5.29788 5.83536 5.28516 5.8299 5.28516 5.82263V4.52445C5.28516 4.52445 5.29061 4.51172 5.29788 4.51172H5.61243C5.61243 4.51172 5.62516 4.51717 5.62516 4.52445V5.82263C5.62516 5.82263 5.6197 5.83536 5.61243 5.83536ZM5.30879 5.81172H5.5997V4.53717H5.30879V5.81172Z" fill="black"/>
<path d="M5.57524 5.77734H5.66797V4.47916H5.57524V5.77734Z" fill="#FFFF00"/>
<path d="M5.66405 5.78848H5.57132C5.57132 5.78848 5.55859 5.78303 5.55859 5.77575V4.47757C5.55859 4.47757 5.56405 4.46484 5.57132 4.46484H5.66405C5.66405 4.46484 5.67678 4.4703 5.67678 4.47757V5.77575C5.67678 5.77575 5.67132 5.78848 5.66405 5.78848ZM5.58405 5.76484H5.65314V4.4903H5.58405V5.76484Z" fill="black"/>
<path d="M5.23735 5.77734H5.33008V4.47916H5.23735V5.77734Z" fill="#FFFF00"/>
<path d="M5.33202 5.78848H5.23929C5.23929 5.78848 5.22656 5.78303 5.22656 5.77575V4.47757C5.22656 4.47757 5.23202 4.46484 5.23929 4.46484H5.33202C5.33202 4.46484 5.34474 4.4703 5.34474 4.47757V5.77575C5.34474 5.77575 5.33929 5.78848 5.33202 5.78848ZM5.2502 5.76484H5.31929V4.4903H5.2502V5.76484Z" fill="black"/>
<path d="M5.46479 11.3223C4.1557 11.3223 3.0957 10.2623 3.0957 8.95317V5.78408C3.0957 5.78408 3.10298 5.76953 3.11025 5.76953H7.81752C7.81752 5.76953 7.83207 5.7768 7.83207 5.78408V8.95317C7.83207 10.2623 6.77207 11.3223 5.46298 11.3223H5.46479Z" fill="white"/>
<path d="M5.46425 11.3308C4.15335 11.3308 3.08789 10.2654 3.08789 8.95445V5.78535C3.08789 5.77263 3.0988 5.76172 3.11153 5.76172H7.8188C7.83153 5.76172 7.84244 5.77263 7.84244 5.78535V8.95445C7.84244 10.2654 6.77698 11.3308 5.46607 11.3308H5.46425ZM3.11153 5.77808C3.11153 5.77808 3.10425 5.78172 3.10425 5.78535V8.95445C3.10425 10.2563 4.16425 11.3163 5.46607 11.3163C6.76789 11.3163 7.82789 10.2563 7.82789 8.95445V5.78535C7.82789 5.78535 7.82425 5.77808 7.82062 5.77808H3.11335H3.11153Z" fill="black"/>
<path d="M5.46359 11.2147C4.20541 11.2147 3.18359 10.1947 3.18359 8.93473V5.88564C3.18359 5.88564 3.19087 5.87109 3.19814 5.87109H7.72723C7.72723 5.87109 7.74178 5.87837 7.74178 5.88564V8.93473C7.74178 10.1929 6.72178 11.2147 5.46178 11.2147H5.46359Z" fill="#FF0000"/>
<path d="M5.46305 11.2254C4.20124 11.2254 3.17578 10.1999 3.17578 8.9381V5.88901C3.17578 5.87628 3.18669 5.86719 3.1976 5.86719H7.72669C7.73942 5.86719 7.74851 5.8781 7.74851 5.88901V8.9381C7.74851 10.1999 6.72305 11.2254 5.46124 11.2254H5.46305ZM3.19942 5.88355C3.19942 5.88355 3.19214 5.88719 3.19214 5.89082V8.93991C3.19214 10.1926 4.21033 11.2108 5.46305 11.2108C6.71578 11.2108 7.73396 10.1926 7.73396 8.93991V5.89082C7.73396 5.89082 7.73033 5.88355 7.72669 5.88355H3.1976H3.19942Z" fill="black"/>
<path d="M5.46325 10.3241C4.71052 10.3241 4.09961 9.71324 4.09961 8.96051V6.79688H6.82688V8.96051C6.82688 9.71324 6.21597 10.3241 5.46325 10.3241Z" fill="white"/>
<path d="M5.46271 10.3309C4.70634 10.3309 4.0918 9.71633 4.0918 8.95997V6.78906H6.83361V8.95997C6.83361 9.71633 6.21907 10.3309 5.46271 10.3309ZM4.10816 6.80361V8.95815C4.10816 9.70543 4.71543 10.3127 5.46271 10.3127C6.20998 10.3127 6.81725 9.70543 6.81725 8.95815V6.80361H4.10634H4.10816Z" fill="black"/>
<path d="M5.4642 7.87254C5.30056 7.87254 5.16602 7.73982 5.16602 7.57436V7.12891H5.76238V7.57436C5.76238 7.738 5.62965 7.87254 5.4642 7.87254Z" fill="#003399"/>
<path d="M5.35269 7.28474C5.35269 7.31747 5.32724 7.34293 5.29451 7.34293C5.26178 7.34293 5.23633 7.31565 5.23633 7.28474C5.23633 7.25384 5.26178 7.22656 5.29451 7.22656C5.32724 7.22656 5.35269 7.25384 5.35269 7.28474Z" fill="white"/>
<path d="M5.68472 7.28474C5.68472 7.31747 5.65927 7.34293 5.62654 7.34293C5.59381 7.34293 5.56836 7.31565 5.56836 7.28474C5.56836 7.25384 5.59381 7.22656 5.62654 7.22656C5.65927 7.22656 5.68472 7.25384 5.68472 7.28474Z" fill="white"/>
<path d="M5.35269 7.61287C5.35269 7.6456 5.32724 7.67105 5.29451 7.67105C5.26178 7.67105 5.23633 7.6456 5.23633 7.61287C5.23633 7.58014 5.26178 7.55469 5.29451 7.55469C5.32724 7.55469 5.35269 7.58014 5.35269 7.61287Z" fill="white"/>
<path d="M5.68472 7.61287C5.68472 7.6456 5.65927 7.67105 5.62654 7.67105C5.59381 7.67105 5.56836 7.6456 5.56836 7.61287C5.56836 7.58014 5.59381 7.55469 5.62654 7.55469C5.65927 7.55469 5.68472 7.58014 5.68472 7.61287Z" fill="white"/>
<path d="M5.45857 7.50699C5.49071 7.50699 5.51675 7.48094 5.51675 7.44881C5.51675 7.41667 5.49071 7.39062 5.45857 7.39062C5.42644 7.39062 5.40039 7.41667 5.40039 7.44881C5.40039 7.48094 5.42644 7.50699 5.45857 7.50699Z" fill="white"/>
<path d="M5.4642 8.9077C5.30056 8.9077 5.16602 8.77497 5.16602 8.60952V8.16406H5.76238V8.60952C5.76238 8.77315 5.62965 8.9077 5.4642 8.9077Z" fill="#003399"/>
<path d="M5.35269 8.3199C5.35269 8.35263 5.32724 8.37808 5.29451 8.37808C5.26178 8.37808 5.23633 8.35081 5.23633 8.3199C5.23633 8.28899 5.26178 8.26172 5.29451 8.26172C5.32724 8.26172 5.35269 8.28717 5.35269 8.3199Z" fill="white"/>
<path d="M5.68472 8.3199C5.68472 8.35263 5.65927 8.37808 5.62654 8.37808C5.59381 8.37808 5.56836 8.35081 5.56836 8.3199C5.56836 8.28899 5.59381 8.26172 5.62654 8.26172C5.65927 8.26172 5.68472 8.28717 5.68472 8.3199Z" fill="white"/>
<path d="M5.35269 8.65193C5.35269 8.68466 5.32724 8.71011 5.29451 8.71011C5.26178 8.71011 5.23633 8.68284 5.23633 8.65193C5.23633 8.62102 5.26178 8.59375 5.29451 8.59375C5.32724 8.59375 5.35269 8.62102 5.35269 8.65193Z" fill="white"/>
<path d="M5.68472 8.65193C5.68472 8.68466 5.65927 8.71011 5.62654 8.71011C5.59381 8.71011 5.56836 8.68284 5.56836 8.65193C5.56836 8.62102 5.59381 8.59375 5.62654 8.59375C5.65927 8.59375 5.68472 8.62102 5.68472 8.65193Z" fill="white"/>
<path d="M5.45857 8.54215C5.49071 8.54215 5.51675 8.5161 5.51675 8.48396C5.51675 8.45183 5.49071 8.42578 5.45857 8.42578C5.42644 8.42578 5.40039 8.45183 5.40039 8.48396C5.40039 8.5161 5.42644 8.54215 5.45857 8.54215Z" fill="white"/>
<path d="M6.29428 8.9077C6.13064 8.9077 5.99609 8.77497 5.99609 8.60952V8.16406H6.59246V8.60952C6.59246 8.77315 6.45973 8.9077 6.29428 8.9077Z" fill="#003399"/>
<path d="M6.12654 8.37808C6.15867 8.37808 6.18472 8.35203 6.18472 8.3199C6.18472 8.28777 6.15867 8.26172 6.12654 8.26172C6.09441 8.26172 6.06836 8.28777 6.06836 8.3199C6.06836 8.35203 6.09441 8.37808 6.12654 8.37808Z" fill="white"/>
<path d="M6.45857 8.37808C6.49071 8.37808 6.51675 8.35203 6.51675 8.3199C6.51675 8.28777 6.49071 8.26172 6.45857 8.26172C6.42644 8.26172 6.40039 8.28777 6.40039 8.3199C6.40039 8.35203 6.42644 8.37808 6.45857 8.37808Z" fill="white"/>
<path d="M6.12654 8.71011C6.15867 8.71011 6.18472 8.68407 6.18472 8.65193C6.18472 8.6198 6.15867 8.59375 6.12654 8.59375C6.09441 8.59375 6.06836 8.6198 6.06836 8.65193C6.06836 8.68407 6.09441 8.71011 6.12654 8.71011Z" fill="white"/>
<path d="M6.45857 8.71011C6.49071 8.71011 6.51675 8.68407 6.51675 8.65193C6.51675 8.6198 6.49071 8.59375 6.45857 8.59375C6.42644 8.59375 6.40039 8.6198 6.40039 8.65193C6.40039 8.68407 6.42644 8.71011 6.45857 8.71011Z" fill="white"/>
<path d="M6.29256 8.54215C6.32469 8.54215 6.35074 8.5161 6.35074 8.48396C6.35074 8.45183 6.32469 8.42578 6.29256 8.42578C6.26042 8.42578 6.23438 8.45183 6.23438 8.48396C6.23438 8.5161 6.26042 8.54215 6.29256 8.54215Z" fill="white"/>
<path d="M4.63217 8.9077C4.46853 8.9077 4.33398 8.77497 4.33398 8.60952V8.16406H4.93035V8.60952C4.93035 8.77315 4.79762 8.9077 4.63217 8.9077Z" fill="#003399"/>
<path d="M4.52261 8.3199C4.52261 8.35263 4.49716 8.37808 4.46443 8.37808C4.43171 8.37808 4.40625 8.35081 4.40625 8.3199C4.40625 8.28899 4.43171 8.26172 4.46443 8.26172C4.49716 8.26172 4.52261 8.28717 4.52261 8.3199Z" fill="white"/>
<path d="M4.79646 8.37808C4.8286 8.37808 4.85464 8.35203 4.85464 8.3199C4.85464 8.28777 4.8286 8.26172 4.79646 8.26172C4.76433 8.26172 4.73828 8.28777 4.73828 8.3199C4.73828 8.35203 4.76433 8.37808 4.79646 8.37808Z" fill="white"/>
<path d="M4.52261 8.65193C4.52261 8.68466 4.49716 8.71011 4.46443 8.71011C4.43171 8.71011 4.40625 8.68284 4.40625 8.65193C4.40625 8.62102 4.43171 8.59375 4.46443 8.59375C4.49716 8.59375 4.52261 8.62102 4.52261 8.65193Z" fill="white"/>
<path d="M4.79646 8.71011C4.8286 8.71011 4.85464 8.68407 4.85464 8.65193C4.85464 8.6198 4.8286 8.59375 4.79646 8.59375C4.76433 8.59375 4.73828 8.6198 4.73828 8.65193C4.73828 8.68407 4.76433 8.71011 4.79646 8.71011Z" fill="white"/>
<path d="M4.63045 8.54215C4.66258 8.54215 4.68863 8.5161 4.68863 8.48396C4.68863 8.45183 4.66258 8.42578 4.63045 8.42578C4.59831 8.42578 4.57227 8.45183 4.57227 8.48396C4.57227 8.5161 4.59831 8.54215 4.63045 8.54215Z" fill="white"/>
<path d="M5.4642 9.94676C5.30056 9.94676 5.16602 9.81403 5.16602 9.64858V9.20312H5.76238V9.64858C5.76238 9.81222 5.62965 9.94676 5.4642 9.94676Z" fill="#003399"/>
<path d="M5.35269 9.35896C5.35269 9.39169 5.32724 9.41714 5.29451 9.41714C5.26178 9.41714 5.23633 9.38987 5.23633 9.35896C5.23633 9.32805 5.26178 9.30078 5.29451 9.30078C5.32724 9.30078 5.35269 9.32805 5.35269 9.35896Z" fill="white"/>
<path d="M5.68472 9.35896C5.68472 9.39169 5.65927 9.41714 5.62654 9.41714C5.59381 9.41714 5.56836 9.38987 5.56836 9.35896C5.56836 9.32805 5.59381 9.30078 5.62654 9.30078C5.65927 9.30078 5.68472 9.32805 5.68472 9.35896Z" fill="white"/>
<path d="M5.35269 9.69099C5.35269 9.72372 5.32724 9.74918 5.29451 9.74918C5.26178 9.74918 5.23633 9.72372 5.23633 9.69099C5.23633 9.65827 5.26178 9.63281 5.29451 9.63281C5.32724 9.63281 5.35269 9.65827 5.35269 9.69099Z" fill="white"/>
<path d="M5.68472 9.69099C5.68472 9.72372 5.65927 9.74918 5.62654 9.74918C5.59381 9.74918 5.56836 9.72372 5.56836 9.69099C5.56836 9.65827 5.59381 9.63281 5.62654 9.63281C5.65927 9.63281 5.68472 9.65827 5.68472 9.69099Z" fill="white"/>
<path d="M5.45857 9.58121C5.49071 9.58121 5.51675 9.55516 5.51675 9.52303C5.51675 9.49089 5.49071 9.46484 5.45857 9.46484C5.42644 9.46484 5.40039 9.49089 5.40039 9.52303C5.40039 9.55516 5.42644 9.58121 5.45857 9.58121Z" fill="white"/>
<path d="M5.76177 6.41406H5.1545L5.13086 6.67952H5.7854L5.76177 6.41406Z" fill="#FFFF00"/>
<path d="M5.79187 6.68807H5.11914V6.67898L5.1446 6.40625H5.76823V6.41352L5.79369 6.68807H5.79187ZM5.1355 6.6717H5.77369L5.75187 6.4208H5.15732L5.1355 6.6717Z" fill="black"/>
<path d="M5.62893 6.6647H5.28711V6.65743C5.28711 6.49743 5.39984 6.41016 5.45802 6.41016C5.5162 6.41016 5.62893 6.49743 5.62893 6.65743V6.6647ZM5.30166 6.64834H5.61256C5.60893 6.50288 5.50893 6.4247 5.45802 6.4247C5.40711 6.4247 5.30711 6.50288 5.30347 6.64834H5.30166Z" fill="black"/>
<path d="M5.56065 6.66801H5.35156V6.66074C5.35156 6.54619 5.42065 6.48438 5.45702 6.48438C5.49338 6.48438 5.56247 6.54438 5.56247 6.66074V6.66801H5.56065ZM5.36793 6.65165H5.54611C5.54247 6.55165 5.48247 6.50074 5.45702 6.50074C5.43156 6.50074 5.37156 6.55165 5.36793 6.65165Z" fill="black"/>
<path d="M5.32575 6.15234H5.16211V6.29598H5.32575V6.15234Z" fill="#FFFF00"/>
<path d="M5.3343 6.30453H5.1543V6.14453H5.3343V6.30453ZM5.17066 6.28817H5.31793V6.15908H5.17066V6.28817Z" fill="black"/>
<path d="M5.24697 6.19531C5.24697 6.19531 5.23242 6.20259 5.23242 6.20986V6.26077H5.26151V6.20986C5.26151 6.20986 5.25424 6.19531 5.24697 6.19531Z" fill="black"/>
<path d="M5.35308 6.05469V6.14378C5.35308 6.15651 5.34399 6.1656 5.33126 6.1656H5.15854C5.14581 6.1656 5.13672 6.15651 5.13672 6.14378V6.05469H5.18217V6.09651H5.22217V6.05469H5.26763V6.09651H5.30763V6.05469H5.35308Z" fill="#FFFF00"/>
<path d="M5.33268 6.17624H5.15995C5.14359 6.17624 5.13086 6.16351 5.13086 6.14714V6.05078H5.19268V6.0926H5.21631V6.05078H5.27813V6.0926H5.30177V6.05078H5.36359V6.14714C5.36359 6.16351 5.35086 6.17624 5.3345 6.17624H5.33268ZM5.1454 6.06533V6.14533C5.1454 6.14533 5.15086 6.15987 5.15995 6.15987H5.33268C5.33268 6.15987 5.34722 6.15442 5.34722 6.14533V6.06533H5.31813V6.10714H5.26177V6.06533H5.23268V6.10714H5.17631V6.06533H5.14722H5.1454Z" fill="black"/>
<path d="M5.74957 6.15234H5.58594V6.29598H5.74957V6.15234Z" fill="#FFFF00"/>
<path d="M5.75617 6.30453H5.57617V6.14453H5.75617V6.30453ZM5.59254 6.28817H5.73981V6.15908H5.59254V6.28817Z" fill="black"/>
<path d="M5.66689 6.19531C5.66689 6.19531 5.65234 6.20259 5.65234 6.20986V6.26077H5.68143V6.20986C5.68143 6.20986 5.67416 6.19531 5.66689 6.19531Z" fill="black"/>
<path d="M5.773 6.05469V6.14378C5.773 6.15651 5.76391 6.1656 5.75119 6.1656H5.57846C5.56573 6.1656 5.55664 6.15651 5.55664 6.14378V6.05469H5.6021V6.09651H5.6421V6.05469H5.68755V6.09651H5.72755V6.05469H5.773Z" fill="#FFFF00"/>
<path d="M5.7526 6.17624H5.57987C5.56351 6.17624 5.55078 6.16351 5.55078 6.14714V6.05078H5.6126V6.0926H5.63624V6.05078H5.69805V6.0926H5.72169V6.05078H5.78351V6.14714C5.78351 6.16351 5.77078 6.17624 5.75442 6.17624H5.7526ZM5.56714 6.06533V6.14533C5.56714 6.14533 5.5726 6.15987 5.58169 6.15987H5.75442C5.75442 6.15987 5.76896 6.15442 5.76896 6.14533V6.06533H5.73987V6.10714H5.68351V6.06533H5.65442V6.10714H5.59805V6.06533H5.56896H5.56714Z" fill="black"/>
<path d="M5.53318 6.02734H5.37864L5.375 6.29462H5.53864L5.53318 6.02734Z" fill="#FFFF00"/>
<path d="M5.54523 6.30526H5.36523V6.29798L5.37069 6.02344H5.53978V6.03071L5.54523 6.30526ZM5.3816 6.28889H5.52887L5.52523 6.03798H5.38705L5.38342 6.28889H5.3816Z" fill="black"/>
<path d="M5.45791 6.10547C5.45791 6.10547 5.44336 6.11274 5.44336 6.12001V6.18365H5.47245V6.12001C5.47245 6.12001 5.46518 6.10547 5.45791 6.10547Z" fill="black"/>
<path d="M5.56402 5.93359V6.02268C5.56402 6.03541 5.55493 6.0445 5.5422 6.0445H5.36947C5.35675 6.0445 5.34766 6.03541 5.34766 6.02268V5.93359H5.39311V5.97541H5.43311V5.93359H5.47857V5.97541H5.51857V5.93359H5.56402Z" fill="#FFFF00"/>
<path d="M5.54166 6.05124H5.36893C5.35257 6.05124 5.33984 6.03851 5.33984 6.02215V5.92578H5.40166V5.9676H5.4253V5.92578H5.48712V5.9676H5.51075V5.92578H5.57257V6.02215C5.57257 6.03851 5.55984 6.05124 5.54348 6.05124H5.54166ZM5.35621 5.94214V6.02215C5.35621 6.02215 5.36166 6.03669 5.37075 6.03669H5.54348C5.54348 6.03669 5.55803 6.03124 5.55803 6.02215V5.94214H5.52893V5.98396H5.47257V5.94214H5.44348V5.98396H5.38712V5.94214H5.35803H5.35621Z" fill="black"/>
<path d="M5.79335 6.72561H5.12062C5.10244 6.72561 5.08789 6.71107 5.08789 6.69288C5.08789 6.6747 5.10244 6.66016 5.12062 6.66016H5.79335C5.81153 6.66016 5.82607 6.6747 5.82607 6.69288C5.82607 6.71107 5.81153 6.72561 5.79335 6.72561Z" fill="#FFFF00"/>
<path d="M5.79281 6.73234H5.12008C5.09826 6.73234 5.08008 6.71416 5.08008 6.69234C5.08008 6.67053 5.09826 6.65234 5.12008 6.65234H5.79281C5.81462 6.65234 5.83281 6.67053 5.83281 6.69234C5.83281 6.71416 5.81462 6.73234 5.79281 6.73234ZM5.12008 6.66871C5.10735 6.66871 5.09644 6.67962 5.09644 6.69234C5.09644 6.70507 5.10735 6.71598 5.12008 6.71598H5.79281C5.80553 6.71598 5.81644 6.70507 5.81644 6.69234C5.81644 6.67962 5.80553 6.66871 5.79281 6.66871H5.12008Z" fill="black"/>
<path d="M5.75773 6.35547H5.15409C5.13802 6.35547 5.125 6.36849 5.125 6.38456V6.38638C5.125 6.40244 5.13802 6.41547 5.15409 6.41547H5.75773C5.77379 6.41547 5.78682 6.40244 5.78682 6.38638V6.38456C5.78682 6.36849 5.77379 6.35547 5.75773 6.35547Z" fill="#FFFF00"/>
<path d="M5.75914 6.4222H5.1555C5.1355 6.4222 5.11914 6.40584 5.11914 6.38584C5.11914 6.36402 5.1355 6.34766 5.1555 6.34766H5.75914C5.77914 6.34766 5.7955 6.36402 5.7955 6.38402C5.7955 6.40584 5.77914 6.4222 5.75914 6.4222ZM5.1555 6.3622C5.1446 6.3622 5.1355 6.37129 5.1355 6.38402C5.1355 6.39675 5.1446 6.40584 5.1555 6.40584H5.75914C5.77005 6.40584 5.78096 6.39675 5.78096 6.38584C5.78096 6.37311 5.77187 6.3622 5.75914 6.3622H5.1555Z" fill="black"/>
<path d="M5.77806 6.36287H5.13261C5.11624 6.36287 5.10352 6.35014 5.10352 6.33378C5.10352 6.31742 5.11624 6.30469 5.13261 6.30469H5.77806C5.79443 6.30469 5.80715 6.31742 5.80715 6.33378C5.80715 6.35014 5.79443 6.36287 5.77806 6.36287Z" fill="#FFFF00"/>
<path d="M5.77934 6.36933H5.13388C5.11388 6.36933 5.0957 6.35297 5.0957 6.33115C5.0957 6.30933 5.11207 6.29297 5.13388 6.29297H5.77934C5.79934 6.29297 5.81752 6.30933 5.81752 6.33115C5.81752 6.35297 5.80116 6.36933 5.77934 6.36933ZM5.13388 6.30933C5.12116 6.30933 5.11207 6.31842 5.11207 6.33115C5.11207 6.34388 5.12116 6.35297 5.13388 6.35297H5.77934C5.79207 6.35297 5.80116 6.34388 5.80116 6.33115C5.80116 6.31842 5.79207 6.30933 5.77934 6.30933H5.13388Z" fill="black"/>
<path d="M7.0055 10.3684L6.57459 9.9375L6.36914 10.1102L6.83278 10.5739L7.0055 10.3684Z" fill="#FFFF00"/>
<path d="M6.83574 10.584L6.35938 10.1076L6.36665 10.1021L6.57756 9.92578L6.58301 9.93124L7.01938 10.3676L7.01392 10.3731L6.83574 10.5858V10.584ZM6.38301 10.1094L6.83392 10.5603L6.99574 10.3676L6.57574 9.9476L6.38301 10.1094Z" fill="black"/>
<path d="M6.73401 10.4498L6.49219 10.208L6.49764 10.2026C6.61037 10.0898 6.75219 10.108 6.79401 10.148C6.83582 10.1898 6.85401 10.3317 6.73946 10.4444L6.73401 10.4498ZM6.51401 10.2062L6.73401 10.4262C6.83401 10.3208 6.81946 10.1953 6.7831 10.1589C6.74673 10.1226 6.61946 10.108 6.51582 10.208L6.51401 10.2062Z" fill="black"/>
<path d="M6.68425 10.4053L6.53516 10.2562L6.54061 10.2508C6.62243 10.1689 6.71334 10.1744 6.73879 10.2017C6.7497 10.2126 6.75516 10.2326 6.75516 10.2562C6.75516 10.2798 6.74788 10.3398 6.68788 10.3998L6.68243 10.4053H6.68425ZM6.55879 10.2562L6.68425 10.3817C6.73516 10.3271 6.74061 10.2744 6.74061 10.2544C6.74061 10.2362 6.73516 10.218 6.72788 10.2108C6.7097 10.1926 6.63152 10.1871 6.55697 10.2544L6.55879 10.2562Z" fill="black"/>
<path d="M6.88133 9.87743L6.76562 9.76172L6.66406 9.86329L6.77977 9.97899L6.88133 9.87743Z" fill="#FFFF00"/>
<path d="M6.77962 9.99L6.65234 9.86273L6.6578 9.85727L6.76507 9.75L6.89234 9.87727L6.88689 9.88273L6.77962 9.99ZM6.67416 9.86091L6.77962 9.96636L6.87053 9.87545L6.76507 9.77L6.67416 9.86091Z" fill="black"/>
<path d="M6.79451 9.84617C6.79451 9.84617 6.77996 9.84072 6.77269 9.84617L6.73633 9.88254L6.75815 9.90436L6.79451 9.86799C6.79451 9.86799 6.79996 9.85345 6.79451 9.84617Z" fill="black"/>
<path d="M6.96859 9.82851L6.90677 9.89033C6.90677 9.89033 6.88495 9.89942 6.87586 9.89033L6.75404 9.76851C6.75404 9.76851 6.74495 9.74669 6.75404 9.7376L6.81586 9.67578L6.84859 9.70851L6.81768 9.73942L6.84677 9.76851L6.87768 9.7376L6.9104 9.77033L6.87949 9.80124L6.90859 9.83033L6.9395 9.79942L6.97222 9.83215L6.96859 9.82851Z" fill="#FFFF00"/>
<path d="M6.89101 9.90379C6.89101 9.90379 6.87646 9.90016 6.86919 9.8947L6.74737 9.77288C6.74737 9.77288 6.73828 9.76016 6.73828 9.75107C6.73828 9.74197 6.74192 9.7347 6.74737 9.72925L6.81464 9.66016L6.85828 9.70379L6.82737 9.7347L6.84374 9.75107L6.87464 9.72016L6.91828 9.76379L6.88737 9.7947L6.90374 9.81106L6.93464 9.78016L6.97828 9.82379L6.91101 9.89288C6.91101 9.89288 6.89828 9.90197 6.88919 9.90197L6.89101 9.90379ZM6.81646 9.68561L6.7601 9.74197C6.7601 9.74197 6.75646 9.74743 6.75646 9.75107C6.75646 9.7547 6.75646 9.75834 6.7601 9.76016L6.88192 9.88197C6.88192 9.88197 6.89646 9.88743 6.90192 9.88197L6.95828 9.82561L6.93828 9.80561L6.90737 9.83652L6.86737 9.79652L6.89828 9.76561L6.87646 9.74379L6.84555 9.7747L6.80555 9.7347L6.83646 9.70379L6.81646 9.68379V9.68561Z" fill="black"/>
<path d="M7.18016 10.1743L7.06445 10.0586L6.96289 10.1602L7.07859 10.2759L7.18016 10.1743Z" fill="#FFFF00"/>
<path d="M7.07844 10.2908L6.95117 10.1635L6.95663 10.1581L7.0639 10.0508L7.19117 10.1781L7.18572 10.1835L7.07844 10.2908ZM6.97299 10.1635L7.07844 10.269L7.16935 10.1781L7.0639 10.0726L6.97299 10.1635Z" fill="black"/>
<path d="M7.09334 10.147C7.09334 10.147 7.07879 10.1415 7.07152 10.147L7.03516 10.1833L7.05697 10.2051L7.09334 10.1688C7.09334 10.1688 7.09879 10.1542 7.09334 10.147Z" fill="black"/>
<path d="M7.26741 10.1254L7.2056 10.1872C7.2056 10.1872 7.18378 10.1963 7.17469 10.1872L7.05287 10.0654C7.05287 10.0654 7.04378 10.0436 7.05287 10.0345L7.11469 9.97266L7.14741 10.0054L7.1165 10.0363L7.1456 10.0654L7.1765 10.0345L7.20923 10.0672L7.17832 10.0981L7.20741 10.1272L7.23832 10.0963L7.27105 10.129L7.26741 10.1254Z" fill="#FFFF00"/>
<path d="M7.18984 10.2007C7.18984 10.2007 7.17529 10.197 7.16802 10.1916L7.0462 10.0698C7.0462 10.0698 7.03711 10.057 7.03711 10.0479C7.03711 10.0388 7.04075 10.0334 7.0462 10.0261L7.11347 9.95703L7.15711 10.0007L7.1262 10.0316L7.14256 10.0479L7.17347 10.017L7.21711 10.0607L7.1862 10.0898L7.20256 10.1061L7.23347 10.0752L7.27711 10.1188L7.20984 10.1879C7.20984 10.1879 7.19711 10.197 7.18802 10.197L7.18984 10.2007ZM7.11529 9.98249L7.05893 10.0388C7.05893 10.0388 7.05529 10.0443 7.05529 10.0479C7.05529 10.0516 7.05529 10.0552 7.05893 10.057L7.18075 10.1788C7.18075 10.1788 7.19529 10.1843 7.20075 10.1788L7.25711 10.1225L7.23711 10.1025L7.2062 10.1334L7.1662 10.0934L7.19711 10.0643L7.17529 10.0425L7.14438 10.0734L7.10438 10.0334L7.13529 10.0025L7.11529 9.98249Z" fill="black"/>
<path d="M7.11432 9.93331L7.00523 9.82422L6.8125 10.0097L6.92886 10.126L7.11432 9.93331Z" fill="#FFFF00"/>
<path d="M6.93001 10.14L6.92455 10.1346L6.80273 10.0128L6.80819 10.0073L7.00637 9.81641L7.01183 9.82186L7.12637 9.93641L7.12092 9.94186L6.93001 10.14ZM6.82637 10.0146L6.93001 10.1182L7.10455 9.93822L7.00637 9.84004L6.82637 10.0146Z" fill="black"/>
<path d="M7.00477 9.93602C7.00477 9.93602 6.99023 9.93056 6.98295 9.93602L6.9375 9.98147L6.95932 10.0033L7.00477 9.95784C7.00477 9.95784 7.01023 9.94329 7.00477 9.93602Z" fill="black"/>
<path d="M7.20491 9.8871L7.1431 9.94892C7.1431 9.94892 7.12128 9.95801 7.11219 9.94892L6.99037 9.8271C6.99037 9.8271 6.98128 9.80528 6.99037 9.79619L7.05219 9.73438L7.08491 9.7671L7.05401 9.79801L7.0831 9.8271L7.114 9.79619L7.14673 9.82892L7.11582 9.85983L7.14491 9.88892L7.17582 9.85801L7.20855 9.89074L7.20491 9.8871Z" fill="#FFFF00"/>
<path d="M7.12643 9.96656C7.12643 9.96656 7.11188 9.96293 7.10461 9.95747L6.98279 9.83565C6.97188 9.82293 6.97188 9.80474 6.98279 9.79384L7.05006 9.72656L7.0937 9.7702L7.06279 9.80111L7.07916 9.81747L7.11006 9.78656L7.1537 9.8302L7.12279 9.86111L7.13915 9.87747L7.17006 9.84656L7.2137 9.8902L7.14461 9.95929C7.14461 9.95929 7.13188 9.96838 7.12279 9.96838L7.12643 9.96656ZM7.05006 9.74838L6.9937 9.80474C6.9937 9.80474 6.98825 9.81929 6.9937 9.82474L7.11552 9.94656C7.11552 9.94656 7.13006 9.95202 7.13552 9.94656L7.19188 9.8902L7.17188 9.8702L7.14097 9.90111L7.10097 9.86111L7.13188 9.8302L7.11006 9.80838L7.07916 9.83929L7.03916 9.79929L7.07006 9.76838L7.05006 9.74838Z" fill="black"/>
<path d="M6.80622 10.6095L6.32986 10.1331C6.31713 10.1204 6.31713 10.1004 6.32986 10.0877C6.34259 10.0749 6.36259 10.0749 6.37531 10.0877L6.85168 10.564C6.8644 10.5768 6.8644 10.5968 6.85168 10.6095C6.83895 10.6222 6.81895 10.6222 6.80622 10.6095Z" fill="#FFFF00"/>
<path d="M6.82827 10.6288C6.81736 10.6288 6.80827 10.6251 6.79918 10.6179L6.32282 10.1415C6.30646 10.1251 6.30646 10.0997 6.32282 10.0851C6.33737 10.0706 6.36464 10.0706 6.37918 10.0851L6.85555 10.5615C6.85555 10.5615 6.86646 10.5797 6.86646 10.5906C6.86646 10.6015 6.86282 10.6106 6.85373 10.6197C6.84646 10.6269 6.83555 10.6306 6.82464 10.6306L6.82827 10.6288ZM6.35191 10.0888C6.35191 10.0888 6.33918 10.0906 6.33555 10.096C6.32646 10.1051 6.32646 10.1215 6.33555 10.1306L6.81191 10.6069C6.81191 10.6069 6.83736 10.616 6.84646 10.6069C6.85191 10.6033 6.85373 10.596 6.85373 10.5906C6.85373 10.5851 6.85191 10.5779 6.84646 10.5742L6.37009 10.0979C6.37009 10.0979 6.35918 10.0906 6.35373 10.0906L6.35191 10.0888Z" fill="black"/>
<path d="M7.04506 10.3224L6.61823 9.89557C6.60687 9.88421 6.58845 9.88421 6.57709 9.89557L6.5758 9.89686C6.56444 9.90822 6.56444 9.92664 6.5758 9.938L7.00264 10.3648C7.014 10.3762 7.03242 10.3762 7.04378 10.3648L7.04506 10.3635C7.05642 10.3522 7.05642 10.3338 7.04506 10.3224Z" fill="#FFFF00"/>
<path d="M7.02028 10.3828C7.01119 10.3828 7.0021 10.3792 6.99482 10.3719L6.56755 9.94463C6.56755 9.94463 6.55664 9.92827 6.55664 9.91918C6.55664 9.91009 6.56028 9.90099 6.56755 9.89372C6.58028 9.87918 6.60573 9.87918 6.62028 9.89372L7.04755 10.321C7.0621 10.3355 7.0621 10.3592 7.04755 10.3737C7.04755 10.3737 7.03119 10.3864 7.0221 10.3864L7.02028 10.3828ZM6.59482 9.89736C6.59482 9.89736 6.58391 9.89918 6.58028 9.90281C6.58028 9.90281 6.57482 9.91372 6.57482 9.91918C6.57482 9.92463 6.57664 9.93009 6.58028 9.93372L7.00755 10.361C7.00755 10.361 7.02937 10.3683 7.03664 10.361C7.04391 10.3519 7.04391 10.3392 7.03664 10.3301L6.60937 9.90281C6.60937 9.90281 6.60028 9.89736 6.59482 9.89736Z" fill="black"/>
<path d="M7.05439 10.3423L6.59803 9.88594C6.58712 9.87503 6.58712 9.85503 6.59803 9.84412C6.60893 9.83321 6.62893 9.83321 6.63984 9.84412L7.09621 10.3005C7.10712 10.3114 7.10712 10.3314 7.09621 10.3423C7.0853 10.3532 7.0653 10.3532 7.05439 10.3423Z" fill="#FFFF00"/>
<path d="M7.07462 10.3609C7.06371 10.3609 7.05462 10.3572 7.04735 10.3499L6.59099 9.89358C6.59099 9.89358 6.58008 9.87722 6.58008 9.86631C6.58008 9.8554 6.58371 9.84631 6.59099 9.83903C6.59826 9.83176 6.60735 9.82812 6.61826 9.82812C6.62917 9.82812 6.63826 9.83176 6.64553 9.83903L7.1019 10.2954C7.1019 10.2954 7.11281 10.3118 7.11281 10.3227C7.11281 10.3336 7.10917 10.3427 7.1019 10.3499C7.09462 10.3572 7.08553 10.3609 7.07462 10.3609ZM6.61826 9.84449C6.61826 9.84449 6.60735 9.84631 6.60371 9.85176C6.60008 9.8554 6.59644 9.86085 6.59644 9.86813C6.59644 9.8754 6.59826 9.87903 6.6019 9.88267L7.05826 10.339C7.05826 10.339 7.08008 10.3481 7.08917 10.339C7.09281 10.3354 7.09644 10.3299 7.09644 10.3245C7.09644 10.319 7.09462 10.3136 7.08917 10.3099L6.6328 9.85358C6.6328 9.85358 6.62371 9.84631 6.61826 9.84631V9.84449Z" fill="black"/>
<path d="M3.90234 10.3684L4.33325 9.9375L4.53871 10.1102L4.07507 10.5739L3.90234 10.3684Z" fill="#FFFF00"/>
<path d="M4.0744 10.584L4.06894 10.5767L3.89258 10.3658L4.33258 9.92578L4.33803 9.93124L4.55076 10.1094L4.54531 10.1149L4.0744 10.584ZM3.9144 10.3676L4.07621 10.5603L4.52712 10.1094L4.3344 9.9476L3.9144 10.3676Z" fill="black"/>
<path d="M4.17615 10.4512L4.17069 10.4457C4.10706 10.3821 4.08887 10.3166 4.08524 10.273C4.07978 10.2221 4.09251 10.173 4.11615 10.1494C4.15796 10.1075 4.29978 10.0894 4.41251 10.2039L4.41797 10.2094L4.41251 10.2148L4.17615 10.4512ZM4.21796 10.133C4.17796 10.133 4.14342 10.1439 4.12887 10.1603C4.11251 10.1766 4.09796 10.2185 4.1016 10.2712C4.10524 10.3112 4.1216 10.3712 4.17615 10.4294L4.39615 10.2094C4.33615 10.153 4.27069 10.133 4.21796 10.133Z" fill="black"/>
<path d="M4.22507 10.404L4.21962 10.3985C4.15962 10.3385 4.15234 10.2785 4.15234 10.2549C4.15234 10.2313 4.1578 10.2113 4.16871 10.2004C4.19416 10.1749 4.28507 10.1695 4.36689 10.2495L4.37234 10.2549L4.36689 10.2604L4.22325 10.404H4.22507ZM4.22325 10.1985C4.20325 10.1985 4.18689 10.204 4.17962 10.2113C4.17234 10.2185 4.16689 10.2349 4.16689 10.2549C4.16689 10.2749 4.17234 10.3276 4.22325 10.3822L4.34871 10.2567C4.30325 10.2149 4.25598 10.2004 4.22143 10.2004L4.22325 10.1985Z" fill="black"/>
<path d="M4.13039 9.97899L4.24609 9.86328L4.14453 9.76171L4.02882 9.87742L4.13039 9.97899Z" fill="#FFFF00"/>
<path d="M4.12835 9.99L4.01562 9.87727L4.02108 9.87182L4.1429 9.75L4.25562 9.86273L4.25017 9.86818L4.12835 9.99ZM4.03744 9.87545L4.12835 9.96636L4.23381 9.86091L4.1429 9.77L4.03744 9.87545Z" fill="black"/>
<path d="M4.11375 9.84617C4.11375 9.84617 4.1283 9.84072 4.13557 9.84617L4.17193 9.88254L4.15012 9.90436L4.11375 9.86799C4.11375 9.86799 4.1083 9.85345 4.11375 9.84617Z" fill="black"/>
<path d="M3.93918 9.82851L4.001 9.89033C4.001 9.89033 4.02282 9.89942 4.03191 9.89033L4.15373 9.76851C4.15373 9.76851 4.16282 9.74669 4.15373 9.7376L4.09191 9.67578L4.05918 9.70851L4.09009 9.73942L4.061 9.76851L4.03009 9.7376L3.99737 9.77033L4.02827 9.80124L3.99918 9.83033L3.96827 9.79942L3.93555 9.83215L3.93918 9.82851Z" fill="#FFFF00"/>
<path d="M4.01878 9.90197C4.01878 9.90197 4.00423 9.89834 3.99696 9.89288L3.92969 9.82379L3.97332 9.78016L4.00423 9.81107L4.0206 9.7947L3.98969 9.76379L4.03332 9.72016L4.06423 9.75107L4.0806 9.7347L4.04969 9.70379L4.09332 9.66016L4.16241 9.72925C4.16241 9.72925 4.17151 9.74197 4.17151 9.75107C4.17151 9.76016 4.16787 9.76561 4.16241 9.77288L4.0406 9.8947C4.0406 9.8947 4.02787 9.90379 4.01878 9.90379V9.90197ZM3.95332 9.82561L4.00969 9.88197C4.00969 9.88197 4.02423 9.88743 4.02969 9.88197L4.15151 9.76016C4.15151 9.76016 4.15514 9.7547 4.15514 9.75107C4.15514 9.74743 4.15514 9.74379 4.15151 9.74197L4.09514 9.68561L4.07514 9.70561L4.10605 9.73652L4.06605 9.77652L4.03514 9.74561L4.01332 9.76743L4.04423 9.79834L4.00423 9.83834L3.97332 9.80743L3.95332 9.82743V9.82561Z" fill="black"/>
<path d="M3.8296 10.2759L3.94531 10.1602L3.84375 10.0586L3.72804 10.1743L3.8296 10.2759Z" fill="#FFFF00"/>
<path d="M3.83148 10.2908L3.71875 10.1781L3.7242 10.1726L3.84602 10.0508L3.95875 10.1635L3.9533 10.169L3.83148 10.2908ZM3.74057 10.1762L3.83148 10.2671L3.93693 10.1617L3.84602 10.0708L3.74057 10.1762Z" fill="black"/>
<path d="M3.81688 10.147C3.81688 10.147 3.83142 10.1415 3.8387 10.147L3.87506 10.1833L3.85324 10.2051L3.81688 10.1688C3.81688 10.1688 3.81142 10.1542 3.81688 10.147Z" fill="black"/>
<path d="M3.64231 10.1254L3.70413 10.1872C3.70413 10.1872 3.72594 10.1963 3.73504 10.1872L3.85685 10.0654C3.85685 10.0654 3.86594 10.0436 3.85685 10.0345L3.79504 9.97266L3.76231 10.0054L3.79322 10.0363L3.76413 10.0654L3.73322 10.0345L3.70049 10.0672L3.7314 10.0981L3.70231 10.1272L3.6714 10.0963L3.63867 10.129L3.64231 10.1254Z" fill="#FFFF00"/>
<path d="M3.71995 10.2009C3.71995 10.2009 3.7054 10.1973 3.69813 10.1918L3.63086 10.1228L3.6745 10.0791L3.7054 10.11L3.72177 10.0937L3.69086 10.0646L3.7345 10.0209L3.76541 10.0518L3.78177 10.0355L3.75086 10.0046L3.7945 9.96094L3.86359 10.03C3.86359 10.03 3.87268 10.0428 3.87268 10.0518C3.87268 10.0609 3.86904 10.0664 3.86359 10.0737L3.74177 10.1955C3.74177 10.1955 3.72904 10.2046 3.71995 10.2046V10.2009ZM3.65268 10.1246L3.70904 10.1809C3.70904 10.1809 3.72359 10.1864 3.72904 10.1809L3.85086 10.0591C3.85086 10.0591 3.8545 10.0537 3.8545 10.05C3.8545 10.0464 3.8545 10.0428 3.85086 10.0409L3.7945 9.98457L3.7745 10.0046L3.8054 10.0355L3.76541 10.0755L3.7345 10.0446L3.71268 10.0664L3.74359 10.0955L3.70359 10.1355L3.67268 10.1046L3.65268 10.1246Z" fill="black"/>
<path d="M3.79492 9.93331L3.90401 9.82422L4.09674 10.0097L3.98038 10.126L3.79492 9.93331Z" fill="#FFFF00"/>
<path d="M3.98152 10.14L3.78516 9.93641L3.90516 9.81641L4.10879 10.0128L4.10334 10.0182L3.98152 10.14ZM3.80697 9.93641L3.98152 10.1164L4.08516 10.0128L3.90516 9.83822L3.80697 9.93641Z" fill="black"/>
<path d="M3.90281 9.93602C3.90281 9.93602 3.91736 9.93056 3.92463 9.93602L3.97009 9.98147L3.94827 10.0033L3.90281 9.95784C3.90281 9.95784 3.89736 9.94329 3.90281 9.93602Z" fill="black"/>
<path d="M3.70481 9.8871L3.76663 9.94892C3.76663 9.94892 3.78844 9.95801 3.79754 9.94892L3.91935 9.8271C3.91935 9.8271 3.92844 9.80528 3.91935 9.79619L3.85754 9.73438L3.82481 9.7671L3.85572 9.79801L3.82663 9.8271L3.79572 9.79619L3.76299 9.82892L3.7939 9.85983L3.76481 9.88892L3.7339 9.85801L3.70117 9.89074L3.70481 9.8871Z" fill="#FFFF00"/>
<path d="M3.78245 9.96447C3.78245 9.96447 3.7679 9.96084 3.76063 9.95538L3.69336 9.88629L3.737 9.84266L3.7679 9.87357L3.78427 9.8572L3.75336 9.82629L3.797 9.78266L3.82791 9.81357L3.84427 9.7972L3.81336 9.76629L3.857 9.72266L3.92609 9.78993C3.937 9.80266 3.937 9.82084 3.92609 9.83175L3.80427 9.95357C3.80427 9.95357 3.79154 9.96266 3.78245 9.96266V9.96447ZM3.717 9.88811L3.77336 9.94447C3.77336 9.94447 3.7879 9.94993 3.79336 9.94447L3.91518 9.82266C3.91518 9.82266 3.92063 9.80811 3.91518 9.80266L3.85881 9.74629L3.83881 9.76629L3.86972 9.7972L3.82972 9.8372L3.79881 9.80629L3.777 9.82811L3.80791 9.85902L3.7679 9.89902L3.737 9.86811L3.717 9.88811Z" fill="black"/>
<path d="M4.10188 10.6095L4.57824 10.1331C4.59097 10.1204 4.59097 10.1004 4.57824 10.0877C4.56551 10.0749 4.54551 10.0749 4.53278 10.0877L4.05642 10.564C4.04369 10.5768 4.04369 10.5968 4.05642 10.6095C4.06915 10.6222 4.08915 10.6222 4.10188 10.6095Z" fill="#FFFF00"/>
<path d="M4.07906 10.6267C4.06815 10.6267 4.05906 10.623 4.04997 10.6158C4.0427 10.6085 4.03906 10.5976 4.03906 10.5867C4.03906 10.5758 4.0427 10.5649 4.04997 10.5576L4.52634 10.0812C4.54088 10.0667 4.56815 10.0667 4.5827 10.0812C4.59906 10.0976 4.59906 10.123 4.5827 10.1376L4.10634 10.6139C4.10634 10.6139 4.08815 10.6249 4.07724 10.6249L4.07906 10.6267ZM4.55543 10.0867C4.55543 10.0867 4.5427 10.0885 4.53906 10.0939L4.0627 10.5703C4.0627 10.5703 4.05543 10.5812 4.05543 10.5867C4.05543 10.5921 4.05724 10.5994 4.0627 10.603C4.07179 10.6121 4.08815 10.6121 4.09724 10.603L4.57361 10.1267C4.5827 10.1176 4.5827 10.1012 4.57361 10.0921C4.56997 10.0867 4.5627 10.0849 4.55724 10.0849L4.55543 10.0867Z" fill="black"/>
<path d="M4.3349 9.93854L3.90806 10.3654C3.89649 10.3769 3.87849 10.3769 3.86692 10.3654C3.85407 10.3525 3.85407 10.3345 3.86564 10.3229L4.29247 9.89611C4.30404 9.88454 4.32204 9.88454 4.33361 9.89611C4.34647 9.90897 4.34647 9.92697 4.3349 9.93854Z" fill="#FFFF00"/>
<path d="M3.88734 10.3807C3.87825 10.3807 3.86734 10.3771 3.86188 10.3698C3.84552 10.3535 3.84552 10.3316 3.86188 10.3171L4.28915 9.88982C4.3037 9.87527 4.32734 9.87527 4.34188 9.88982C4.35097 9.89891 4.35461 9.908 4.35461 9.91709C4.35461 9.92618 4.35097 9.93709 4.3437 9.94254L3.91643 10.3698C3.91643 10.3698 3.90006 10.3807 3.89097 10.3807H3.88734ZM4.31279 9.89527C4.31279 9.89527 4.30188 9.89709 4.29825 9.90072L3.87097 10.328C3.87097 10.328 3.86188 10.3498 3.87097 10.3571C3.88188 10.368 3.89461 10.3662 3.90188 10.3571L4.32915 9.92981C4.32915 9.92981 4.33461 9.92072 4.33461 9.91527C4.33461 9.90982 4.33279 9.90436 4.32915 9.90072C4.3237 9.89527 4.31825 9.89345 4.31279 9.89345V9.89527Z" fill="black"/>
<path d="M3.85469 10.3423L4.31105 9.88594C4.32196 9.87503 4.32196 9.85503 4.31105 9.84412C4.30014 9.83321 4.28014 9.83321 4.26923 9.84412L3.81287 10.3005C3.80196 10.3114 3.80196 10.3314 3.81287 10.3423C3.82378 10.3532 3.84378 10.3532 3.85469 10.3423Z" fill="#FFFF00"/>
<path d="M3.83506 10.3609C3.82415 10.3609 3.81506 10.3572 3.80778 10.3499C3.80051 10.3427 3.79688 10.3336 3.79688 10.3227C3.79688 10.3118 3.80051 10.3027 3.80778 10.2954L4.26415 9.83903C4.27869 9.82449 4.30415 9.82449 4.31688 9.83903C4.32415 9.84631 4.32778 9.8554 4.32778 9.86631C4.32778 9.87722 4.32415 9.88631 4.31688 9.89358L3.86051 10.3499C3.86051 10.3499 3.84415 10.3609 3.83324 10.3609H3.83506ZM4.29142 9.84449C4.29142 9.84449 4.28051 9.84631 4.27687 9.85176L3.82051 10.3081C3.82051 10.3081 3.81324 10.3172 3.81324 10.3227C3.81324 10.3281 3.81506 10.3336 3.81869 10.3372C3.82778 10.3463 3.84051 10.3463 3.8496 10.3372L4.30597 9.88085C4.30597 9.88085 4.31324 9.87176 4.31324 9.86631C4.31324 9.86085 4.31142 9.8554 4.30778 9.84994C4.30415 9.84631 4.29869 9.84267 4.29324 9.84267L4.29142 9.84449Z" fill="black"/>
<path d="M3.93156 6.41406H3.32246L3.29883 6.67952H3.95519L3.93156 6.41406Z" fill="#FFFF00"/>
<path d="M3.9657 6.68807H3.29297V6.67898L3.31842 6.40625H3.94206V6.41352L3.96751 6.68807H3.9657ZM3.30933 6.6717H3.94751L3.9257 6.4208H3.33115L3.30933 6.6717Z" fill="black"/>
<path d="M3.8008 6.6647H3.45898V6.65743C3.45898 6.49743 3.57171 6.41016 3.62989 6.41016C3.68808 6.41016 3.8008 6.49743 3.8008 6.65743V6.6647ZM3.47353 6.64834H3.78444C3.7808 6.50288 3.6808 6.4247 3.62989 6.4247C3.57898 6.4247 3.47898 6.50288 3.47535 6.64834H3.47353Z" fill="black"/>
<path d="M3.73253 6.66801H3.52344V6.66074C3.52344 6.54619 3.59253 6.48438 3.62889 6.48438C3.66526 6.48438 3.73435 6.54438 3.73435 6.66074V6.66801H3.73253ZM3.5398 6.65165H3.71798C3.71435 6.55165 3.65435 6.50074 3.62889 6.50074C3.60344 6.50074 3.54344 6.55165 3.5398 6.65165Z" fill="black"/>
<path d="M3.49762 6.15234H3.33398V6.29598H3.49762V6.15234Z" fill="#FFFF00"/>
<path d="M3.50812 6.30453H3.32812V6.14453H3.50812V6.30453ZM3.34449 6.28817H3.49176V6.15908H3.34449V6.28817Z" fill="black"/>
<path d="M3.41494 6.19531C3.41494 6.19531 3.40039 6.20259 3.40039 6.20986V6.26077H3.42948V6.20986C3.42948 6.20986 3.42221 6.19531 3.41494 6.19531Z" fill="black"/>
<path d="M3.52496 6.05469V6.14378C3.52496 6.15651 3.51587 6.1656 3.50314 6.1656H3.33041C3.31768 6.1656 3.30859 6.15651 3.30859 6.14378V6.05469H3.35405V6.09651H3.39405V6.05469H3.4395V6.09651H3.4795V6.05469H3.52496Z" fill="#FFFF00"/>
<path d="M3.50455 6.17624H3.33183C3.31546 6.17624 3.30273 6.16351 3.30273 6.14714V6.05078H3.36455V6.0926H3.38819V6.05078H3.45001V6.0926H3.47364V6.05078H3.53546V6.14714C3.53546 6.16351 3.52273 6.17624 3.50637 6.17624H3.50455ZM3.31728 6.06533V6.14533C3.31728 6.14533 3.32273 6.15987 3.33183 6.15987H3.50455C3.50455 6.15987 3.5191 6.15442 3.5191 6.14533V6.06533H3.49001V6.10714H3.43364V6.06533H3.40455V6.10714H3.34819V6.06533H3.3191H3.31728Z" fill="black"/>
<path d="M3.9195 6.15234H3.75586V6.29598H3.9195V6.15234Z" fill="#FFFF00"/>
<path d="M3.93 6.30453H3.75V6.14453H3.93V6.30453ZM3.76636 6.28817H3.91364V6.15908H3.76636V6.28817Z" fill="black"/>
<path d="M3.84072 6.19531C3.84072 6.19531 3.82617 6.20259 3.82617 6.20986V6.26077H3.85526V6.20986C3.85526 6.20986 3.84799 6.19531 3.84072 6.19531Z" fill="black"/>
<path d="M3.94879 6.05469V6.14378C3.94879 6.15651 3.93969 6.1656 3.92697 6.1656H3.75424C3.74151 6.1656 3.73242 6.15651 3.73242 6.14378V6.05469H3.77788V6.09651H3.81788V6.05469H3.86333V6.09651H3.90333V6.05469H3.94879Z" fill="#FFFF00"/>
<path d="M3.92643 6.17624H3.7537C3.73734 6.17624 3.72461 6.16351 3.72461 6.14714V6.05078H3.78643V6.0926H3.81006V6.05078H3.87188V6.0926H3.89552V6.05078H3.95734V6.14714C3.95734 6.16351 3.94461 6.17624 3.92825 6.17624H3.92643ZM3.73916 6.06533V6.14533C3.73916 6.14533 3.74461 6.15987 3.7537 6.15987H3.92643C3.92643 6.15987 3.94097 6.15442 3.94097 6.14533V6.06533H3.91188V6.10714H3.85552V6.06533H3.82643V6.10714H3.77006V6.06533H3.74097H3.73916Z" fill="black"/>
<path d="M3.70688 6.02734H3.55233L3.54688 6.29462H3.71051L3.70688 6.02734Z" fill="#FFFF00"/>
<path d="M3.71711 6.30526H3.53711V6.29798L3.54256 6.02344H3.71165V6.03071L3.71711 6.30526ZM3.55347 6.28889H3.70075L3.69711 6.03798H3.55893L3.55529 6.28889H3.55347Z" fill="black"/>
<path d="M3.62783 6.10547C3.62783 6.10547 3.61328 6.11274 3.61328 6.12001V6.18365H3.64237V6.12001C3.64237 6.12001 3.6351 6.10547 3.62783 6.10547Z" fill="black"/>
<path d="M3.7359 5.93359V6.02268C3.7359 6.03541 3.7268 6.0445 3.71408 6.0445H3.54135C3.52862 6.0445 3.51953 6.03541 3.51953 6.02268V5.93359H3.56499V5.97541H3.60499V5.93359H3.65044V5.97541H3.69044V5.93359H3.7359Z" fill="#FFFF00"/>
<path d="M3.71549 6.05124H3.54276C3.5264 6.05124 3.51367 6.03851 3.51367 6.02215V5.92578H3.57549V5.9676H3.59913V5.92578H3.66094V5.9676H3.68458V5.92578H3.7464V6.02215C3.7464 6.03851 3.73367 6.05124 3.71731 6.05124H3.71549ZM3.52822 5.94214V6.02215C3.52822 6.02215 3.53367 6.03669 3.54276 6.03669H3.71549C3.71549 6.03669 3.73004 6.03124 3.73004 6.02215V5.94214H3.70095V5.98396H3.64458V5.94214H3.61549V5.98396H3.55913V5.94214H3.53004H3.52822Z" fill="black"/>
<path d="M3.96327 6.72561H3.29054C3.27236 6.72561 3.25781 6.71107 3.25781 6.69288C3.25781 6.6747 3.27236 6.66016 3.29054 6.66016H3.96327C3.98145 6.66016 3.99599 6.6747 3.99599 6.69288C3.99599 6.71107 3.98145 6.72561 3.96327 6.72561Z" fill="#FFFF00"/>
<path d="M3.96468 6.73234H3.29195C3.27014 6.73234 3.25195 6.71416 3.25195 6.69234C3.25195 6.67053 3.27014 6.65234 3.29195 6.65234H3.96468C3.9865 6.65234 4.00468 6.67053 4.00468 6.69234C4.00468 6.71416 3.9865 6.73234 3.96468 6.73234ZM3.29195 6.66871C3.27923 6.66871 3.26832 6.67962 3.26832 6.69234C3.26832 6.70507 3.27923 6.71598 3.29195 6.71598H3.96468C3.97741 6.71598 3.98832 6.70507 3.98832 6.69234C3.98832 6.67962 3.97741 6.66871 3.96468 6.66871H3.29195Z" fill="black"/>
<path d="M3.9296 6.35547H3.32597C3.3099 6.35547 3.29688 6.36849 3.29688 6.38456V6.38638C3.29688 6.40244 3.3099 6.41547 3.32597 6.41547H3.9296C3.94567 6.41547 3.95869 6.40244 3.95869 6.38638V6.38456C3.95869 6.36849 3.94567 6.35547 3.9296 6.35547Z" fill="#FFFF00"/>
<path d="M3.92906 6.4222H3.32543C3.30543 6.4222 3.28906 6.40584 3.28906 6.38584C3.28906 6.36402 3.30543 6.34766 3.32543 6.34766H3.92906C3.94906 6.34766 3.96543 6.36402 3.96543 6.38402C3.96543 6.40584 3.94906 6.4222 3.92906 6.4222ZM3.32543 6.3622C3.31452 6.3622 3.30543 6.37129 3.30543 6.38402C3.30543 6.39675 3.31452 6.40584 3.32543 6.40584H3.92906C3.93997 6.40584 3.94906 6.39675 3.94906 6.38584C3.94906 6.37311 3.93997 6.3622 3.92906 6.3622H3.32543Z" fill="black"/>
<path d="M3.94994 6.36287H3.30448C3.28812 6.36287 3.27539 6.35014 3.27539 6.33378C3.27539 6.31742 3.28812 6.30469 3.30448 6.30469H3.94994C3.9663 6.30469 3.97903 6.31742 3.97903 6.33378C3.97903 6.35014 3.9663 6.36287 3.94994 6.36287Z" fill="#FFFF00"/>
<path d="M3.95121 6.36933H3.30576C3.28576 6.36933 3.26758 6.35297 3.26758 6.33115C3.26758 6.30933 3.28394 6.29297 3.30576 6.29297H3.95121C3.97121 6.29297 3.9894 6.30933 3.9894 6.33115C3.9894 6.35297 3.97303 6.36933 3.95121 6.36933ZM3.30576 6.30933C3.29303 6.30933 3.28394 6.31842 3.28394 6.33115C3.28394 6.34388 3.29303 6.35297 3.30576 6.35297H3.95121C3.96394 6.35297 3.97303 6.34388 3.97303 6.33115C3.97303 6.31842 3.96394 6.30933 3.95121 6.30933H3.30576Z" fill="black"/>
<path d="M7.58195 6.41406H6.97286L6.94922 6.67952H7.60558L7.58195 6.41406Z" fill="#FFFF00"/>
<path d="M7.61609 6.68807H6.94336V6.67898L6.96881 6.40625H7.59245V6.41352L7.6179 6.68807H7.61609ZM6.95972 6.6717H7.5979L7.57609 6.4208H6.98154L6.95972 6.6717Z" fill="black"/>
<path d="M7.44911 6.6647H7.10547V6.65743C7.10547 6.49743 7.2182 6.41016 7.27638 6.41016C7.33456 6.41016 7.44729 6.49743 7.44729 6.65743V6.6647H7.44911ZM7.12183 6.64834H7.43274C7.4291 6.50288 7.32911 6.4247 7.2782 6.4247C7.22729 6.4247 7.12729 6.50288 7.12365 6.64834H7.12183Z" fill="black"/>
<path d="M7.38097 6.66801H7.17188V6.66074C7.17188 6.54619 7.24097 6.48438 7.27733 6.48438C7.31369 6.48438 7.38278 6.54438 7.38278 6.66074V6.66801H7.38097ZM7.18824 6.65165H7.36642C7.36278 6.55165 7.30278 6.50074 7.27733 6.50074C7.25188 6.50074 7.19188 6.55165 7.18824 6.65165Z" fill="black"/>
<path d="M7.14801 6.15234H6.98438V6.29598H7.14801V6.15234Z" fill="#FFFF00"/>
<path d="M7.15656 6.30453H6.97656V6.14453H7.15656V6.30453ZM6.99293 6.28817H7.1402V6.15908H6.99293V6.28817Z" fill="black"/>
<path d="M7.06533 6.19531C7.06533 6.19531 7.05078 6.20259 7.05078 6.20986V6.26077H7.07987V6.20986C7.07987 6.20986 7.0726 6.19531 7.06533 6.19531Z" fill="black"/>
<path d="M7.17535 6.05469V6.14378C7.17535 6.15651 7.16626 6.1656 7.15353 6.1656H6.9808C6.96808 6.1656 6.95898 6.15651 6.95898 6.14378V6.05469H7.00444V6.09651H7.04444V6.05469H7.08989V6.09651H7.12989V6.05469H7.17535Z" fill="#FFFF00"/>
<path d="M7.15299 6.17624H6.98026C6.9639 6.17624 6.95117 6.16351 6.95117 6.14714V6.05078H7.01299V6.0926H7.03663V6.05078H7.09844V6.0926H7.12208V6.05078H7.1839V6.14714C7.1839 6.16351 7.17117 6.17624 7.15481 6.17624H7.15299ZM6.96572 6.06533V6.14533C6.96572 6.14533 6.97117 6.15987 6.98026 6.15987H7.15299C7.15299 6.15987 7.16754 6.15442 7.16754 6.14533V6.06533H7.13845V6.10714H7.08208V6.06533H7.05299V6.10714H6.99663V6.06533H6.96754H6.96572Z" fill="black"/>
<path d="M7.57184 6.15234H7.4082V6.29598H7.57184V6.15234Z" fill="#FFFF00"/>
<path d="M7.57844 6.30453H7.39844V6.14453H7.57844V6.30453ZM7.4148 6.28817H7.56207V6.15908H7.4148V6.28817Z" fill="black"/>
<path d="M7.48916 6.19531C7.48916 6.19531 7.47461 6.20259 7.47461 6.20986V6.26077H7.5037V6.20986C7.5037 6.20986 7.49643 6.19531 7.48916 6.19531Z" fill="black"/>
<path d="M7.59722 6.05469V6.14378C7.59722 6.15651 7.58813 6.1656 7.57541 6.1656H7.40268C7.38995 6.1656 7.38086 6.15651 7.38086 6.14378V6.05469H7.42631V6.09651H7.46631V6.05469H7.51177V6.09651H7.55177V6.05469H7.59722Z" fill="#FFFF00"/>
<path d="M7.57487 6.17624H7.40214C7.38577 6.17624 7.37305 6.16351 7.37305 6.14714V6.05078H7.43486V6.0926H7.4585V6.05078H7.52032V6.0926H7.54396V6.05078H7.60577V6.14714C7.60577 6.16351 7.59305 6.17624 7.57668 6.17624H7.57487ZM7.38941 6.06533V6.14533C7.38941 6.14533 7.39486 6.15987 7.40396 6.15987H7.57668C7.57668 6.15987 7.59123 6.15442 7.59123 6.14533V6.06533H7.56214V6.10714H7.50577V6.06533H7.47668V6.10714H7.42032V6.06533H7.39123H7.38941Z" fill="black"/>
<path d="M7.35349 6.02734H7.19895L7.19531 6.29462H7.35895L7.35349 6.02734Z" fill="#FFFF00"/>
<path d="M7.3675 6.30707H7.1875L7.19295 6.02344H7.36205V6.03071L7.3675 6.30526V6.30707ZM7.20386 6.29071H7.35114L7.3475 6.0398H7.20932L7.20568 6.29071H7.20386Z" fill="black"/>
<path d="M7.27822 6.10547C7.27822 6.10547 7.26367 6.11274 7.26367 6.12001V6.18365H7.29276V6.12001C7.29276 6.12001 7.28549 6.10547 7.27822 6.10547Z" fill="black"/>
<path d="M7.38629 5.93359V6.02268C7.38629 6.03541 7.37719 6.0445 7.36447 6.0445H7.19174C7.17901 6.0445 7.16992 6.03541 7.16992 6.02268V5.93359H7.21538V5.97541H7.25538V5.93359H7.30083V5.97541H7.34083V5.93359H7.38629Z" fill="#FFFF00"/>
<path d="M7.36393 6.05124H7.1912C7.17484 6.05124 7.16211 6.03851 7.16211 6.02215V5.92578H7.22393V5.9676H7.24756V5.92578H7.30938V5.9676H7.33302V5.92578H7.39484V6.02215C7.39484 6.03851 7.38211 6.05124 7.36575 6.05124H7.36393ZM7.17666 5.94214V6.02215C7.17666 6.02215 7.18211 6.03669 7.1912 6.03669H7.36393C7.36393 6.03669 7.37847 6.03124 7.37847 6.02215V5.94214H7.34938V5.98396H7.29302V5.94214H7.26393V5.98396H7.20756V5.94214H7.17847H7.17666Z" fill="black"/>
<path d="M7.61561 6.72561H6.94288C6.9247 6.72561 6.91016 6.71107 6.91016 6.69288C6.91016 6.6747 6.9247 6.66016 6.94288 6.66016H7.61561C7.63379 6.66016 7.64834 6.6747 7.64834 6.69288C7.64834 6.71107 7.63379 6.72561 7.61561 6.72561Z" fill="#FFFF00"/>
<path d="M7.61312 6.73234H6.94039C6.91857 6.73234 6.90039 6.71416 6.90039 6.69234C6.90039 6.67053 6.91857 6.65234 6.94039 6.65234H7.61312C7.63494 6.65234 7.65312 6.67053 7.65312 6.69234C7.65312 6.71416 7.63494 6.73234 7.61312 6.73234ZM6.94039 6.66871C6.92766 6.66871 6.91675 6.67962 6.91675 6.69234C6.91675 6.70507 6.92766 6.71598 6.94039 6.71598H7.61312C7.62585 6.71598 7.63675 6.70507 7.63675 6.69234C7.63675 6.67962 7.62585 6.66871 7.61312 6.66871H6.94039Z" fill="black"/>
<path d="M7.57999 6.35547H6.97636C6.96029 6.35547 6.94727 6.36849 6.94727 6.38456V6.38638C6.94727 6.40244 6.96029 6.41547 6.97636 6.41547H7.57999C7.59606 6.41547 7.60908 6.40244 7.60908 6.38638V6.38456C7.60908 6.36849 7.59606 6.35547 7.57999 6.35547Z" fill="#FFFF00"/>
<path d="M7.58141 6.4222H6.97777C6.95777 6.4222 6.94141 6.40584 6.94141 6.38584C6.94141 6.36402 6.95777 6.34766 6.97777 6.34766H7.58141C7.60141 6.34766 7.61777 6.36402 7.61777 6.38402C7.61777 6.40584 7.60141 6.4222 7.58141 6.4222ZM6.97777 6.3622C6.96686 6.3622 6.95777 6.37129 6.95777 6.38402C6.95777 6.39675 6.96686 6.40584 6.97777 6.40584H7.58141C7.59232 6.40584 7.60141 6.39675 7.60141 6.38584C7.60141 6.37311 7.59232 6.3622 7.58141 6.3622H6.97777Z" fill="black"/>
<path d="M7.60033 6.36287H6.95487C6.93851 6.36287 6.92578 6.35014 6.92578 6.33378C6.92578 6.31742 6.93851 6.30469 6.95487 6.30469H7.60033C7.61669 6.30469 7.62942 6.31742 7.62942 6.33378C7.62942 6.35014 7.61669 6.36287 7.60033 6.36287Z" fill="#FFFF00"/>
<path d="M7.59965 6.36933H6.9542C6.9342 6.36933 6.91602 6.35297 6.91602 6.33115C6.91602 6.30933 6.93238 6.29297 6.9542 6.29297H7.59965C7.61965 6.29297 7.63783 6.30933 7.63783 6.33115C7.63783 6.35297 7.62147 6.36933 7.59965 6.36933ZM6.9542 6.30933C6.94147 6.30933 6.93238 6.31842 6.93238 6.33115C6.93238 6.34388 6.94147 6.35297 6.9542 6.35297H7.59965C7.61238 6.35297 7.62147 6.34388 7.62147 6.33115C7.62147 6.31842 7.61238 6.30933 7.59965 6.30933H6.9542Z" fill="black"/>
<path d="M3.93156 8.26953H3.32246L3.29883 8.53499H3.95519L3.93156 8.26953Z" fill="#FFFF00"/>
<path d="M3.9657 8.54744H3.29297V8.53835L3.31842 8.26562H3.94206V8.2729L3.96751 8.54744H3.9657ZM3.30933 8.53108H3.94751L3.9257 8.28017H3.33115L3.30933 8.53108Z" fill="black"/>
<path d="M3.8008 8.52017H3.45898V8.5129C3.45898 8.3529 3.57171 8.26562 3.62989 8.26562C3.68808 8.26562 3.8008 8.3529 3.8008 8.5129V8.52017ZM3.47353 8.50381H3.78444C3.7808 8.35835 3.6808 8.28017 3.62989 8.28017C3.57898 8.28017 3.47898 8.35835 3.47535 8.50381H3.47353Z" fill="black"/>
<path d="M3.73253 8.52348H3.52344V8.51621C3.52344 8.40166 3.59253 8.33984 3.62889 8.33984C3.66526 8.33984 3.73435 8.39984 3.73435 8.51621V8.52348H3.73253ZM3.5398 8.50893H3.71798C3.71435 8.40893 3.65435 8.35803 3.62889 8.35803C3.60344 8.35803 3.54344 8.40893 3.5398 8.50893Z" fill="black"/>
<path d="M3.49762 8.01172H3.33398V8.15535H3.49762V8.01172Z" fill="#FFFF00"/>
<path d="M3.50812 8.16391H3.32812V8.00391H3.50812V8.16391ZM3.34449 8.14754H3.49176V8.01845H3.34449V8.14754Z" fill="black"/>
<path d="M3.41494 8.05469C3.41494 8.05469 3.40039 8.06196 3.40039 8.06923V8.12014H3.42948V8.06923C3.42948 8.06923 3.42221 8.05469 3.41494 8.05469Z" fill="black"/>
<path d="M3.52496 7.91406V8.00315C3.52496 8.01588 3.51587 8.02497 3.50314 8.02497H3.33041C3.31768 8.02497 3.30859 8.01588 3.30859 8.00315V7.91406H3.35405V7.95588H3.39405V7.91406H3.4395V7.95588H3.4795V7.91406H3.52496Z" fill="#FFFF00"/>
<path d="M3.50455 8.0317H3.33183C3.31546 8.0317 3.30273 8.01898 3.30273 8.00261V7.90625H3.36455V7.94807H3.38819V7.90625H3.45001V7.94807H3.47364V7.90625H3.53546V8.00261C3.53546 8.01898 3.52273 8.0317 3.50637 8.0317H3.50455ZM3.31728 7.9208V8.00079C3.31728 8.00079 3.32273 8.01534 3.33183 8.01534H3.50455C3.50455 8.01534 3.5191 8.00989 3.5191 8.00079V7.9208H3.49001V7.96261H3.43364V7.9208H3.40455V7.96261H3.34819V7.9208H3.3191H3.31728Z" fill="black"/>
<path d="M3.9195 8.01172H3.75586V8.15535H3.9195V8.01172Z" fill="#FFFF00"/>
<path d="M3.93 8.16391H3.75V8.00391H3.93V8.16391ZM3.76636 8.14754H3.91364V8.01845H3.76636V8.14754Z" fill="black"/>
<path d="M3.84072 8.05469C3.84072 8.05469 3.82617 8.06196 3.82617 8.06923V8.12014H3.85526V8.06923C3.85526 8.06923 3.84799 8.05469 3.84072 8.05469Z" fill="black"/>
<path d="M3.94879 7.91406V8.00315C3.94879 8.01588 3.93969 8.02497 3.92697 8.02497H3.75424C3.74151 8.02497 3.73242 8.01588 3.73242 8.00315V7.91406H3.77788V7.95588H3.81788V7.91406H3.86333V7.95588H3.90333V7.91406H3.94879Z" fill="#FFFF00"/>
<path d="M3.92643 8.0317H3.7537C3.73734 8.0317 3.72461 8.01898 3.72461 8.00261V7.90625H3.78643V7.94807H3.81006V7.90625H3.87188V7.94807H3.89552V7.90625H3.95734V8.00261C3.95734 8.01898 3.94461 8.0317 3.92825 8.0317H3.92643ZM3.73916 7.9208V8.00079C3.73916 8.00079 3.74461 8.01534 3.7537 8.01534H3.92643C3.92643 8.01534 3.94097 8.00989 3.94097 8.00079V7.9208H3.91188V7.96261H3.85552V7.9208H3.82643V7.96261H3.77006V7.9208H3.74097H3.73916Z" fill="black"/>
<path d="M3.70688 7.88672H3.55233L3.54688 8.15399H3.71051L3.70688 7.88672Z" fill="#FFFF00"/>
<path d="M3.71711 8.16463H3.53711V8.15736L3.54256 7.88281H3.71165V7.89009L3.71711 8.16463ZM3.55347 8.14827H3.70075L3.69711 7.89736H3.55893L3.55529 8.14827H3.55347Z" fill="black"/>
<path d="M3.62783 7.96484C3.62783 7.96484 3.61328 7.97212 3.61328 7.97939V8.04303H3.64237V7.97939C3.64237 7.97939 3.6351 7.96484 3.62783 7.96484Z" fill="black"/>
<path d="M3.7359 7.78906V7.87815C3.7359 7.89088 3.7268 7.89997 3.71408 7.89997H3.54135C3.52862 7.89997 3.51953 7.89088 3.51953 7.87815V7.78906H3.56499V7.83088H3.60499V7.78906H3.65044V7.83088H3.69044V7.78906H3.7359Z" fill="#FFFF00"/>
<path d="M3.71549 7.91061H3.54276C3.5264 7.91061 3.51367 7.89788 3.51367 7.88152V7.78516H3.57549V7.82697H3.59913V7.78516H3.66094V7.82697H3.68458V7.78516H3.7464V7.88152C3.7464 7.89788 3.73367 7.91061 3.71731 7.91061H3.71549ZM3.52822 7.80152V7.88152C3.52822 7.88152 3.53367 7.89606 3.54276 7.89606H3.71549C3.71549 7.89606 3.73004 7.89061 3.73004 7.88152V7.80152H3.70095V7.84334H3.64458V7.80152H3.61549V7.84334H3.55913V7.80152H3.53004H3.52822Z" fill="black"/>
<path d="M3.96327 8.58499H3.29054C3.27236 8.58499 3.25781 8.57044 3.25781 8.55226C3.25781 8.53408 3.27236 8.51953 3.29054 8.51953H3.96327C3.98145 8.51953 3.99599 8.53408 3.99599 8.55226C3.99599 8.57044 3.98145 8.58499 3.96327 8.58499Z" fill="#FFFF00"/>
<path d="M3.96468 8.59172H3.29195C3.27014 8.59172 3.25195 8.57354 3.25195 8.55172C3.25195 8.5299 3.27014 8.51172 3.29195 8.51172H3.96468C3.9865 8.51172 4.00468 8.5299 4.00468 8.55172C4.00468 8.57354 3.9865 8.59172 3.96468 8.59172ZM3.29195 8.52808C3.27923 8.52808 3.26832 8.53899 3.26832 8.55172C3.26832 8.56445 3.27923 8.57535 3.29195 8.57535H3.96468C3.97741 8.57535 3.98832 8.56445 3.98832 8.55172C3.98832 8.53899 3.97741 8.52808 3.96468 8.52808H3.29195Z" fill="black"/>
<path d="M3.9296 8.21094H3.32597C3.3099 8.21094 3.29688 8.22396 3.29688 8.24003V8.24185C3.29688 8.25791 3.3099 8.27094 3.32597 8.27094H3.9296C3.94567 8.27094 3.95869 8.25791 3.95869 8.24185V8.24003C3.95869 8.22396 3.94567 8.21094 3.9296 8.21094Z" fill="#FFFF00"/>
<path d="M3.92906 8.28158H3.32543C3.30543 8.28158 3.28906 8.26521 3.28906 8.24521C3.28906 8.22339 3.30543 8.20703 3.32543 8.20703H3.92906C3.94906 8.20703 3.96543 8.2234 3.96543 8.2434C3.96543 8.26521 3.94906 8.28158 3.92906 8.28158ZM3.32543 8.22158C3.31452 8.22158 3.30543 8.23067 3.30543 8.2434C3.30543 8.25612 3.31452 8.26521 3.32543 8.26521H3.92906C3.93997 8.26521 3.94906 8.25612 3.94906 8.24521C3.94906 8.23249 3.93997 8.22158 3.92906 8.22158H3.32543Z" fill="black"/>
<path d="M3.94994 8.21834H3.30448C3.28812 8.21834 3.27539 8.20561 3.27539 8.18925C3.27539 8.17288 3.28812 8.16016 3.30448 8.16016H3.94994C3.9663 8.16016 3.97903 8.17288 3.97903 8.18925C3.97903 8.20561 3.9663 8.21834 3.94994 8.21834Z" fill="#FFFF00"/>
<path d="M3.95121 8.22871H3.30576C3.28576 8.22871 3.26758 8.21234 3.26758 8.19053C3.26758 8.16871 3.28394 8.15234 3.30576 8.15234H3.95121C3.97121 8.15234 3.9894 8.16871 3.9894 8.19053C3.9894 8.21234 3.97303 8.22871 3.95121 8.22871ZM3.30576 8.16871C3.29303 8.16871 3.28394 8.1778 3.28394 8.19053C3.28394 8.20325 3.29303 8.21234 3.30576 8.21234H3.95121C3.96394 8.21234 3.97303 8.20325 3.97303 8.19053C3.97303 8.1778 3.96394 8.16871 3.95121 8.16871H3.30576Z" fill="black"/>
<path d="M7.58195 8.26953H6.97286L6.94922 8.53499H7.60558L7.58195 8.26953Z" fill="#FFFF00"/>
<path d="M7.61609 8.54744H6.94336V8.53835L6.96881 8.26562H7.59245V8.2729L7.6179 8.54744H7.61609ZM6.95972 8.53108H7.5979L7.57609 8.28017H6.98154L6.95972 8.53108Z" fill="black"/>
<path d="M7.44911 8.52017H7.10547V8.5129C7.10547 8.3529 7.2182 8.26562 7.27638 8.26562C7.33456 8.26562 7.44729 8.3529 7.44729 8.5129V8.52017H7.44911ZM7.12183 8.50381H7.43274C7.4291 8.35835 7.32911 8.28017 7.2782 8.28017C7.22729 8.28017 7.12729 8.35835 7.12365 8.50381H7.12183Z" fill="black"/>
<path d="M7.38097 8.52348H7.17188V8.51621C7.17188 8.40166 7.24097 8.33984 7.27733 8.33984C7.31369 8.33984 7.38278 8.39984 7.38278 8.51621V8.52348H7.38097ZM7.18824 8.50893H7.36642C7.36278 8.40893 7.30278 8.35803 7.27733 8.35803C7.25188 8.35803 7.19188 8.40893 7.18824 8.50893Z" fill="black"/>
<path d="M7.14801 8.01172H6.98438V8.15535H7.14801V8.01172Z" fill="#FFFF00"/>
<path d="M7.15656 8.16391H6.97656V8.00391H7.15656V8.16391ZM6.99293 8.14754H7.1402V8.01845H6.99293V8.14754Z" fill="black"/>
<path d="M7.06533 8.05469C7.06533 8.05469 7.05078 8.06196 7.05078 8.06923V8.12014H7.07987V8.06923C7.07987 8.06923 7.0726 8.05469 7.06533 8.05469Z" fill="black"/>
<path d="M7.17535 7.91406V8.00315C7.17535 8.01588 7.16626 8.02497 7.15353 8.02497H6.9808C6.96808 8.02497 6.95898 8.01588 6.95898 8.00315V7.91406H7.00444V7.95588H7.04444V7.91406H7.08989V7.95588H7.12989V7.91406H7.17535Z" fill="#FFFF00"/>
<path d="M7.15299 8.0317H6.98026C6.9639 8.0317 6.95117 8.01898 6.95117 8.00261V7.90625H7.01299V7.94807H7.03663V7.90625H7.09844V7.94807H7.12208V7.90625H7.1839V8.00261C7.1839 8.01898 7.17117 8.0317 7.15481 8.0317H7.15299ZM6.96572 7.9208V8.00079C6.96572 8.00079 6.97117 8.01534 6.98026 8.01534H7.15299C7.15299 8.01534 7.16754 8.00989 7.16754 8.00079V7.9208H7.13845V7.96261H7.08208V7.9208H7.05299V7.96261H6.99663V7.9208H6.96754H6.96572Z" fill="black"/>
<path d="M7.57184 8.01172H7.4082V8.15535H7.57184V8.01172Z" fill="#FFFF00"/>
<path d="M7.57844 8.16391H7.39844V8.00391H7.57844V8.16391ZM7.4148 8.14754H7.56207V8.01845H7.4148V8.14754Z" fill="black"/>
<path d="M7.48916 8.05469C7.48916 8.05469 7.47461 8.06196 7.47461 8.06923V8.12014H7.5037V8.06923C7.5037 8.06923 7.49643 8.05469 7.48916 8.05469Z" fill="black"/>
<path d="M7.59722 7.91406V8.00315C7.59722 8.01588 7.58813 8.02497 7.57541 8.02497H7.40268C7.38995 8.02497 7.38086 8.01588 7.38086 8.00315V7.91406H7.42631V7.95588H7.46631V7.91406H7.51177V7.95588H7.55177V7.91406H7.59722Z" fill="#FFFF00"/>
<path d="M7.57487 8.0317H7.40214C7.38577 8.0317 7.37305 8.01898 7.37305 8.00261V7.90625H7.43486V7.94807H7.4585V7.90625H7.52032V7.94807H7.54396V7.90625H7.60577V8.00261C7.60577 8.01898 7.59305 8.0317 7.57668 8.0317H7.57487ZM7.38941 7.9208V8.00079C7.38941 8.00079 7.39486 8.01534 7.40396 8.01534H7.57668C7.57668 8.01534 7.59123 8.00989 7.59123 8.00079V7.9208H7.56214V7.96261H7.50577V7.9208H7.47668V7.96261H7.42032V7.9208H7.39123H7.38941Z" fill="black"/>
<path d="M7.35349 7.88672H7.19895L7.19531 8.15399H7.35895L7.35349 7.88672Z" fill="#FFFF00"/>
<path d="M7.3675 8.16254H7.1875L7.19295 7.87891H7.36205V7.88618L7.3675 8.16072V8.16254ZM7.20386 8.14618H7.35114L7.3475 7.89527H7.20932L7.20568 8.14618H7.20386Z" fill="black"/>
<path d="M7.27822 7.96484C7.27822 7.96484 7.26367 7.97212 7.26367 7.97939V8.04303H7.29276V7.97939C7.29276 7.97939 7.28549 7.96484 7.27822 7.96484Z" fill="black"/>
<path d="M7.38629 7.78906V7.87815C7.38629 7.89088 7.37719 7.89997 7.36447 7.89997H7.19174C7.17901 7.89997 7.16992 7.89088 7.16992 7.87815V7.78906H7.21538V7.83088H7.25538V7.78906H7.30083V7.83088H7.34083V7.78906H7.38629Z" fill="#FFFF00"/>
<path d="M7.36393 7.91061H7.1912C7.17484 7.91061 7.16211 7.89788 7.16211 7.88152V7.78516H7.22393V7.82697H7.24756V7.78516H7.30938V7.82697H7.33302V7.78516H7.39484V7.88152C7.39484 7.89788 7.38211 7.91061 7.36575 7.91061H7.36393ZM7.17666 7.80152V7.88152C7.17666 7.88152 7.18211 7.89606 7.1912 7.89606H7.36393C7.36393 7.89606 7.37847 7.89061 7.37847 7.88152V7.80152H7.34938V7.84334H7.29302V7.80152H7.26393V7.84334H7.20756V7.80152H7.17847H7.17666Z" fill="black"/>
<path d="M7.61561 8.58499H6.94288C6.9247 8.58499 6.91016 8.57044 6.91016 8.55226C6.91016 8.53408 6.9247 8.51953 6.94288 8.51953H7.61561C7.63379 8.51953 7.64834 8.53408 7.64834 8.55226C7.64834 8.57044 7.63379 8.58499 7.61561 8.58499Z" fill="#FFFF00"/>
<path d="M7.61312 8.59172H6.94039C6.91857 8.59172 6.90039 8.57354 6.90039 8.55172C6.90039 8.5299 6.91857 8.51172 6.94039 8.51172H7.61312C7.63494 8.51172 7.65312 8.5299 7.65312 8.55172C7.65312 8.57354 7.63494 8.59172 7.61312 8.59172ZM6.94039 8.52808C6.92766 8.52808 6.91675 8.53899 6.91675 8.55172C6.91675 8.56445 6.92766 8.57535 6.94039 8.57535H7.61312C7.62585 8.57535 7.63675 8.56445 7.63675 8.55172C7.63675 8.53899 7.62585 8.52808 7.61312 8.52808H6.94039Z" fill="black"/>
<path d="M7.57999 8.21094H6.97636C6.96029 8.21094 6.94727 8.22396 6.94727 8.24003V8.24185C6.94727 8.25791 6.96029 8.27094 6.97636 8.27094H7.57999C7.59606 8.27094 7.60908 8.25791 7.60908 8.24185V8.24003C7.60908 8.22396 7.59606 8.21094 7.57999 8.21094Z" fill="#FFFF00"/>
<path d="M7.58141 8.28158H6.97777C6.95777 8.28158 6.94141 8.26521 6.94141 8.24521C6.94141 8.22339 6.95777 8.20703 6.97777 8.20703H7.58141C7.60141 8.20703 7.61777 8.2234 7.61777 8.2434C7.61777 8.26521 7.60141 8.28158 7.58141 8.28158ZM6.97777 8.22158C6.96686 8.22158 6.95777 8.23067 6.95777 8.2434C6.95777 8.25612 6.96686 8.26521 6.97777 8.26521H7.58141C7.59232 8.26521 7.60141 8.25612 7.60141 8.24521C7.60141 8.23249 7.59232 8.22158 7.58141 8.22158H6.97777Z" fill="black"/>
<path d="M7.60033 8.21834H6.95487C6.93851 8.21834 6.92578 8.20561 6.92578 8.18925C6.92578 8.17288 6.93851 8.16016 6.95487 8.16016H7.60033C7.61669 8.16016 7.62942 8.17288 7.62942 8.18925C7.62942 8.20561 7.61669 8.21834 7.60033 8.21834Z" fill="#FFFF00"/>
<path d="M7.59965 8.22871H6.9542C6.9342 8.22871 6.91602 8.21234 6.91602 8.19053C6.91602 8.16871 6.93238 8.15234 6.9542 8.15234H7.59965C7.61965 8.15234 7.63783 8.16871 7.63783 8.19053C7.63783 8.21234 7.62147 8.22871 7.59965 8.22871ZM6.9542 8.16871C6.94147 8.16871 6.93238 8.1778 6.93238 8.19053C6.93238 8.20325 6.94147 8.21234 6.9542 8.21234H7.59965C7.61238 8.21234 7.62147 8.20325 7.62147 8.19053C7.62147 8.1778 7.61238 8.16871 7.59965 8.16871H6.9542Z" fill="black"/>
</g>
</svg>
