<svg width="19" height="17" viewBox="0 0 19 17" fill="none" xmlns="http://www.w3.org/2000/svg">
<path d="M0.353516 5.33887C0.303724 4.07287 0.778428 2.83621 1.67773 1.90039C2.5755 0.966423 3.82421 0.407246 5.15332 0.349609C5.98176 0.363812 6.79107 0.587023 7.5 0.995117C8.21196 1.40496 8.79717 1.98712 9.19727 2.68066L9.5 3.20605L9.80273 2.68066C10.2028 1.98712 10.788 1.40496 11.5 0.995117C12.2086 0.587184 13.0176 0.36397 13.8457 0.349609C15.1752 0.407014 16.4243 0.966195 17.3223 1.90039C18.2216 2.83621 18.6963 4.07287 18.6465 5.33887V5.35254C18.6465 6.54389 18.1421 7.81297 17.3408 9.07031C16.542 10.3236 15.4671 11.536 14.3711 12.6055C12.1803 14.7432 9.94062 16.2772 9.76074 16.3994L9.5 16.5762L9.23926 16.3994C9.05264 16.2718 6.81643 14.7388 4.62891 12.6045C3.53293 11.5351 2.45792 10.3235 1.65918 9.07031C0.857836 7.81304 0.353516 6.54394 0.353516 5.35254H0.354492L0.353516 5.33887Z" fill="black" fill-opacity="0.4" stroke="white" stroke-width="0.7"/>
</svg>
