<svg width="29" height="30" viewBox="0 0 29 30" fill="none" xmlns="http://www.w3.org/2000/svg">
<path d="M28.9032 15.0004C28.9032 7.01903 22.433 0.548828 14.4516 0.548828C6.4702 0.548828 0 7.01903 0 15.0004C0 22.2135 5.28472 28.1923 12.1935 29.2765V19.1779H8.52419V15.0004H12.1935V11.8166C12.1935 8.19463 14.3511 6.19399 17.6521 6.19399C19.2333 6.19399 20.8871 6.47625 20.8871 6.47625V10.0327H19.0648C17.2697 10.0327 16.7097 11.1468 16.7097 12.2896V15.0004H20.7177L20.077 19.1779H16.7097V29.2765C23.6185 28.1923 28.9032 22.2138 28.9032 15.0004Z" fill="#1877F2"/>
<path d="M20.0763 19.1782L20.717 15.0008H16.7089V12.29C16.7089 11.1471 17.2689 10.033 19.0641 10.033H20.8863V6.47659C20.8863 6.47659 19.2326 6.19434 17.6514 6.19434C14.3504 6.19434 12.1928 8.19498 12.1928 11.8169V15.0008H8.52344V19.1782H12.1928V29.2768C12.9286 29.3923 13.6826 29.4524 14.4509 29.4524C15.2192 29.4524 15.9731 29.3923 16.7089 29.2768V19.1782H20.0763Z" fill="white"/>
</svg>
