<svg width="16" height="17" viewBox="0 0 16 17" fill="none" xmlns="http://www.w3.org/2000/svg">
<mask id="mask0_1055_375" style="mask-type:luminance" maskUnits="userSpaceOnUse" x="0" y="0" width="16" height="17">
<path d="M8 16.5C12.4183 16.5 16 12.9183 16 8.5C16 4.08172 12.4183 0.5 8 0.5C3.58172 0.5 0 4.08172 0 8.5C0 12.9183 3.58172 16.5 8 16.5Z" fill="white"/>
</mask>
<g mask="url(#mask0_1055_375)">
<path d="M19.908 0.589844H-3.91016V16.408H19.908V0.589844Z" fill="white"/>
<path d="M8.00018 16.68C3.48927 16.68 -0.181641 13.0091 -0.181641 8.49822C-0.181641 3.98732 3.48927 0.316406 8.00018 0.316406C12.5111 0.316406 16.182 3.98732 16.182 8.49822C16.182 13.0091 12.5111 16.68 8.00018 16.68ZM8.00018 0.680043C3.68927 0.680043 0.181996 4.18732 0.181996 8.49822C0.181996 12.8091 3.68927 16.3164 8.00018 16.3164C12.3111 16.3164 15.8184 12.8091 15.8184 8.49822C15.8184 4.18732 12.3111 0.680043 8.00018 0.680043Z" fill="#CFCFCF"/>
<path d="M20 0.5H-4V8.5H20V0.5Z" fill="#FF0000"/>
</g>
</svg>
