<svg width="16" height="17" viewBox="0 0 16 17" fill="none" xmlns="http://www.w3.org/2000/svg">
<mask id="mask0_1055_314" style="mask-type:luminance" maskUnits="userSpaceOnUse" x="0" y="0" width="16" height="17">
<path d="M8 16.5C12.4183 16.5 16 12.9183 16 8.5C16 4.08172 12.4183 0.5 8 0.5C3.58172 0.5 0 4.08172 0 8.5C0 12.9183 3.58172 16.5 8 16.5Z" fill="white"/>
</mask>
<g mask="url(#mask0_1055_314)">
<path d="M19.908 0.589844H-3.91016V16.408H19.908V0.589844Z" fill="white"/>
<path d="M8.00018 16.68C3.48927 16.68 -0.181641 13.0091 -0.181641 8.49822C-0.181641 3.98732 3.48927 0.316406 8.00018 0.316406C12.5111 0.316406 16.182 3.98732 16.182 8.49822C16.182 13.0091 12.5111 16.68 8.00018 16.68ZM8.00018 0.680043C3.68927 0.680043 0.181996 4.18732 0.181996 8.49822C0.181996 12.8091 3.68927 16.3164 8.00018 16.3164C12.3111 16.3164 15.8184 12.8091 15.8184 8.49822C15.8184 4.18732 12.3111 0.680043 8.00018 0.680043Z" fill="#CFCFCF"/>
<path d="M10.0342 8.17703C10.6979 8.62794 10.8888 9.51703 10.4833 10.1952C10.4688 10.2207 10.4524 10.2461 10.4361 10.2716C10.4197 10.2952 10.4015 10.3207 10.3833 10.3443C9.43242 11.6607 7.59969 11.9898 6.24696 11.0698C4.89423 10.1498 4.52696 8.3243 5.40151 6.95703C4.99605 7.63703 5.18333 8.5243 5.84696 8.97703C6.53605 9.4443 7.47423 9.26612 7.94151 8.57703C8.40878 7.88794 9.34878 7.70976 10.0361 8.17703H10.0342Z" fill="#0047A0"/>
<path d="M9.63564 6.08461C10.9884 7.00461 11.3575 8.83006 10.4829 10.1973C10.8902 9.51734 10.6993 8.63006 10.0338 8.17915C9.34655 7.71188 8.40836 7.89006 7.93927 8.57915C7.472 9.26824 6.53382 9.44824 5.84473 8.97915C5.18109 8.52824 4.992 7.63915 5.39927 6.95915C5.41382 6.9337 5.43018 6.90824 5.44655 6.88279C5.46291 6.85915 5.48109 6.8337 5.49927 6.81006C6.45018 5.4937 8.28109 5.16461 9.63382 6.08461H9.63564Z" fill="#CD2E3A"/>
<path d="M3.67458 5.87969L2.91406 7.05078L3.3273 7.31914L4.08781 6.14805L3.67458 5.87969Z" fill="black"/>
<path d="M2.37965 5.03985L1.61914 6.21094L2.03238 6.4793L2.79289 5.30821L2.37965 5.03985Z" fill="black"/>
<path d="M4.57301 4.49688L3.8125 5.66797L4.22574 5.93633L4.98625 4.76524L4.57301 4.49688Z" fill="black"/>
<path d="M3.27809 3.65704L2.51758 4.82812L2.93081 5.09648L3.69133 3.9254L3.27809 3.65704Z" fill="black"/>
<path d="M3.02419 5.45782L2.26367 6.62891L2.68606 6.90321L3.44657 5.73212L3.02419 5.45782Z" fill="black"/>
<path d="M3.92262 4.075L3.16211 5.24609L3.58449 5.52039L4.34501 4.3493L3.92262 4.075Z" fill="black"/>
<path d="M3.81147 5.67086L3.67383 5.88281L4.08706 6.15117L4.22471 5.93922L3.81147 5.67086Z" fill="black"/>
<path d="M2.5185 4.83101L2.38086 5.04297L2.7941 5.31133L2.93174 5.09937L2.5185 4.83101Z" fill="black"/>
<path d="M3.16108 5.24898L3.02344 5.46094L3.44582 5.73524L3.58347 5.52328L3.16108 5.24898Z" fill="black"/>
<path d="M2.95146 12.0643L2.54297 12.3398L3.32381 13.4975L3.73229 13.222L2.95146 12.0643Z" fill="black"/>
<path d="M4.23076 11.201L3.82227 11.4766L4.6031 12.6342L5.01159 12.3587L4.23076 11.201Z" fill="black"/>
<path d="M2.02763 10.6971L1.61914 10.9727L2.39998 12.1303L2.80847 11.8548L2.02763 10.6971Z" fill="black"/>
<path d="M3.30888 9.82994L2.90039 10.1055L3.68123 11.2631L4.08972 10.9876L3.30888 9.82994Z" fill="black"/>
<path d="M3.59756 11.629L3.17969 11.9102L3.95911 13.0687L4.37699 12.7876L3.59756 11.629Z" fill="black"/>
<path d="M2.67334 10.2613L2.25586 10.543L3.0369 11.7005L3.45438 11.4188L2.67334 10.2613Z" fill="black"/>
<path d="M2.80888 11.8534L2.40039 12.1289L2.54171 12.3384L2.9502 12.0629L2.80888 11.8534Z" fill="black"/>
<path d="M4.09013 10.994L3.68164 11.2695L3.82296 11.4791L4.23145 11.2035L4.09013 10.994Z" fill="black"/>
<path d="M12.2098 5.88321L11.7949 6.15234L12.5548 7.32383L12.9697 7.0547L12.2098 5.88321Z" fill="black"/>
<path d="M13.5009 5.03987L13.0879 5.30859L13.8494 6.47902L14.2624 6.2103L13.5009 5.03987Z" fill="black"/>
<path d="M12.071 5.67273L11.6565 5.94182L10.8965 4.76909L11.3092 4.5L12.071 5.67273Z" fill="black"/>
<path d="M12.6063 3.65658L12.1914 3.92578L12.9515 5.09714L13.3664 4.82793L12.6063 3.65658Z" fill="black"/>
<path d="M12.8599 5.46007L12.4375 5.73438L13.198 6.90546L13.6204 6.63116L12.8599 5.46007Z" fill="black"/>
<path d="M11.9614 4.07336L11.5391 4.34766L12.2996 5.51875L12.722 5.24445L11.9614 4.07336Z" fill="black"/>
<path d="M12.7212 5.24914L12.2988 5.52344L12.4365 5.73539L12.8589 5.46109L12.7212 5.24914Z" fill="black"/>
<path d="M12.9318 12.0615L12.1504 13.2188L12.5602 13.4955L13.3417 12.3383L12.9318 12.0615Z" fill="black"/>
<path d="M11.6513 11.2013L10.8711 12.3594L11.2797 12.6347L12.06 11.4766L11.6513 11.2013Z" fill="black"/>
<path d="M14.2614 10.9717L13.4814 12.1299L13.0723 11.8535L13.8523 10.6953L14.2614 10.9717Z" fill="black"/>
<path d="M12.574 9.83469L11.793 10.9922L12.2014 11.2678L12.9824 10.1103L12.574 9.83469Z" fill="black"/>
<path d="M12.2873 11.6279L11.5059 12.7852L11.9232 13.067L12.7047 11.9098L12.2873 11.6279Z" fill="black"/>
<path d="M13.2107 10.2644L12.4297 11.4219L12.8472 11.7036L13.6282 10.5461L13.2107 10.2644Z" fill="black"/>
</g>
</svg>
