<svg width="16" height="17" viewBox="0 0 16 17" fill="none" xmlns="http://www.w3.org/2000/svg">
<mask id="mask0_1055_204" style="mask-type:luminance" maskUnits="userSpaceOnUse" x="0" y="0" width="16" height="17">
<path d="M8 16.5C12.4183 16.5 16 12.9183 16 8.5C16 4.08172 12.4183 0.5 8 0.5C3.58172 0.5 0 4.08172 0 8.5C0 12.9183 3.58172 16.5 8 16.5Z" fill="white"/>
</mask>
<g mask="url(#mask0_1055_204)">
<path d="M24 0.5H0V16.5H24V0.5Z" fill="#EE1C25"/>
<path d="M4.01075 2.23047L4.5362 3.84683H6.2362L4.86165 4.84501L5.38711 6.4632L4.01075 5.4632L2.6362 6.4632L3.16165 4.84501L1.78711 3.84683H3.48529L4.01075 2.23047Z" fill="#FFFF00"/>
<path d="M8.29136 1.45312L8.2459 2.01858L8.76772 2.23676L8.21681 2.36767L8.16954 2.93313L7.87499 2.44767L7.32227 2.57858L7.69317 2.14767L7.39863 1.66403L7.92227 1.88222L8.29136 1.45312Z" fill="#FFFF00"/>
<path d="M8.27398 7.03516L8.24126 7.60243L8.77035 7.80788L8.22126 7.95152L8.19035 8.51879L7.88308 8.04243L7.33398 8.18607L7.69217 7.74607L7.38489 7.2697L7.91398 7.47516L8.27398 7.03516Z" fill="#FFFF00"/>
<path d="M9.22974 3.08203L9.30974 3.64385L8.79883 3.89294L9.35883 3.99112L9.43701 4.55294L9.70246 4.05294L10.2625 4.15112L9.86792 3.74203L10.1352 3.24203L9.62428 3.49112L9.22974 3.08203Z" fill="#FFFF00"/>
<path d="M10.0539 6.78389L9.85028 6.2548L10.2903 5.89662L9.723 5.92753L9.51755 5.39844L9.3721 5.94753L8.80664 5.97844L9.283 6.28571L9.13755 6.8348L9.57755 6.47662L10.0539 6.78389Z" fill="#FFFF00"/>
</g>
</svg>
