<svg width="63" height="63" viewBox="0 0 63 63" fill="none" xmlns="http://www.w3.org/2000/svg">
<path fill-rule="evenodd" clip-rule="evenodd" d="M31.5119 0.455078C48.6643 0.455078 62.5746 14.3653 62.5746 31.5178C62.5746 48.6702 48.6643 62.5805 31.5119 62.5805C14.3595 62.5805 0.449219 48.6702 0.449219 31.5178C0.449219 14.3653 14.3595 0.455078 31.5119 0.455078ZM25.0614 41.6072L17.4564 33.996C16.1608 32.6996 16.1606 30.5855 17.4564 29.2894C18.7526 27.9935 20.876 28.0017 22.1627 29.2894L27.5242 34.655L40.8616 21.3177C42.1577 20.0215 44.272 20.0215 45.5678 21.3177C46.864 22.6135 46.8621 24.7296 45.5678 26.024L29.8735 41.7183C28.5792 43.0126 26.4631 43.0144 25.1672 41.7183C25.1308 41.6819 25.0957 41.6449 25.0614 41.6072Z" fill="white"/>
</svg>
