<svg width="29" height="30" viewBox="0 0 29 30" fill="none" xmlns="http://www.w3.org/2000/svg">
<mask id="mask0_478_26" style="mask-type:luminance" maskUnits="userSpaceOnUse" x="0" y="0" width="29" height="30">
<path d="M28.9032 0.548828H0V29.4521H28.9032V0.548828Z" fill="white"/>
</mask>
<g mask="url(#mask0_478_26)">
<path d="M28.3247 15.3291C28.3247 14.3044 28.2328 13.319 28.062 12.373H14.4512V17.9632H22.2287C21.8938 19.7697 20.8756 21.3002 19.3451 22.325V25.9511H24.0155C26.7482 23.4352 28.3247 19.7302 28.3247 15.3291Z" fill="#4285F4"/>
<path d="M14.4536 29.4519C18.3555 29.4519 21.6268 28.1578 24.0178 25.9507L19.3474 22.3247C18.0534 23.1918 16.3979 23.7041 14.4536 23.7041C10.6895 23.7041 7.50368 21.1619 6.3672 17.7461H1.53906V21.4904C3.91708 26.2134 8.80432 29.4519 14.4536 29.4519Z" fill="#34A853"/>
<path d="M6.36521 17.7466C6.07618 16.8795 5.91201 15.9533 5.91201 15.0008C5.91201 14.0483 6.07618 13.1221 6.36521 12.255V8.51074H1.53707C0.55841 10.4617 0 12.6689 0 15.0008C0 17.3327 0.55841 19.5399 1.53707 21.4909L6.36521 17.7466Z" fill="#FBBC04"/>
<path d="M14.4536 6.29667C16.5752 6.29667 18.4803 7.02575 19.978 8.45776L24.123 4.31275C21.6203 1.98084 18.3489 0.548828 14.4536 0.548828C8.80432 0.548828 3.91708 3.78729 1.53906 8.51037L6.3672 12.2546C7.50368 8.83885 10.6895 6.29667 14.4536 6.29667Z" fill="#E94235"/>
</g>
</svg>
