<svg width="16" height="17" viewBox="0 0 16 17" fill="none" xmlns="http://www.w3.org/2000/svg">
<mask id="mask0_670_1068" style="mask-type:luminance" maskUnits="userSpaceOnUse" x="0" y="0" width="16" height="17">
<path d="M8 16.5C12.4183 16.5 16 12.9183 16 8.5C16 4.08172 12.4183 0.5 8 0.5C3.58172 0.5 0 4.08172 0 8.5C0 12.9183 3.58172 16.5 8 16.5Z" fill="white"/>
</mask>
<g mask="url(#mask0_670_1068)">
<path d="M19.9078 0.589844H-3.91016V16.4078H19.9078V0.589844Z" fill="white"/>
<path d="M8.00036 16.6804C3.48936 16.6804 -0.181641 13.0104 -0.181641 8.49841C-0.181641 3.98641 3.48936 0.316406 8.00036 0.316406C12.5114 0.316406 16.1824 3.98641 16.1824 8.49841C16.1824 13.0104 12.5124 16.6804 8.00036 16.6804ZM8.00036 0.680406C3.68936 0.680406 0.182359 4.18741 0.182359 8.49841C0.182359 12.8094 3.68936 16.3164 8.00036 16.3164C12.3114 16.3164 15.8184 12.8094 15.8184 8.49841C15.8184 4.18741 12.3114 0.680406 8.00036 0.680406Z" fill="#CFCFCF"/>
<path d="M7.99913 13.2951C10.6479 13.2951 12.7951 11.1479 12.7951 8.49913C12.7951 5.85037 10.6479 3.70312 7.99913 3.70312C5.35037 3.70312 3.20312 5.85037 3.20312 8.49913C3.20312 11.1479 5.35037 13.2951 7.99913 13.2951Z" fill="#BC002D"/>
</g>
</svg>
