<svg width="13" height="13" viewBox="0 0 13 13" fill="none" xmlns="http://www.w3.org/2000/svg">
<path d="M6.60415 12.9918L6.22679 12.6684C5.70655 12.2328 1.16406 8.30971 1.16406 5.44009C1.16406 2.43562 3.59968 0 6.60415 0C9.60863 0 12.0442 2.43562 12.0442 5.44009C12.0442 8.30974 7.50175 12.2328 6.98368 12.6705L6.60415 12.9918ZM6.60415 1.17631C4.25045 1.17897 2.34306 3.08636 2.34039 5.44006C2.34039 7.24283 5.13511 10.1227 6.60415 11.4408C8.07322 10.1222 10.8679 7.24065 10.8679 5.44006C10.8652 3.08636 8.95788 1.179 6.60415 1.17631Z" fill="#A3A3A3"/>
<path d="M6.60367 7.59797C5.41272 7.59797 4.44727 6.63251 4.44727 5.44156C4.44727 4.25061 5.41272 3.28516 6.60367 3.28516C7.79462 3.28516 8.76008 4.25061 8.76008 5.44156C8.76008 6.63251 7.79464 7.59797 6.60367 7.59797ZM6.60367 4.36333C6.0082 4.36333 5.52547 4.84606 5.52547 5.44154C5.52547 6.03701 6.0082 6.51974 6.60367 6.51974C7.19915 6.51974 7.68187 6.03701 7.68187 5.44154C7.68187 4.84606 7.19917 4.36333 6.60367 4.36333Z" fill="#A3A3A3"/>
</svg>
