<svg width="29" height="30" viewBox="0 0 29 30" fill="none" xmlns="http://www.w3.org/2000/svg">
<path d="M0 15.0004C0 7.01906 6.47023 0.548828 14.4516 0.548828C22.433 0.548828 28.9032 7.01906 28.9032 15.0004C28.9032 22.9818 22.433 29.4521 14.4516 29.4521C6.47023 29.4521 0 22.9818 0 15.0004Z" fill="#FFE812"/>
<path d="M14.4508 7.17285C9.12985 7.17285 4.81641 10.5739 4.81641 14.7692C4.81641 17.4815 6.61973 19.8615 9.33235 21.2055C9.18477 21.7144 8.38403 24.4797 8.35211 24.6969C8.35211 24.6969 8.33297 24.8601 8.43864 24.9224C8.54438 24.9846 8.66866 24.9363 8.66866 24.9363C8.97179 24.894 12.1837 22.6378 12.7396 22.2461C13.295 22.3247 13.8668 22.3656 14.4508 22.3656C19.7718 22.3656 24.0852 18.9646 24.0852 14.7692C24.0852 10.5739 19.7718 7.17285 14.4508 7.17285Z" fill="#381F1F"/>
<path fill-rule="evenodd" clip-rule="evenodd" d="M9.12285 17.4205C8.81629 17.4205 8.567 17.1824 8.567 16.8896V13.5875H7.69972C7.39895 13.5875 7.1543 13.3433 7.1543 13.0432C7.1543 12.7432 7.39901 12.499 7.69972 12.499H10.546C10.8467 12.499 11.0914 12.7432 11.0914 13.0432C11.0914 13.3433 10.8467 13.5875 10.546 13.5875H9.67869V16.8896C9.67869 17.1824 9.4294 17.4205 9.12285 17.4205ZM13.9967 17.4132C13.7649 17.4132 13.5877 17.3191 13.5342 17.1677L13.259 16.4472L11.564 16.4471L11.2887 17.1681C11.2354 17.3192 11.0582 17.4132 10.8264 17.4132C10.7045 17.4134 10.5839 17.3872 10.473 17.3365C10.3198 17.2658 10.1725 17.0715 10.3413 16.5472L11.6708 13.0477C11.7645 12.7816 12.049 12.5073 12.4111 12.4991C12.7741 12.5073 13.0586 12.7816 13.1524 13.0482L14.4814 16.5462C14.6506 17.0716 14.5033 17.2661 14.3501 17.3366C14.2391 17.3872 14.1186 17.4133 13.9967 17.4132ZM12.4115 13.8855L12.9667 15.4626H11.8563L12.4115 13.8855ZM15.3759 17.3394C15.0822 17.3394 14.8433 17.1108 14.8433 16.8299V13.0549C14.8433 12.7483 15.0978 12.499 15.4107 12.499C15.7235 12.499 15.9781 12.7483 15.9781 13.0549V16.3203H17.1592C17.453 16.3203 17.6919 16.549 17.6919 16.8299C17.6919 17.1108 17.453 17.3394 17.1592 17.3394H15.3759ZM17.9081 16.8574C17.9081 17.1639 18.1574 17.4132 18.4639 17.4132C18.6114 17.413 18.7527 17.3543 18.8569 17.2501C18.9611 17.1459 19.0198 17.0046 19.02 16.8571V15.6444L19.2128 15.4515L20.5164 17.1786C20.568 17.2476 20.635 17.3035 20.7121 17.3419C20.7892 17.3802 20.8742 17.4 20.9603 17.3996C21.0811 17.3999 21.1986 17.3605 21.2947 17.2874C21.3531 17.2436 21.4023 17.1887 21.4393 17.1258C21.4763 17.0628 21.5005 16.9932 21.5103 16.9209C21.5208 16.8485 21.5167 16.775 21.4983 16.7043C21.48 16.6336 21.4478 16.5672 21.4036 16.509L20.0354 14.6965L21.3021 13.43C21.3892 13.3429 21.4329 13.2227 21.4248 13.0916C21.4168 12.9617 21.3587 12.8365 21.2614 12.7392C21.1569 12.6349 21.0176 12.5751 20.8789 12.5751C20.7599 12.5751 20.6503 12.619 20.5706 12.6988L19.0198 14.2495V13.0549C19.0198 12.7483 18.7705 12.499 18.4639 12.499C18.1574 12.499 17.9081 12.7483 17.9081 13.0549V16.8574Z" fill="#FFE812"/>
</svg>
