<svg width="16" height="17" viewBox="0 0 16 17" fill="none" xmlns="http://www.w3.org/2000/svg">
<mask id="mask0_1055_216" style="mask-type:luminance" maskUnits="userSpaceOnUse" x="0" y="0" width="16" height="17">
<path d="M8 16.5C12.4183 16.5 16 12.9183 16 8.5C16 4.08172 12.4183 0.5 8 0.5C3.58172 0.5 0 4.08172 0 8.5C0 12.9183 3.58172 16.5 8 16.5Z" fill="white"/>
</mask>
<g mask="url(#mask0_1055_216)">
<path d="M24.4473 12.2812H-8.44727V19.4649H24.4473V12.2812Z" fill="#128807"/>
<path d="M24.4473 -2.46484H-8.44727V4.71879H24.4473V-2.46484Z" fill="#FF9933"/>
<path d="M24.4473 4.71875H-8.44727V12.2806H24.4473V4.71875Z" fill="white"/>
<path d="M10.9374 9.19133C11.3203 7.56901 10.3155 5.94345 8.69323 5.56055C7.07091 5.17765 5.44535 6.18239 5.06245 7.80471C4.67954 9.42704 5.68429 11.0526 7.30661 11.4355C8.92894 11.8184 10.5545 10.8136 10.9374 9.19133Z" fill="#000088"/>
<path d="M8.42412 11.1058C9.86232 10.8723 10.839 9.5172 10.6055 8.079C10.3721 6.6408 9.01691 5.66415 7.57871 5.89761C6.1405 6.13106 5.16386 7.48621 5.39731 8.92441C5.63077 10.3626 6.98591 11.3393 8.42412 11.1058Z" fill="white"/>
<path d="M8.00013 8C7.72377 8 7.50195 8.22364 7.50195 8.5C7.50195 8.77636 7.72559 9 8.00013 9C8.27468 9 8.49832 8.77636 8.49832 8.5C8.49832 8.22364 8.27468 8 8.00013 8Z" fill="#000088"/>
<path d="M8.3504 5.72656C8.26858 5.72656 8.20312 5.79202 8.20312 5.87383C8.20312 5.95565 8.26858 6.02111 8.3504 6.02111C8.43222 6.02111 8.49767 5.95565 8.49767 5.87383C8.49767 5.79202 8.43222 5.72656 8.3504 5.72656Z" fill="#000088"/>
<path d="M7.65313 10.9805C7.57131 10.9805 7.50586 11.0459 7.50586 11.1277C7.50586 11.2096 7.57131 11.275 7.65313 11.275C7.73495 11.275 7.8004 11.2096 7.8004 11.1277C7.8004 11.0459 7.73495 10.9805 7.65313 10.9805Z" fill="#000088"/>
<path d="M7.62068 5.73189C7.5425 5.75371 7.49523 5.83371 7.51705 5.91189C7.53887 5.99007 7.61887 6.03735 7.69705 6.01553C7.77523 5.99371 7.8225 5.91371 7.80068 5.83553C7.77887 5.75735 7.69887 5.71007 7.62068 5.73189Z" fill="#000088"/>
<path d="M8.30623 10.9858C8.22805 11.0076 8.18078 11.0876 8.20259 11.1658C8.22441 11.244 8.30441 11.2913 8.38259 11.2694C8.46078 11.2476 8.50805 11.1676 8.48623 11.0894C8.46441 11.0113 8.38441 10.964 8.30623 10.9858Z" fill="#000088"/>
<path d="M6.91574 5.92565C6.84483 5.96565 6.8212 6.05656 6.8612 6.12565C6.9012 6.19656 6.99211 6.22019 7.0612 6.18019C7.13211 6.14019 7.15574 6.04928 7.11574 5.98019C7.07574 5.90928 6.98483 5.88565 6.91574 5.92565Z" fill="#000088"/>
<path d="M8.93918 10.8241C8.86827 10.8641 8.84463 10.955 8.88463 11.0241C8.92463 11.095 9.01554 11.1186 9.08463 11.0786C9.15554 11.0386 9.17918 10.9477 9.13918 10.8786C9.09918 10.8077 9.00827 10.7841 8.93918 10.8241Z" fill="#000088"/>
<path d="M6.28778 6.29227C6.2296 6.34864 6.2296 6.44318 6.28778 6.49955C6.34414 6.55591 6.43869 6.55591 6.49505 6.49955C6.55141 6.44318 6.55141 6.34864 6.49505 6.29227C6.43869 6.23591 6.34414 6.23591 6.28778 6.29227Z" fill="#000088"/>
<path d="M9.50712 10.4993C9.45075 10.5557 9.45075 10.6502 9.50712 10.7066C9.56348 10.7629 9.65803 10.7629 9.71439 10.7066C9.77257 10.6502 9.77257 10.5557 9.71439 10.4993C9.65803 10.4429 9.56348 10.4429 9.50712 10.4993Z" fill="#000088"/>
<path d="M5.97526 6.75768C5.90435 6.71768 5.81526 6.74132 5.77526 6.81223C5.73526 6.88313 5.75889 6.97222 5.8298 7.01222C5.90071 7.05222 5.9898 7.02859 6.0298 6.95768C6.0698 6.88677 6.04617 6.79768 5.97526 6.75768Z" fill="#000088"/>
<path d="M10.1725 9.98815C10.1016 9.94815 10.0125 9.97179 9.97252 10.0427C9.93252 10.1136 9.95616 10.2027 10.0271 10.2427C10.098 10.2827 10.1871 10.2591 10.2271 10.1881C10.2671 10.1172 10.2434 10.0281 10.1725 9.98815Z" fill="#000088"/>
<path d="M5.59353 7.34127C5.51535 7.31945 5.43535 7.36672 5.41353 7.4449C5.39171 7.52308 5.43899 7.60308 5.51717 7.6249C5.59535 7.64672 5.67535 7.59945 5.69717 7.52127C5.71899 7.44308 5.67171 7.36308 5.59353 7.34127Z" fill="#000088"/>
<path d="M10.4842 9.37642C10.406 9.3546 10.326 9.40188 10.3042 9.48006C10.2823 9.55824 10.3296 9.63824 10.4078 9.66006C10.486 9.68188 10.566 9.6346 10.5878 9.55642C10.6096 9.47824 10.5623 9.39824 10.4842 9.37642Z" fill="#000088"/>
<path d="M5.37383 8.00391C5.29202 8.00391 5.22656 8.06936 5.22656 8.15118C5.22656 8.233 5.29202 8.29845 5.37383 8.29845C5.45565 8.29845 5.52111 8.233 5.52111 8.15118C5.52111 8.06936 5.45565 8.00391 5.37383 8.00391Z" fill="#000088"/>
<path d="M10.6258 8.70312C10.544 8.70312 10.4785 8.76858 10.4785 8.8504C10.4785 8.93222 10.544 8.99767 10.6258 8.99767C10.7076 8.99767 10.7731 8.93222 10.7731 8.8504C10.7731 8.76858 10.7076 8.70312 10.6258 8.70312Z" fill="#000088"/>
<path d="M5.33553 8.70064C5.25735 8.72246 5.21007 8.80246 5.23189 8.88064C5.25371 8.95882 5.33371 9.0061 5.41189 8.98428C5.49007 8.96246 5.53735 8.88246 5.51553 8.80428C5.49371 8.7261 5.41371 8.67882 5.33553 8.70064Z" fill="#000088"/>
<path d="M10.5894 8.01705C10.5113 8.03887 10.464 8.11887 10.4858 8.19705C10.5076 8.27523 10.5876 8.3225 10.6658 8.30068C10.744 8.27887 10.7913 8.19887 10.7694 8.12068C10.7476 8.0425 10.6676 7.99523 10.5894 8.01705Z" fill="#000088"/>
<path d="M5.47824 9.38268C5.40733 9.42268 5.3837 9.51359 5.4237 9.58268C5.4637 9.65359 5.5546 9.67723 5.6237 9.63723C5.6946 9.59723 5.71824 9.50632 5.67824 9.43723C5.63824 9.36632 5.54733 9.34268 5.47824 9.38268Z" fill="#000088"/>
<path d="M10.3767 7.36315C10.3058 7.40315 10.2821 7.49406 10.3221 7.56315C10.3621 7.63406 10.453 7.65769 10.5221 7.61769C10.593 7.57769 10.6167 7.48678 10.5767 7.41769C10.5367 7.34678 10.4458 7.32315 10.3767 7.36315Z" fill="#000088"/>
<path d="M5.79227 10.0071C5.73591 10.0635 5.73591 10.158 5.79227 10.2144C5.84864 10.2708 5.94318 10.2708 5.99955 10.2144C6.05591 10.158 6.05591 10.0635 5.99955 10.0071C5.94318 9.95075 5.84864 9.95075 5.79227 10.0071Z" fill="#000088"/>
<path d="M9.9993 6.78446C9.94294 6.84082 9.94294 6.93537 9.9993 6.99173C10.0557 7.0481 10.1502 7.0481 10.2066 6.99173C10.2629 6.93537 10.2629 6.84082 10.2066 6.78446C10.1502 6.7281 10.0557 6.7281 9.9993 6.78446Z" fill="#000088"/>
<path d="M6.45768 10.4725C6.38677 10.4325 6.29768 10.4562 6.25768 10.5271C6.21768 10.598 6.24132 10.6871 6.31223 10.7271C6.38313 10.7671 6.47223 10.7434 6.51223 10.6725C6.55223 10.6016 6.52859 10.5125 6.45768 10.4725Z" fill="#000088"/>
<path d="M9.68815 6.2733C9.61724 6.2333 9.52815 6.25694 9.48815 6.32785C9.44815 6.39876 9.47178 6.48785 9.54269 6.52785C9.6136 6.56785 9.70269 6.54421 9.74269 6.4733C9.78269 6.4024 9.75906 6.3133 9.68815 6.2733Z" fill="#000088"/>
<path d="M7.02322 10.8061C6.94504 10.7843 6.86504 10.8316 6.84322 10.9097C6.8214 10.9879 6.86867 11.0679 6.94686 11.0897C7.02504 11.1116 7.10504 11.0643 7.12686 10.9861C7.14867 10.9079 7.1014 10.8279 7.02322 10.8061Z" fill="#000088"/>
<path d="M9.05447 5.91158C8.97629 5.88976 8.89629 5.93703 8.87447 6.01521C8.85265 6.0934 8.89992 6.1734 8.97811 6.19521C9.05629 6.21703 9.13629 6.16976 9.15811 6.09158C9.17992 6.0134 9.13265 5.9334 9.05447 5.91158Z" fill="#000088"/>
<path d="M7.9929 5.92869L7.9329 6.99415C7.90563 7.3596 7.92927 7.70869 8.00018 8.06688C8.00381 8.06688 8.00745 8.06506 8.00927 8.0596L8.07836 7.52688C8.09654 7.16324 8.02381 6.30506 8.00927 5.92869C8.00927 5.9196 7.99472 5.9196 7.99472 5.92869H7.9929Z" fill="#000088"/>
<path d="M7.99386 8.93696L7.92477 9.46969C7.90659 9.83332 7.97932 10.6915 7.99386 11.0679C7.99386 11.077 8.00841 11.077 8.00841 11.0679L8.06841 10.0024C8.09568 9.63696 8.07205 9.28787 8.00114 8.92969C7.9975 8.92969 7.99386 8.93151 7.99205 8.93696H7.99386Z" fill="#000088"/>
<path d="M7.34285 6.01698C7.33921 6.00789 7.32648 6.01153 7.3283 6.02062L7.54648 7.06608C7.61376 7.42608 7.7283 7.75698 7.8883 8.08426C7.89194 8.08426 7.89557 8.08062 7.89557 8.07517L7.82466 7.54244C7.74648 7.18608 7.45557 6.37517 7.34466 6.01698H7.34285Z" fill="#000088"/>
<path d="M8.11274 8.91797C8.11274 8.91797 8.10547 8.9216 8.10547 8.92706L8.17638 9.45979C8.25456 9.81615 8.54547 10.6271 8.65638 10.9852C8.66001 10.9943 8.67274 10.9907 8.67092 10.9816L8.45274 9.93615C8.38547 9.57615 8.27092 9.24524 8.11092 8.91797H8.11274Z" fill="#000088"/>
<path d="M6.72224 6.27135C6.72224 6.27135 6.70588 6.27135 6.70951 6.27862L7.18951 7.23135C7.34769 7.56044 7.54406 7.85317 7.78406 8.12589C7.78769 8.12589 7.78951 8.12044 7.78769 8.11499L7.58042 7.61862C7.41315 7.29499 6.92224 6.58771 6.72224 6.26953V6.27135Z" fill="#000088"/>
<path d="M8.21885 8.875C8.21885 8.875 8.2134 8.88045 8.21521 8.88591L8.42249 9.38227C8.58976 9.70591 9.08067 10.4132 9.28067 10.7314C9.28612 10.7405 9.29885 10.7314 9.2934 10.7241L8.8134 9.77136C8.65521 9.44227 8.45885 9.14955 8.21885 8.87682V8.875Z" fill="#000088"/>
<path d="M6.1878 6.67578C6.1878 6.67578 6.17144 6.67942 6.17689 6.68669L6.8878 7.48305C7.12417 7.7576 7.39326 7.99396 7.69326 8.19396C7.69689 8.19215 7.69689 8.18669 7.69326 8.18305L7.36599 7.7576C7.12053 7.48851 6.46417 6.93214 6.1878 6.67578Z" fill="#000088"/>
<path d="M8.30826 8.80469C8.30826 8.80469 8.30462 8.81196 8.30826 8.8156L8.63553 9.24105C8.88098 9.51014 9.53735 10.0665 9.81371 10.3229C9.82098 10.3301 9.83007 10.3192 9.82462 10.312L9.11371 9.5156C8.87735 9.24105 8.60826 9.00469 8.30826 8.80469Z" fill="#000088"/>
<path d="M7.1964 7.94642C6.88913 7.75006 6.11095 7.38279 5.77822 7.20824C5.76913 7.20279 5.76368 7.21733 5.77095 7.22097L6.66368 7.80642C6.96549 8.01188 7.28186 8.16642 7.62549 8.28461C7.62731 8.28097 7.62731 8.27551 7.62549 8.2737L7.19822 7.94824L7.1964 7.94642Z" fill="#000088"/>
<path d="M9.33818 9.19303C9.03636 8.98757 8.72 8.83303 8.37636 8.71484C8.37455 8.71848 8.37455 8.72393 8.37636 8.72575L8.80364 9.05121C9.11091 9.24757 9.88909 9.61484 10.2218 9.78939C10.2309 9.79484 10.2364 9.7803 10.2291 9.77666L9.33636 9.19121L9.33818 9.19303Z" fill="#000088"/>
<path d="M7.08244 8.17555C6.73517 8.06465 5.88789 7.91192 5.52062 7.82828C5.51153 7.82646 5.50789 7.84101 5.51698 7.84283L6.52971 8.17737C6.87517 8.29919 7.22062 8.36646 7.58244 8.3901C7.58244 8.38646 7.58244 8.38101 7.5788 8.37919L7.08244 8.17374V8.17555Z" fill="#000088"/>
<path d="M9.4707 8.82601C9.12524 8.70419 8.78161 8.63692 8.41797 8.61328C8.41797 8.61692 8.41797 8.62237 8.4216 8.62419L8.91797 8.82965C9.26524 8.94055 10.1125 9.09328 10.4798 9.17692C10.4889 9.17874 10.4925 9.16419 10.4834 9.16237L9.4707 8.82783V8.82601Z" fill="#000088"/>
<path d="M7.02883 8.42477C6.66519 8.40659 5.80701 8.47932 5.43065 8.49386C5.42156 8.49386 5.42156 8.50841 5.43065 8.50841L6.4961 8.56841C6.85974 8.59568 7.21246 8.57205 7.56883 8.50114C7.56883 8.4975 7.56701 8.49386 7.56156 8.49205L7.02883 8.42296V8.42477Z" fill="#000088"/>
<path d="M9.50437 8.4329C9.14073 8.40563 8.78982 8.42927 8.43164 8.50018C8.43164 8.50381 8.43346 8.50745 8.43891 8.50927L8.97164 8.57836C9.33528 8.59654 10.1935 8.52381 10.5698 8.50927C10.5789 8.50927 10.5789 8.49472 10.5698 8.49472L9.50437 8.43472V8.4329Z" fill="#000088"/>
<path d="M7.04244 8.6782C6.68608 8.75638 5.87517 9.04729 5.51698 9.1582C5.50789 9.16183 5.51153 9.17456 5.52062 9.17274L6.56608 8.95456C6.92426 8.88729 7.2588 8.77274 7.58426 8.61274C7.58426 8.6091 7.58062 8.60547 7.57517 8.60547L7.04244 8.67638V8.6782Z" fill="#000088"/>
<path d="M9.43615 8.04467C9.07615 8.11194 8.74342 8.22648 8.41797 8.38648C8.41797 8.39012 8.4216 8.39376 8.42706 8.39376L8.95979 8.32285C9.31615 8.24467 10.1271 7.95376 10.4852 7.84285C10.4943 7.83921 10.4907 7.82648 10.4816 7.8283L9.43615 8.04648V8.04467Z" fill="#000088"/>
<path d="M7.12048 8.91892C6.79685 9.0862 6.08957 9.57711 5.77139 9.77711C5.7623 9.78256 5.77139 9.79347 5.77866 9.78983L6.73139 9.30983C7.06048 9.15165 7.35321 8.95529 7.62594 8.71529C7.62594 8.71165 7.62048 8.70983 7.61503 8.71165L7.11866 8.91892H7.12048Z" fill="#000088"/>
<path d="M9.26955 7.68836C8.94046 7.84654 8.64773 8.04291 8.375 8.28291C8.375 8.28654 8.38046 8.28836 8.38591 8.28654L8.88227 8.07927C9.20591 7.912 9.91318 7.42109 10.2314 7.22109C10.2405 7.21563 10.2314 7.20291 10.2241 7.20836L9.27136 7.68836H9.26955Z" fill="#000088"/>
<path d="M7.25804 9.13469C6.98895 9.38014 6.43259 10.0365 6.17623 10.3129C6.16895 10.3201 6.17986 10.3292 6.18714 10.3238L6.9835 9.61287C7.25805 9.37832 7.49441 9.10741 7.69441 8.80741C7.69259 8.80378 7.68714 8.80378 7.6835 8.80741L7.25804 9.13469Z" fill="#000088"/>
<path d="M9.81391 6.67745L9.01755 7.38835C8.743 7.62472 8.50664 7.89381 8.30664 8.19381C8.30846 8.19745 8.31391 8.19745 8.31755 8.19381L8.743 7.86654C9.0121 7.62108 9.56846 6.96472 9.82482 6.68835C9.83209 6.68108 9.82119 6.67199 9.81391 6.67745Z" fill="#000088"/>
<path d="M7.44642 9.30546C7.25006 9.61273 6.88279 10.3909 6.70824 10.7236C6.70279 10.7327 6.71733 10.7382 6.72097 10.7309L7.30642 9.83818C7.51188 9.53818 7.66824 9.21818 7.7846 8.87636C7.78097 8.87455 7.77551 8.87455 7.7737 8.87636L7.44824 9.30364L7.44642 9.30546Z" fill="#000088"/>
<path d="M9.27848 6.27108L8.69302 7.16381C8.48575 7.46563 8.33303 7.78017 8.21484 8.12563C8.21848 8.12745 8.22212 8.12745 8.22575 8.12563L8.55121 7.69836C8.74757 7.3929 9.11484 6.6129 9.28939 6.28017C9.29484 6.27108 9.2803 6.26563 9.27666 6.2729L9.27848 6.27108Z" fill="#000088"/>
<path d="M7.67555 9.41797C7.56464 9.76524 7.41192 10.6125 7.32828 10.9798C7.32646 10.9889 7.34101 10.9925 7.34283 10.9834L7.67737 9.9707C7.79919 9.62524 7.86646 9.28161 7.8901 8.91797C7.88646 8.91797 7.88101 8.91797 7.88101 8.92161L7.67555 9.41797Z" fill="#000088"/>
<path d="M8.6586 6.01698L8.32406 7.02971C8.20224 7.37517 8.13496 7.7188 8.11133 8.08244C8.11496 8.08244 8.12042 8.08244 8.12042 8.0788L8.32587 7.58244C8.43678 7.23517 8.58951 6.38789 8.67315 6.02062C8.67497 6.01153 8.66042 6.00789 8.6586 6.01698Z" fill="#000088"/>
</g>
</svg>
