<svg width="16" height="17" viewBox="0 0 16 17" fill="none" xmlns="http://www.w3.org/2000/svg">
<mask id="mask0_1055_132" style="mask-type:luminance" maskUnits="userSpaceOnUse" x="0" y="0" width="16" height="17">
<path d="M8 16.5C12.4183 16.5 16 12.9183 16 8.5C16 4.08172 12.4183 0.5 8 0.5C3.58172 0.5 0 4.08172 0 8.5C0 12.9183 3.58172 16.5 8 16.5Z" fill="white"/>
</mask>
<g mask="url(#mask0_1055_132)">
<path d="M26.4527 1.73047H-3.94727V2.96147H26.4527V1.73047Z" fill="white"/>
<path d="M26.4527 4.19141H-3.94727V5.42241H26.4527V4.19141Z" fill="white"/>
<path d="M26.4527 6.65625H-3.94727V7.88725H26.4527V6.65625Z" fill="white"/>
<path d="M26.4527 9.11328H-3.94727V10.3443H26.4527V9.11328Z" fill="white"/>
<path d="M26.4527 11.5781H-3.94727V12.8091H26.4527V11.5781Z" fill="white"/>
<path d="M26.4527 14.0391H-3.94727V15.2701H26.4527V14.0391Z" fill="white"/>
<path d="M26.4527 0.5H-3.94727V1.731H26.4527V0.5Z" fill="#B31C31"/>
<path d="M26.4527 2.96094H-3.94727V4.19194H26.4527V2.96094Z" fill="#B31C31"/>
<path d="M26.4527 5.42578H-3.94727V6.65678H26.4527V5.42578Z" fill="#B31C31"/>
<path d="M26.4527 7.88672H-3.94727V9.11572H26.4527V7.88672Z" fill="#B31C31"/>
<path d="M26.4527 10.3438H-3.94727V11.5748H26.4527V10.3438Z" fill="#B31C31"/>
<path d="M26.4527 12.8086H-3.94727V14.0396H26.4527V12.8086Z" fill="#B31C31"/>
<path d="M26.4527 15.2695H-3.94727V16.5005H26.4527V15.2695Z" fill="#B31C31"/>
<path d="M8.13573 0.5H-3.94727V9.115H8.13573V0.5Z" fill="#39386E"/>
<path d="M1.07194 0.863281L0.956937 1.21728H0.585938L0.885938 1.43528L0.770937 1.78928L1.07194 1.57028L1.37294 1.78928L1.25794 1.43528L1.55894 1.21728H1.18694L1.07194 0.863281Z" fill="white"/>
<path d="M3.11786 0.863281L3.00286 1.21728H2.63086L2.93186 1.43528L2.81686 1.78928L3.11786 1.57028L3.41886 1.78928L3.30386 1.43528L3.60486 1.21728H3.23286L3.11786 0.863281Z" fill="white"/>
<path d="M5.16083 0.863281L5.04583 1.21728H4.67383L4.97483 1.43528L4.85983 1.78928L5.16083 1.57028L5.46183 1.78928L5.34683 1.43528L5.64783 1.21728H5.27583L5.16083 0.863281Z" fill="white"/>
<path d="M6.90475 1.78928L7.20575 1.57028L7.50675 1.78928L7.39175 1.43528L7.69175 1.21728H7.32075L7.20575 0.863281L7.09075 1.21728H6.71875L7.01975 1.43528L6.90475 1.78928Z" fill="white"/>
<path d="M0.0895157 1.73438L-0.0244842 2.08737H-0.396484L-0.0964844 2.30637L-0.210484 2.66037L0.0895157 2.44137L0.390516 2.66037L0.275516 2.30637L0.576516 2.08737H0.204515L0.0895157 1.73438Z" fill="white"/>
<path d="M2.13348 1.73438L2.01848 2.08737H1.64648L1.94748 2.30637L1.83248 2.66037L2.13348 2.44137L2.43448 2.66037L2.31948 2.30637L2.62048 2.08737H2.24848L2.13348 1.73438Z" fill="white"/>
<path d="M4.17841 1.73438L4.06341 2.08737H3.69141L3.99241 2.30637L3.87741 2.66037L4.17841 2.44137L4.47941 2.66037L4.36441 2.30637L4.66541 2.08737H4.29341L4.17841 1.73438Z" fill="white"/>
<path d="M6.22137 1.73438L6.10638 2.08737H5.73438L6.03537 2.30637L5.92038 2.66037L6.22137 2.44137L6.52237 2.66037L6.40737 2.30637L6.70837 2.08737H6.33637L6.22137 1.73438Z" fill="white"/>
<path d="M0.0895157 3.47266L-0.0244842 3.82666H-0.396484L-0.0964844 4.04466L-0.210484 4.39866L0.0895157 4.17966L0.390516 4.39866L0.275516 4.04466L0.576516 3.82666H0.204515L0.0895157 3.47266Z" fill="white"/>
<path d="M2.13348 3.47266L2.01848 3.82666H1.64648L1.94748 4.04466L1.83248 4.39866L2.13348 4.17966L2.43448 4.39866L2.31948 4.04466L2.62048 3.82666H2.24848L2.13348 3.47266Z" fill="white"/>
<path d="M4.20041 3.54066L4.17841 3.47266L4.15941 3.53266L4.06341 3.82666H3.69141L3.99241 4.04466L3.87741 4.39866L4.17841 4.17966L4.47941 4.39866L4.36441 4.04466L4.66541 3.82666H4.29341L4.20041 3.54066Z" fill="white"/>
<path d="M6.22137 3.47266L6.10638 3.82666H5.73438L5.77337 3.85466L6.03537 4.04466L5.92038 4.39866L6.22137 4.17966L6.52237 4.39866L6.40737 4.04466L6.47237 3.99766L6.70837 3.82666H6.33637L6.22137 3.47266Z" fill="white"/>
<path d="M0.0895157 5.21484L-0.0244842 5.56884H-0.396484L-0.0964844 5.78784L-0.210484 6.14084L0.0895157 5.92284L0.390516 6.14084L0.275516 5.78784L0.576516 5.56884H0.204515L0.0895157 5.21484Z" fill="white"/>
<path d="M2.13348 5.21484L2.01848 5.56884H1.64648L1.94748 5.78784L1.83248 6.14084L2.13348 5.92284L2.43448 6.14084L2.31948 5.78784L2.62048 5.56884H2.24848L2.13348 5.21484Z" fill="white"/>
<path d="M4.17841 5.21484L4.06341 5.56884H3.69141L3.99241 5.78784L3.87741 6.14084L4.17841 5.92284L4.47941 6.14084L4.36441 5.78784L4.66541 5.56884H4.29341L4.17841 5.21484Z" fill="white"/>
<path d="M6.22137 5.21484L6.10638 5.56884H5.73438L6.03537 5.78784L5.92038 6.14084L6.22137 5.92284L6.52237 6.14084L6.40737 5.78784L6.70837 5.56884H6.33637L6.22137 5.21484Z" fill="white"/>
<path d="M0.204515 7.31003L0.0895157 6.95703L-0.0244842 7.31003H-0.396484L-0.0964844 7.52903L-0.210484 7.88303L0.0895157 7.66403L0.390516 7.88303L0.275516 7.52903L0.576516 7.31003H0.204515Z" fill="white"/>
<path d="M2.24848 7.31003L2.13348 6.95703L2.01848 7.31003H1.64648L1.94748 7.52903L1.83248 7.88303L2.13348 7.66403L2.43448 7.88303L2.31948 7.52903L2.62048 7.31003H2.24848Z" fill="white"/>
<path d="M4.29341 7.31003L4.17841 6.95703L4.06341 7.31003H3.69141L3.99241 7.52903L3.87741 7.88303L4.17841 7.66403L4.47941 7.88303L4.36441 7.52903L4.66541 7.31003H4.29341Z" fill="white"/>
<path d="M6.33637 7.31003L6.22137 6.95703L6.10638 7.31003H5.73438L6.03537 7.52903L5.92038 7.88303L6.22137 7.66403L6.52237 7.88303L6.40737 7.52903L6.70837 7.31003H6.33637Z" fill="white"/>
<path d="M1.07194 2.60156L0.962937 2.93756L0.956937 2.95556H0.585938L0.885938 3.17456L0.770937 3.52756L1.07194 3.30956L1.37294 3.52756L1.25794 3.17456L1.46094 3.02656L1.55894 2.95556H1.18694L1.07194 2.60156Z" fill="white"/>
<path d="M3.11786 2.60156L3.00286 2.95556H2.63086L2.93186 3.17456L2.89386 3.28856L2.81686 3.52756L3.09286 3.32756L3.11786 3.30956L3.15986 3.34056L3.41886 3.52756L3.37086 3.38056L3.30386 3.17456L3.60486 2.95556H3.23286L3.11786 2.60156Z" fill="white"/>
<path d="M5.16083 2.60156L5.04583 2.95556H4.67383L4.97483 3.17456L4.85983 3.52756L5.16083 3.30956L5.46183 3.52756L5.34683 3.17456L5.64783 2.95556H5.27583L5.16083 2.60156Z" fill="white"/>
<path d="M7.20575 2.60156L7.09075 2.95556H6.71875L7.01975 3.17456L6.90475 3.52756L7.20575 3.30956L7.50675 3.52756L7.39175 3.17456L7.69175 2.95556H7.32075L7.20575 2.60156Z" fill="white"/>
<path d="M1.07194 4.34375L0.956937 4.69675H0.585938L0.885938 4.91575L0.770937 5.26975L1.07194 5.05075L1.37294 5.26975L1.25794 4.91575L1.55894 4.69675H1.18694L1.07194 4.34375Z" fill="white"/>
<path d="M3.11786 4.34375L3.00286 4.69675H2.63086L2.93186 4.91575L2.81686 5.26975L3.11786 5.05075L3.41886 5.26975L3.30386 4.91575L3.60486 4.69675H3.23286L3.11786 4.34375Z" fill="white"/>
<path d="M5.16083 4.34375L5.04583 4.69675H4.67383L4.97483 4.91575L4.85983 5.26975L5.16083 5.05075L5.46183 5.26975L5.34683 4.91575L5.64783 4.69675H5.27583L5.16083 4.34375Z" fill="white"/>
<path d="M7.20575 4.34375L7.09075 4.69675H6.71875L7.01975 4.91575L6.90475 5.26975L7.20575 5.05075L7.50675 5.26975L7.39175 4.91575L7.69175 4.69675H7.32075L7.20575 4.34375Z" fill="white"/>
<path d="M1.07194 6.08594L0.956937 6.43994H0.585938L0.885938 6.65794L0.770937 7.01194L1.07194 6.79294L1.37294 7.01194L1.25794 6.65794L1.55894 6.43994H1.18694L1.07194 6.08594Z" fill="white"/>
<path d="M3.11786 6.08594L3.00286 6.43994H2.63086L2.93186 6.65794L2.81686 7.01194L3.11786 6.79294L3.41886 7.01194L3.30386 6.65794L3.60486 6.43994H3.23286L3.11786 6.08594Z" fill="white"/>
<path d="M5.16083 6.08594L5.04583 6.43994H4.67383L4.97483 6.65794L4.85983 7.01194L5.16083 6.79294L5.46183 7.01194L5.34683 6.65794L5.64783 6.43994H5.27583L5.16083 6.08594Z" fill="white"/>
<path d="M7.20575 6.08594L7.09075 6.43994H6.71875L7.01975 6.65794L6.90475 7.01194L7.20575 6.79294L7.50675 7.01194L7.39175 6.65794L7.69175 6.43994H7.32075L7.20575 6.08594Z" fill="white"/>
<path d="M1.18694 8.18213L1.07194 7.82812L0.956937 8.18213H0.585938L0.885938 8.40113L0.770937 8.75513L1.07194 8.53613L1.37294 8.75513L1.25794 8.40113L1.55894 8.18213H1.18694Z" fill="white"/>
<path d="M3.23286 8.18213L3.11786 7.82812L3.00286 8.18213H2.63086L2.93186 8.40113L2.81686 8.75513L3.11786 8.53613L3.41886 8.75513L3.30386 8.40113L3.60486 8.18213H3.23286Z" fill="white"/>
<path d="M5.27583 8.18213L5.16083 7.82812L5.04583 8.18213H4.67383L4.97483 8.40113L4.85983 8.75513L5.16083 8.53613L5.46183 8.75513L5.34683 8.40113L5.64783 8.18213H5.27583Z" fill="white"/>
<path d="M7.32075 8.18213L7.20575 7.82812L7.09075 8.18213H6.71875L7.01975 8.40113L6.90475 8.75513L7.20575 8.53613L7.50675 8.75513L7.39175 8.40113L7.69175 8.18213H7.32075Z" fill="white"/>
</g>
</svg>
