<svg width="16" height="16" viewBox="0 0 16 16" fill="none" xmlns="http://www.w3.org/2000/svg">
<path d="M8.12909 15.99L7.66464 15.5919C7.02435 15.0557 1.43359 10.2273 1.43359 6.6955C1.43359 2.99768 4.43128 0 8.12909 0C11.8269 0 14.8246 2.99768 14.8246 6.6955C14.8246 10.2274 9.23383 15.0558 8.5962 15.5945L8.12909 15.99ZM8.12909 1.44776C5.23222 1.45104 2.88467 3.7986 2.88139 6.69546C2.88139 8.91425 6.32103 12.4587 8.12909 14.081C9.93718 12.4581 13.3768 8.91157 13.3768 6.69546C13.3735 3.7986 11.026 1.45107 8.12909 1.44776Z" fill="#110A95"/>
<path d="M8.1306 9.35104C6.66482 9.35104 5.47656 8.16279 5.47656 6.69701C5.47656 5.23122 6.66482 4.04297 8.1306 4.04297C9.59638 4.04297 10.7846 5.23122 10.7846 6.69701C10.7846 8.16279 9.59641 9.35104 8.1306 9.35104ZM8.1306 5.36996C7.39771 5.36996 6.80358 5.96408 6.80358 6.69697C6.80358 7.42987 7.39771 8.02399 8.1306 8.02399C8.86349 8.02399 9.45762 7.42987 9.45762 6.69697C9.45762 5.96408 8.86352 5.36996 8.1306 5.36996Z" fill="#110A95"/>
</svg>
