<svg width="13" height="13" viewBox="0 0 13 13" fill="none" xmlns="http://www.w3.org/2000/svg">
<g clip-path="url(#clip0_1205_298)">
<path d="M6.5 0C2.91579 0 0 2.91579 0 6.5C0 10.0842 2.91579 13 6.5 13C10.0842 13 13 10.0842 13 6.5C13 2.91579 10.0842 0 6.5 0ZM8.66667 7.04167H6.5C6.201 7.04167 5.95833 6.79954 5.95833 6.5V3.25C5.95833 2.95046 6.201 2.70833 6.5 2.70833C6.799 2.70833 7.04167 2.95046 7.04167 3.25V5.95833H8.66667C8.96621 5.95833 9.20833 6.20046 9.20833 6.5C9.20833 6.79954 8.96621 7.04167 8.66667 7.04167Z" fill="#272727"/>
</g>
<defs>
<clipPath id="clip0_1205_298">
<rect width="13" height="13" fill="white"/>
</clipPath>
</defs>
</svg>
