<svg width="16" height="17" viewBox="0 0 16 17" fill="none" xmlns="http://www.w3.org/2000/svg">
<path d="M0.00195312 8.54158C0.0237829 12.9411 3.59614 16.501 8.00055 16.501C12.4185 16.501 16.0002 12.9194 16.0002 8.50111C16.0002 4.12093 12.4796 0.565006 8.11436 0.503906V8.54171H0.00195312V8.54158Z" fill="#E60012"/>
<path d="M0 8.50013C0 8.51371 0.00106486 8.52702 0.00106486 8.5406H8.11347V0.502795C8.0754 0.502263 8.03773 0.5 7.99966 0.5C3.58154 0.5 0 4.08175 0 8.50013Z" fill="#004EA2"/>
<path d="M4.50977 6.64062L4.80793 7.75827L5.10596 6.64062C5.00972 6.66139 4.91015 6.67257 4.80793 6.67257C4.70557 6.67271 4.60614 6.66139 4.50977 6.64062Z" fill="white"/>
<path d="M5.10596 3.86724L4.80793 2.75L4.50977 3.86724C4.60614 3.84688 4.70557 3.83543 4.80793 3.83543C4.91002 3.83543 5.00959 3.84688 5.10596 3.86724Z" fill="white"/>
<path d="M3.39032 5.25508C3.39032 5.15298 3.40163 5.05341 3.42226 4.95703L2.30469 5.25508L3.42226 5.55312C3.40163 5.45715 3.39032 5.35744 3.39032 5.25508Z" fill="white"/>
<path d="M7.31315 5.25508L6.19531 4.95703C6.21608 5.05327 6.22726 5.15284 6.22726 5.25508C6.22726 5.35744 6.21594 5.45701 6.19531 5.55326L7.31315 5.25508Z" fill="white"/>
<path d="M5.85742 6.2071L6.9758 6.50821L6.15692 5.69141C6.09449 5.88496 5.99106 6.05974 5.85742 6.2071Z" fill="white"/>
<path d="M3.75718 4.30501L2.63867 4.00391L3.45769 4.82097C3.51998 4.62702 3.62341 4.45251 3.75718 4.30501Z" fill="white"/>
<path d="M6.06063 3.08594L5.24414 3.9046C5.43781 3.9673 5.61232 4.07073 5.75954 4.20424L6.06063 3.08594Z" fill="white"/>
<path d="M3.55664 7.42286L4.37353 6.60407C4.17985 6.54177 4.00508 6.43807 3.858 6.30469L3.55664 7.42286Z" fill="white"/>
<path d="M4.37339 3.9046L3.55664 3.08594L3.85786 4.20424C4.00522 4.07073 4.17972 3.9673 4.37339 3.9046Z" fill="white"/>
<path d="M5.24414 6.60393L6.06103 7.42273L5.7598 6.30469C5.61272 6.43794 5.43808 6.5415 5.24414 6.60393Z" fill="white"/>
<path d="M3.45769 5.69141L2.63867 6.50821L3.75718 6.2071C3.62367 6.05974 3.51998 5.88496 3.45769 5.69141Z" fill="white"/>
<path d="M6.15678 4.82097L6.97566 4.00391L5.85742 4.30501C5.99106 4.45251 6.09449 4.62702 6.15678 4.82097Z" fill="white"/>
<path d="M4.80932 4.00391C4.11782 4.00391 3.55664 4.56499 3.55664 5.25653C3.55664 5.94846 4.11782 6.50915 4.80932 6.50915C5.50122 6.50915 6.0616 5.94846 6.0616 5.25653C6.0616 4.56486 5.50108 4.00391 4.80932 4.00391Z" fill="white"/>
</svg>
