<svg width="19" height="18" viewBox="0 0 19 18" fill="none" xmlns="http://www.w3.org/2000/svg">
<path d="M9.43004 1.62159C11.8333 1.62159 12.1177 1.63087 13.0669 1.6741C13.9443 1.71411 14.4209 1.86059 14.7381 1.98384C15.1583 2.14711 15.458 2.34217 15.7731 2.65691C16.0882 2.97201 16.2833 3.27175 16.4462 3.69188C16.5694 4.00913 16.7159 4.48571 16.7559 5.36313C16.7992 6.312 16.8084 6.59673 16.8084 8.99999C16.8084 11.4033 16.7992 11.6876 16.7559 12.6369C16.7159 13.5143 16.5694 13.9909 16.4462 14.3081C16.2829 14.7282 16.0879 15.028 15.7731 15.3431C15.458 15.6582 15.1583 15.8532 14.7381 16.0161C14.4209 16.1394 13.9443 16.2859 13.0669 16.3259C12.118 16.3691 11.8333 16.3784 9.43004 16.3784C7.02678 16.3784 6.74204 16.3691 5.79317 16.3259C4.91575 16.2859 4.43917 16.1394 4.12193 16.0161C3.7018 15.8529 3.40206 15.6578 3.08696 15.3431C2.77186 15.028 2.5768 14.7282 2.41389 14.3081C2.29063 13.9909 2.14416 13.5143 2.10415 12.6369C2.06092 11.688 2.05163 11.4033 2.05163 8.99999C2.05163 6.59673 2.06092 6.31236 2.10415 5.36313C2.14416 4.48571 2.29063 4.00913 2.41389 3.69188C2.57715 3.27175 2.77222 2.97201 3.08696 2.65691C3.4017 2.34181 3.7018 2.14675 4.12193 1.98384C4.43917 1.86059 4.91575 1.71411 5.79317 1.6741C6.74204 1.63087 7.02678 1.62159 9.43004 1.62159ZM9.43004 0C6.98569 0 6.67917 0.0103604 5.71922 0.0543029C4.76142 0.0978882 4.10692 0.250079 3.5346 0.47265C2.94263 0.702723 2.44068 1.01032 1.94052 1.51084C1.44001 2.01135 1.13241 2.51294 0.902337 3.10491C0.679767 3.67724 0.527576 4.33173 0.48399 5.28953C0.440048 6.24948 0.429688 6.55601 0.429688 9.00035C0.429688 11.4447 0.440048 11.7512 0.48399 12.7112C0.527576 13.669 0.679767 14.3235 0.902337 14.8958C1.13241 15.4878 1.44001 15.9897 1.94052 16.4899C2.44104 16.9904 2.94263 17.298 3.5346 17.5281C4.10692 17.7506 4.76142 17.9028 5.71922 17.9464C6.67917 17.9903 6.98569 18.0007 9.43004 18.0007C11.8744 18.0007 12.1809 17.9903 13.1409 17.9464C14.0987 17.9028 14.7532 17.7506 15.3255 17.5281C15.9175 17.298 16.4194 16.9904 16.9196 16.4899C17.4201 15.9894 17.7277 15.4878 17.9577 14.8958C18.1803 14.3235 18.3325 13.669 18.3761 12.7112C18.42 11.7512 18.4304 11.4447 18.4304 9.00035C18.4304 6.55601 18.42 6.24948 18.3761 5.28953C18.3325 4.33173 18.1803 3.67724 17.9577 3.10491C17.7277 2.51294 17.4201 2.01099 16.9196 1.51084C16.419 1.01032 15.9175 0.702723 15.3255 0.47265C14.7532 0.250079 14.0987 0.0978882 13.1409 0.0543029C12.1809 0.0103604 11.8744 0 9.43004 0Z" fill="#A3A3A3"/>
<path d="M9.43006 4.37842C6.87746 4.37842 4.80859 6.44764 4.80859 8.99988C4.80859 11.5521 6.87782 13.6213 9.43006 13.6213C11.9823 13.6213 14.0515 11.5521 14.0515 8.99988C14.0515 6.44764 11.9823 4.37842 9.43006 4.37842ZM9.43006 11.9998C7.7731 11.9998 6.43018 10.6565 6.43018 8.99988C6.43018 7.34329 7.77346 6 9.43006 6C11.0867 6 12.4299 7.34329 12.4299 8.99988C12.4299 10.6565 11.0867 11.9998 9.43006 11.9998Z" fill="#A3A3A3"/>
<path d="M14.2362 5.27569C14.8327 5.27569 15.3162 4.79217 15.3162 4.19571C15.3162 3.59925 14.8327 3.11572 14.2362 3.11572C13.6398 3.11572 13.1562 3.59925 13.1562 4.19571C13.1562 4.79217 13.6398 5.27569 14.2362 5.27569Z" fill="#A3A3A3"/>
</svg>
