<svg width="21" height="16" viewBox="0 0 21 16" fill="none" xmlns="http://www.w3.org/2000/svg">
<path d="M20.5827 3.1512C20.3506 2.28401 19.6691 1.60252 18.8019 1.37038C17.23 0.949219 10.9308 0.949219 10.9308 0.949219C10.9308 0.949219 4.6316 0.949219 3.06136 1.37038C2.19416 1.60252 1.51267 2.28401 1.28054 3.1512C0.859375 4.72144 0.859375 7.99955 0.859375 7.99955C0.859375 7.99955 0.859375 11.2776 1.28054 12.8479C1.51267 13.7151 2.19416 14.3966 3.06136 14.6287C4.6316 15.0499 10.9308 15.0499 10.9308 15.0499C10.9308 15.0499 17.23 15.0499 18.8002 14.6287C19.6674 14.3966 20.3489 13.7151 20.5811 12.8479C21.0022 11.2776 21.0022 7.99955 21.0022 7.99955C21.0022 7.99955 21.0022 4.72144 20.5811 3.1512H20.5827Z" fill="#A3A3A3"/>
<path d="M8.91797 11.0207L14.1527 7.99961L8.91797 4.97852V11.0207Z" fill="#282828"/>
</svg>
